<svg xmlns="http://www.w3.org/2000/svg"><defs><font><font-face font-family="SS Steedicons" units-per-em="2048" ascent="2176" descent="-640"/><glyph horiz-adv-x="2048"/><glyph unicode="!" horiz-adv-x="2048" d="M1245 1878q25-162 1.5-658t-44.5-617q-211-20-305-21-23 229-54.5 648t-51.5 617q131 40 329 40 77 0 125-9zm-347-1546q5 58 50 91.5t107 33.5q57 0 101.5-37.5t44.5-98.5q0-21-3.5-41t-13.5-42-25.5-39-41-27.5-57.5-10.5q-81 0-124 54.5t-38 116.5z"/><glyph unicode="💲" horiz-adv-x="2048" d="M39 1078q0 472 254.5 718t738.5 246q126 0 248-32t230.5-91 200-148 158-198.5 103.5-247 37-289.5q0-218-78-408.5t-214.5-327-332-215.5-420.5-79q-205 0-363 51t-263.5 142.5-173 227-96.5 295-29 356.5zm973 787q-390-5-586-206t-196-611q0-124 32-249.5t96-238.5 152-200.5 209-139.5 257-52q159 0 297.5 48.5t239 132.5 173 194.5 108 237.5 35.5 260q0 167-54 315.5t-154 263.5-257.5 181.5-351.5 63.5zm-114-511q-5-1-13-2t-28.5-8.5-36.5-18-30-31.5-15-47q-3-42 8.5-74.5t29-48.5 35.5-26.5 31-13.5l13-2zm324-526q-8 40-40 61t-60 23l-27 1 13-211q5 2 14 5t31 14 37.5 24 26 35.5 5.5 47.5zm-599 405q0 72 19.5 121.5t59 79.5 87 46 116.5 25q0 103 3 168 29-1 80 3.5t76 4.5q4-9 6-33t2-43.5-.5-50-.5-32.5q77-5 133.5-24t91-46.5 57-72 33-89.5 17.5-111q-4-13-30-17.5t-68.5-5.5-60.5-4q-4 16-9 41.5t-8 38-9 31.5-12.5 28-18 21.5-26.5 18-36 10.5-48 6q-4-32-2-158t2-154q83 1 140.5-17t88-54.5 43-81 12.5-105.5q0-44-16-77.5t-38.5-53-59.5-33.5-66.5-20.5-71.5-11.5q0-108-11-177-11 0-55-5t-68-6-46 8q0 118-4 176-68-2-122 11t-87.5 36.5-56.5 54-33.5 60.5-15 59.5-3.5 48 3 28.5q80 8 149 3 7-79 10-94 19-75 104-80 19-1 42 1 3 22 3.5 46t-2.5 58-4.5 49-7.5 58-6 46q-127 11-201 84t-74 187z"/><glyph unicode="&" horiz-adv-x="2048" d="M1198 1329q-15-1-56.5-5.5t-61.5-4.5q-44 0-85 15 31 161-11.5 240t-178.5 79q-148 0-235.5-71.5t-87.5-199.5q0-53 22.5-95.5t60.5-69 79.5-43 86.5-22.5q4-97-3-182-3 0-9.5.5t-9.5.5q-63 0-113-25t-79-65-44-84.5-15-88.5q0-89 87.5-168.5t210.5-123 237-43.5q87 0 156.5 23t114.5 60.5 75.5 89 43 105 12.5 110.5q0 119-34 165.5t-108 46.5q-54 0-100.5-27.5t-46.5-60.5q0-55 23.5-69t110.5-14q1-10-.5-68.5t3.5-84.5q-63-29-103.5-31t-121.5 23q-107 81-107 205 0 121 95.5 220t224.5 99q53 0 116.5-22.5t119.5-45.5 91-23q41 0 68 29.5t27 66.5q0 64-40 86t-124 22q-44 0-84-9 6 55-3 159 82 41 150 41 48 0 98.5-20.5t94.5-57 72-95 28-127.5q0-119-67.5-201t-186.5-82q13-102 13-171 0-161-84-288.5t-236.5-199.5-345.5-72q-201 0-367 68t-267.5 201-101.5 307q0 73 19.5 139t69 122 121.5 74q-102 22-150 90.5t-48 166.5q0 75 21.5 154t66.5 153.5 106.5 133 148 94 185.5 35.5q268 0 385-150.5t71-413.5z"/><glyph unicode="+" horiz-adv-x="2048" d="M96 1061q0 265 136.5 473t377 321.5 542.5 113.5q145 0 274-56.5t224-155.5 164.5-229 104.5-280.5 35-307.5q0-134-39-252t-104-204-151-156.5-176.5-116.5-184.5-77-173-44.5-142-13.5q-117 0-220 22t-183 60-147.5 92.5-116.5 116-88 133.5-63.5 143-40.5 146.5-22.5 141.5-6.5 130zm1016 748q-166 0-317-43.5t-269-124-188-207-70-280.5q0-62 10-137.5t34.5-165.5 60.5-176 91.5-167.5 123.5-142.5 162-98 202-37q187 0 348.5 51.5t278.5 144.5 183.5 230 66.5 302q0 104-26.5 217.5t-85 227-140 203.5-203 146.5-262.5 56.5zm-486-683q32 2 130 5t160 12q0 48-6.5 135t-1.5 164q20 0 110.5 4t111.5 4q19-30 25.5-63t4.5-59-7-76.5-6-91.5q37-3 94 5.5t99 8.5 68-21q6-41 6-75t-2.5-53.5-8.5-54-9-57.5q-61-4-130.5 3t-133.5 5q0-41 3-143t3-144q-31-14-81-24.5t-89-10.5q-38 0-52 11-27 66-15 285-56-13-150.5-13.5t-147.5 13.5q2 27 4.5 69.5t6.5 75 14 86.5z"/><glyph unicode="-" horiz-adv-x="2048" d="M436 1784q72 73 188.5 123t234 70 236.5 20q174 0 317-52.5t242.5-143.5 168-216.5 100.5-269.5 32-304q0-162-36.5-305.5t-112.5-263.5-186-206.5-264.5-135-341.5-48.5q-134 0-268 44.5t-251 129.5-207.5 197.5-142.5 258.5-52 303q0 82 15 169 20 107 134 328t194 302zm593 46q-124 0-242.5-45.5t-212-124-165-178-110-213.5-38.5-224q0-148 67.5-293t172-250 236-169.5 256.5-64.5q155 0 303 63.5t256.5 167 175 241.5 66.5 281q0 99-22.5 189.5t-54 153-79 124-82.5 95-80 73.5-57 53q-189 121-390 121zm-376-721q4 36 6 1-1 0-3-.5t-3-.5zm708-145q-123 8-357.5-8.5t-340.5-3.5q-3 143-4 158 193 46 429 46 133 0 256-13 2-19 9.5-49t12.5-51 5-43.5-10-35.5z"/><glyph unicode="1" horiz-adv-x="2048" d="M51 919q-18 189 32 383.5t155 329.5q53 68 123 133.5t156 126.5 186.5 98.5 193.5 37.5q201 0 376.5-56t307.5-156.5 227.5-236.5 144.5-300 49-343q0-207-72.5-379.5t-201-290-307-182-386.5-64.5q-158 0-292.5 29t-255 95.5-209.5 168.5-148.5 256-78.5 350zm148 55q2-117 34.5-232.5t99.5-222.5 160.5-189 227-131 289.5-49q214 0 375.5 62.5t262 178.5 149 275.5 45.5 358.5q-3 181-70.5 340t-184.5 274-289.5 175.5-373.5 46.5q-115-8-223.5-51t-200.5-120.5-160-181.5-106-241.5-35-292.5zm537 200q0 16-1 49t-1 65 2 66q57-4 113 30t97 102q35 4 98.5 9t114.5 12q1-49 11-272.5t17.5-441.5 5.5-318q-124-2-239 8 28 461-8 760-9-7-23-19.5t-24-22-27.5-19.5-35-14.5-43.5-3.5-57 10z"/><glyph unicode="?" horiz-adv-x="2048" d="M1112 1066q-13-65-22-219t-16-207q-32-6-74-6-88 0-148 23-7 57-8.5 124.5t1 120.5 7 140.5 6.5 149.5q110 21 199 90.5t85 151.5q-2 54-29 84t-71 30q-31 0-58.5-21.5t-45-54-28-66.5-13.5-64q-4 0-33-3.5t-59-5.5-59-2q-82 0-125 21 1 111 37.5 200.5t96.5 145 133 85 152 29.5q159 0 270.5-89.5t116.5-246.5q5-169-75.5-281t-239.5-129zm-6-702q0-57-30.5-92.5t-96.5-35.5q-69 0-106.5 37t-37.5 91q0 63 47.5 112t103.5 49q50 0 85-43.5t35-117.5z"/><glyph unicode="£" horiz-adv-x="2048" d="M930 12q-173 0-312 31.5t-235 83.5-167 131-112 162.5-65.5 191.5-32.5 203-8 211q0 201 78 387.5t208.5 322.5 308.5 217.5 369 81.5q257 0 454.5-59.5t340.5-183 217.5-324 74.5-472.5q0-269-72-459t-217-305-348.5-167.5-481.5-52.5zm977 1114q0 163-70.5 301t-198 235-311.5 152-403 55q-167 0-302.5-60t-222-155.5-145.5-221-84-250-25-248.5q0-89 10.5-167.5t38.5-158.5 72-145.5 114.5-124 162-97.5 218.5-62 281-23q123 0 228.5 19.5t186 52.5 146 83 111.5 106 81 125.5 56 138 34 148 17.5 149 4.5 148.5zm-1260-39q26 2 148 2-3 53 0 111t8 113.5 24 105.5 48 88 80 60 120 22q173 0 244-80.5t79-271.5q-23 3-75.5 3.5t-77.5 5.5q-10 106-44 151.5t-89 45.5q-88 0-128.5-83t-40.5-276q13-7 83-4.5t88 1.5q6-23 8-41.5t2-42.5 1-38q-14-11-46-13.5t-79.5 1-56.5 3.5q0-2 2-126.5t-2-143.5q27-3 49-3 32 0 98 10t117 10q66 0 143-12 8-34 2.5-80.5t-5.5-58.5q-176 22-236 22-80 0-174-21-145-35-279-35 3 36-2.5 80.5t.5 78.5q47-1 136 12 7 4 1 134.5t-6 141.5q-66 0-140 2-11 20-5.5 72t5.5 54z"/><glyph unicode="¥" horiz-adv-x="2048" d="M1015 42q-207 0-377 54.5t-285 146.5-194.5 217-115 262.5-35.5 286.5q0 125 24 244.5t71 232 124 206.5 176 164 233 109.5 290 39.5q282 0 497.5-74t349-209 200.5-317 67-406q0-177-38-323.5t-118-264.5-200-199.5-289-125.5-380-44zm-842 1026q0-174 48-320.5t130-248.5 191.5-173.5 231-105 250.5-33.5q176 0 318.5 48.5t237.5 132 157.5 198.5 86.5 245.5 16 274.5q-4 72-18.5 143t-45.5 149-75.5 146-112.5 130.5-152 107.5-199 71.5-249 26.5q-178 0-325-48.5t-257.5-144-171.5-248.5-61-351zm632 433q105-148 194-293 32 43 59 93t65.5 134 47.5 102q19 0 73 5.5t87 2 57-20.5q-31-78-77.5-156.5t-106-167.5-92.5-148q18-1 65-2t70.5-2 61-4 68.5-9q4-24 6.5-61t4.5-58q-66-23-293-15 3-20 2-66t4-62q46-3 137.5 4.5t118.5 1.5q2-21 2-36.5t-1.5-28.5-3-20-5.5-22-6-23q-64-10-251-18-1-29 3.5-102t2.5-125q-35-9-58.5-13t-58.5-1.5-62 16.5q-9 27-11.5 60t-1 81 .5 73q-49 1-107.5-6.5t-95-4.5-78.5 26q0 38 14 127 46 4 85 .5t92.5-1.5 95.5 15q0 17-1.5 49t-1.5 48q-30-3-57.5-4.5t-59.5 0-47 2.5-54.5 5-48.5 5q-9 29-11 49.5t2 81.5q36 12 76.5 17t107.5 5.5 80 1.5q-17 25-159.5 208.5t-189.5 251.5q41 10 95.5 17t102.5 4.5 58-16.5z"/><glyph unicode="€" horiz-adv-x="2048" d="M1014 17q-183 0-340.5 52.5t-275.5 148-202 227-126.5 293.5-42.5 343q0 299 118.5 515t331 325.5 497.5 109.5q329 0 565.5-125.5t359-359 122.5-553.5q0-122-13-226t-45.5-205-83.5-182-130-150-182-115-243-72-310-26zm-838 1027q0-78 13-158t43.5-167 76-165 116-149 158-122 206.5-81.5 257-30.5q407 0 627.5 202.5t220.5 559.5q0 222-60 398.5t-178.5 305-306 197-432.5 68.5q-164 0-275.5-39.5t-203.5-117.5q-135-114-198.5-271.5t-63.5-429.5zm209-191q-4 51-8 123 75 0 159 11 1 9 1 21t-.5 26.5-.5 20.5q-11 3-77.5 1t-76.5 11q-6 32 1.5 66t7.5 62q41-7 89-6t86-3q22 108 69 190.5t108.5 129.5 127 70.5 133.5 23.5q113 0 190.5-23t116.5-56 78-88q-7-26-16.5-47t-17-32-22.5-30.5-24-32.5q-62 78-127.5 112t-193.5 34q-97 0-168.5-72t-84.5-179q32-2 143-2.5t158-6.5q-1-28-4.5-47t-9.5-40-9-32q-61-2-93.5-1t-99.5 5-99 5q-11-52 8-94 36-4 77-6t91-3.5 77-2.5q-1-8-3-28t-4-31.5-6-27-10-26.5q-38-4-59-3.5t-70.5 3-83.5 2.5q26-87 102-129t166-42q77 0 164.5 38.5t130.5 84.5q42-27 59-65t23-109q-77-54-178.5-84.5t-204.5-30.5q-190 0-296.5 86t-162.5 249q-62 5-156 5z"/><glyph unicode="ℹ" horiz-adv-x="2048" d="M935 2012q108 0 326-84.5t312-164.5q134-113 244.5-397t110.5-557q0-120-28.5-224.5t-78-182-118-140.5-147-104.5-167-69.5-175.5-40.5-175-12.5q-97 0-186.5 13t-183 45-172.5 82-150 129-120.5 180-78 241-28.5 306q0 175 35.5 332.5t105.5 263.5q37 57 110.5 123t164 125 198.5 98 201 39zm-629-634q-53-139-53-319 0-170 38-311.5t104-239.5 156.5-165.5 194.5-99 219-31.5q221 0 423.5 104t298.5 270q51 90 51 286 0 132-25.5 269.5t-71.5 236.5q-31 67-109.5 154.5t-187.5 163.5-201 90q-22 5-52.5 2.5t-48.5-6-49-10-53-9.5q-236-29-409.5-139t-224.5-246zm837 9q0-55-46.5-104.5t-97.5-49.5q-54 0-109 49.5t-55 109.5q0 64 48 117.5t108 53.5q57 0 104.5-54.5t47.5-121.5zm-282-869q4 70 1.5 155t-5.5 126-10 128.5-11 161.5q194 15 290-25 4-104-4-244.5t-5-293.5q-161 0-256-8z"/><glyph unicode="↺" horiz-adv-x="2048" d="M1682 1313q-37 4-92-3t-96-1q-4 37-10.5 68.5t-23 75-40 78.5-65 71-95 60.5-132 40-173.5 15.5q-275 0-439.5-151.5t-193.5-402.5q-11-92-11-169 0-146 40.5-262t106.5-189 156-121 182-67.5 192-19.5q227 0 380 117.5t153 302.5q0 57-14 110-18-17-39.5-41t-36-41.5-43-52.5-41.5-50q-23 8-64.5 30t-68.5 29q42 67 93.5 139t120.5 150.5 111 95.5q237-165 385-311-11-35-30.5-62t-39.5-28q-39 15-101.5 56.5t-80.5 48.5q2-48 2-69 0-167-41.5-282.5t-127.5-185.5-206.5-101-289.5-31q-92 0-197 9-88 7-170 33t-141 60.5-112.5 79.5-86.5 82-61 77-37.5 57.5-14.5 28.5q-46 92-58 268.5t-2 337.5q7 101 43 198.5t105.5 187.5 165.5 158 232.5 109 295.5 41q157 0 282.5-37.5t203-96 129.5-136.5 73-153 23-151z"/><glyph unicode="⇆" horiz-adv-x="2048" d="M1732 1681q22-186 22-763 23-1 68-2t72.5-1.5 62.5-5.5 61-13q-3-39-111-174t-214-251l-106-116q-195 135-311 253t-218 267q44 1 87.5 4.5t68.5 6.5 72.5 9 65.5 8q-8 330-38 766 43 25 184 25 51 0 109.5-3t91.5-7zm-1702-699q79 128 226 342.5t226 339.5q87-101 137-171.5t111-166.5q111-178 217-323-23-15-106.5-27t-103.5-20q-12-394-12-503-147-30-237-30-59 0-181 13-4 75-6 250.5t-7 265.5q-28 3-114.5 14t-149.5 16zm1502 598q-41 0-96-13-4-71-2-192t3.5-173 6.5-175 7-199q-87-15-222-21 130-173 350-342 137 126 269 350-15 11-44.5 7.5t-69-.5-53.5 19q-9 164-20 402.5t-15 318.5q-68 18-114 18zm-1339-524q50-10 120-6.5t116-.5q-10-53-13-122.5t-2-119 4-143.5 4-139q17 7 98.5 5t102.5-1q2 43 1 153t-.5 226 3.5 116q28 2 77 10.5t85 11.5q-29 46-89 146t-111 180-98 139q-168-224-298-455z"/><glyph unicode="⋆" horiz-adv-x="2048" d="M724 1288q37 83 118.5 281t128.5 301q44-25 79-68t59-92 46-98.5 51.5-100 64.5-82.5q38 0 123.5 9t147.5 14 127.5-8 94.5-50q-2-63-36-131.5t-76-120-93.5-120-76.5-121.5q16-60 48.5-139.5t56.5-137 41-144.5 13-179q-64 12-121 39.5t-103 63-86.5 72-89.5 77-94 66.5q-42-28-85-68t-97.5-96.5-81.5-82.5q-17-16-48-48.5t-52-53-49.5-44-57-35.5-57.5-13q-27 21-34 55.5t0 65 19 75.5 15 68q7 60 17 300-35 42-98 97.5t-108 95.5-88 106-58 142q47 30 131.5 43t172 25 136.5 37z"/><glyph unicode="⌂" horiz-adv-x="2048" d="M355 199q284-31 511-12 3 49 7 178.5t9 300 8 257.5q53-6 215-4.5t220-12.5q9-49 11.5-166.5t1-298-.5-254.5q10 0 196.5-1.5t195.5-1.5q0 103-2 291t-2 341.5 4 289.5q-525 416-847 636-42-51-162.5-159t-234.5-217-158-179q26-754 28-988zm443 449q-48-88-150-88-81 0-147.5 54.5t-66.5 129.5q0 54 39 106 20 27 60 42.5t85 15.5q51 0 94-20t64-61q15-27 14.5-82.5t7.5-96.5zm-78 44q12 76-22.5 113.5t-94.5 37.5q-18 0-41-5-26-19-32-69.5t10-87.5q27-30 78-30 68 0 102 41zm258-505q120-10 236 0 0 104 .5 324.5t-.5 315.5q-18 7-53.5 10.5t-64 3-65.5-1.5-42-1q-1-97-5.5-305.5t-5.5-345.5zm-708-56q-7 143-14 502t-25 514q-15-4-34-4-33 0-55.5 15.5t-22.5 47.5q0 34 49 89t182 177.5 213 202.5q5 5 76 83.5t127.5 132.5 78.5 54q52 0 145-64t159-121q25-22 234.5-169.5t377.5-282.5 168-180q0-46-75-46-16 0-24 1-11-167-9.5-481t-8.5-490q-106 5-322 2.5t-428.5-8.5-439-1-352.5 26z"/><glyph unicode="⌘" horiz-adv-x="2048" d="M1453 1684q-62 0-80-65t-8-184q12 1 41.5 4t42.5 4.5 37.5 6 36.5 9.5 28.5 15 24.5 23 14 32 6 43q0 35-15.5 59t-40.5 34.5-45.5 14.5-41.5 4zm-893-94q-126 0-126-127 0-89 163-89 49 0 109 9 15 99-21 153t-125 54zm615-374q-200-3-255-7 0-57 3-117.5t8-138 8-132.5q22 4 61 7t92.5 5 82.5 4q8 206 0 379zm334-751q70 0 99 30.5t29 90.5q0 102-116 102-37 0-127-17 8-106 23-143 26-63 92-63zm-334 923q0 71 6.5 129t21 100.5 32 74.5 43.5 53 51.5 34.5 60 20 65 9 70.5 2.5q60 0 104-24.5t67-67 33.5-92 10.5-108.5q0-69-20-114.5t-76-75.5-94.5-42-135.5-35q-32-8-49-12-2-85-1-120.5t5.5-134.5 6.5-148q98 6 146 6 50 0 88.5-5.5t76-22 62-45 39.5-76 15-113.5q0-278-303-278-131 0-214 86.5t-111 240.5q-30 2-113.5-2t-105.5-4q-9-204-93-296t-257-92q-73 0-124 13t-91.5 46.5-60.5 96.5-20 157q0 49 16 87t47.5 63.5 69.5 43 92 27.5 104.5 14.5 115.5 6.5q-1 42-13.5 180.5t-4.5 226.5q-55 2-95 4.5t-95 10-94 19.5-81 33.5-68 50.5-42.5 73-16.5 98q0 64 19 111.5t50.5 77 78.5 47.5 96 25 110 7q62 0 121.5-26.5t105-72 69.5-115.5 15-149q119-17 265-4zm-408-764q-53-2-89-5t-75-11-62-21-38-35-15-52q0-46 31-78t95-32q55 0 90.5 25t47 61 16.5 76.5-1 71.5z"/><glyph unicode="⎙" horiz-adv-x="2048" d="M1386 1690q10-34 18-67t16.5-73 14.5-66q48-9 226.5-19.5t255.5-24.5q44-145 64.5-334t18-340.5-9.5-288.5q-87-10-269.5-14t-240.5-7q4-22 19-69t21-79q-218-20-504-20-292 0-489 20 29 142 40 176-350 8-474 22-34 118-41.5 287.5t4.5 322 37 295.5q53 32 126.5 47.5t195 25 159.5 14.5q15 36 32 114t26 107q182 41 381 41 237 0 373-70zm-695-31q1-25-9.5-74t-5.5-87q422-2 686-14-17 100-64 181-162 33-307 33-161 0-300-39zm-511-321q-46-184-52.5-380.5t38.5-364.5q66-4 210-6.5t219-8.5q1 2 69 174 163 20 331 20 133 0 397-18 61-159 71-219 250 2 440 14 22 184 7 398.5t-66 390.5q-196 48-384 42 46-100 63-199t17-225q-33-16-187.5-26t-343.5-10q-378 0-537 38-10 94-5 237 1 18 4 37t6.5 33.5 10.5 36.5l10.5 33 13 35 12.5 33q-249-17-344-65zm1544-376q36 0 59.5-16.5t23.5-50.5q0-37-24-58.5t-64-21.5q-33 0-55 18.5t-22 50.5q0 33 23.5 55.5t58.5 22.5zm-62-365q-5 70 0 152h138q1-70-11-145-12 0-53.5-6t-73.5-1zm-922 78q-26-47-56.5-144.5t-42.5-154.5q86-1 264-4.5t249.5-4 248.5 2.5q-6 39-15 83.5t-16 75.5-19.5 81-17.5 73q-200 12-306 12-161 0-289-20z"/><glyph unicode="⏏" horiz-adv-x="2048" d="M840 825q-185-4-355 7 33 64 82.5 164t79.5 160.5 77.5 143.5 90 142 103 125.5 130.5 123.5q76-92 204-277t232.5-368.5 86.5-219.5q-142-12-226-10t-239.5 7-265.5 2zm-364-170q133 25 349 25 102 0 315-7.5t314-7.5q39 0 111 2 34-114 6-302-72-1-199.5-4.5t-165.5-3-209 1.5q-42 1-161.5 2t-209 4-162.5 11q2 32 0 92t-.5 107.5 12.5 79.5z"/><glyph unicode="⏩" horiz-adv-x="2048" d="M387 433q-18 577-23 1175 46-26 79.5-45.5t65-39.5 45-28.5 51-34.5 49.5-34q218-147 321-204 12 218 16 393 66-36 210.5-154t295.5-249 187-159q-134-155-357.5-367t-325.5-247q-1 48-1.5 115.5t-1 102.5-2.5 82.5-6 91.5q-48-37-117.5-94.5t-113-91.5-103.5-76-126-75-143-61z"/><glyph unicode="⏪" horiz-adv-x="2048" d="M313 986q106 129 361 331t398 270q10-67 9-208.5t8-217.5q49 28 193.5 142t269.5 206.5 156 90.5q22-233 26.5-604t-5.5-548q-142 65-361 224.5t-279 236.5q-4-78-4-154t2-155.5 2-116.5q-48-13-291 152t-485 351z"/><glyph unicode="⏲" horiz-adv-x="2048" d="M45 964q0 154 32 290.5t89 242.5 134.5 194.5 168 150.5 190.5 104.5 201 62.5 201 20q139 0 267-46.5t230-129 186.5-196.5 141-247.5 87-283.5 30.5-303q0-169-58-307.5t-152.5-229-221-152.5-259-88.5-270.5-26.5q-162 0-306 41.5t-251 113-192.5 165-138.5 199.5-81 214.5-28 211.5zm152 3q0-157 43.5-289t120-226 180-160.5 223.5-98 250-31.5 252 33 227.5 100 184.5 161 124 225 45 283q0 156-46 301t-124.5 256.5-179 195.5-214.5 128-226 44q-115 0-234.5-37.5t-232-115.5-200-185.5-140.5-259-53-324.5zm846 491q-33 14-49 69t-12.5 115 21.5 96q34-3 59.5-44.5t34-91.5-4.5-93.5-49-50.5zm-255 12q-32-20-67-15.5t-63.5 32-29.5 63.5q35 24 70 19t62-34 28-65zm569 55q10-9 10-35t-8.5-52.5-30.5-43.5-51-10q-5 30 4 51t24 30.5 31 25 21 34.5zm89-341q-19 19-10 38.5t26.5 31.5 38.5 31.5 25 38.5q56-23 26-72-24-40-74-60-17-7-32-8zm-994 53q-1 20 3 34t9 23 17 13.5 20.5 6 26.5-.5 27-3.5 29.5-6.5 27.5-6v-80q-22-11-42-11t-34 6-38 14-46 11zm508-354q-8 31-8 114.5t4.5 163 10.5 150.5q10 0 43.5-3.5t43.5-3.5q-4-38-2-161.5t-2-154.5q19-5 47-8t50-4.5 57.5-3 51.5-2.5q0-39 3-90-61 2-154 2t-145 1zm-596 121q81 41 173.5 28t47.5-108q-31-23-110.5-23t-110.5 23v80zm1116-93q-6 50 34 77.5t94 26.5 92-24q3-36-22-59.5t-61.5-30.5-74.5-4.5-62 14.5zm107-214q9-72-44-90-46-16-93 16-55 38-45 103 1 6 2 11 32 7 55-.5t35-20 35-20 55 .5zm-1107-87q6 29 27.5 48.5t50.5 37.5 42 35q36-18 40-40-2-25-20.5-47t-43.5-32.5-51.5-13-44.5 11.5zm813-179q2 27-13.5 73t-7.5 87q56-17 88-49t33-91q-41-29-100-20zm-474 134q-14-15-19-57.5t-20.5-67.5-60.5-15q7 130 100 140zm201-268q-28 15-40 45.5t-11.5 57 6 72.5 5.5 65h60q3-14 13-50.5t13.5-57.5 4-49.5-12.5-49-38-33.5z"/><glyph unicode="␡" horiz-adv-x="2048" d="M419 1766q119 83 299 120t347 37q145 0 271.5-40.5t218-107 166.5-154.5 123-181 80.5-189 46-175.5 13.5-143.5q0-129-47.5-241.5t-125-193-180-146-208.5-106.5-214.5-68.5-194.5-39-151-11.5q-235 0-403 98-78 47-171 190t-158.5 324-65.5 318q0 200 106.5 405t247.5 305zm535 10q-159 0-294-58.5t-225-157.5-140.5-231-50.5-279q0-153 64-294.5t168.5-243 244.5-162 287-60.5q109 0 221.5 27t217.5 82.5 187 132 131.5 184.5 49.5 231q0 177-70 333t-187.5 264-275 170-328.5 62zm58-623q77 136 171 273 17-2 50.5-4.5t53.5-4.5 44-10.5 39-23.5q-32-52-59-92t-56.5-78.5-43-55-51-60.5-46.5-55q16-15 51.5-47.5t45.5-42.5 36-36.5 40-44 39.5-50.5 51.5-71.5 61-91.5q-24-9-89-16.5t-91-6.5q-174 183-264 296-49-90-96-155t-126-144q-17-3-77.5-1t-84.5 10q54 92 143.5 222.5t129.5 212.5q-28 28-95.5 88.5t-107.5 106.5-79 112q34 8 81 12t77 5h30q34-53 79-102.5t89-91.5 54-53z"/><glyph unicode="■" horiz-adv-x="2048" d="M537 1556q190 24 420 24 293 0 517-39 48-460 34-1054-209-19-437-19-323 0-501 40-30 691-33 1048z"/><glyph unicode="▲" horiz-adv-x="2048" d="M1498 986q82-125 136-243.5t114.5-266.5 133.5-288q-74 0-410.5-7.5t-472.5-6.5q-29 0-146 .5t-177.5 1.5-161.5 3-186 6.5-162 10.5q68 151 173 417.5t155 379.5q127 287 283.5 583.5t194.5 296.5q55 0 133-114.5t143-256.5 139-301 111-215z"/><glyph unicode="△" horiz-adv-x="2048" d="M1006 1640q-62-125-171-323.5t-188.5-343.5-167.5-337.5-141-360.5q195 0 273.5-1t275.5 4 278 7.5 279.5 9 279.5 9.5q-63 110-135 266.5t-133 296-130 283-151 272-169 218.5zm7-1501q-95-10-218.5-14t-215-4-240 1.5-216.5 1.5q60 136 131.5 301t101.5 232.5 74.5 167.5 86 187.5 101.5 210.5q52 106 120 228.5t161 280.5 114 195q76-109 248.5-402.5t204.5-344.5q69-111 183.5-369.5t194.5-461.5l81-203q-89-3-269 1.5t-350.5 4.5-292.5-13z"/><glyph unicode="▶" horiz-adv-x="2048" d="M645 501q-3 44-30 1046 167-55 457.5-205t360.5-247q-77-101-354-311.5t-434-282.5z"/><glyph unicode="○" horiz-adv-x="2048" d="M87 985q0 142 33.5 265.5t90 212.5 133 161.5 160 119 174 78 171.5 44.5 156 13q94 0 190-19t190-57.5 179-93 157.5-130 126-164 83.5-199 30-231.5q0-216-118-414.5t-285-292.5q-194-109-513-109-223 0-397.5 48t-301 145.5-193 254.5-66.5 368z"/><glyph unicode="◎" horiz-adv-x="2048" d="M674 1959q112 24 219 24 97 0 198.5-19t204.5-58.5 198-96 177-136.5 143-175.5 96-217.5 35-257q0-137-29.5-260t-80-218-118-175-144-135.5-158.5-94.5-160-57-150-18q-107 0-222 32.5t-226.5 92.5-212 152-176.5 202.5-120.5 253-44.5 295.5q0 286 156 522t415 344zm-377-606q-45-132-45-276 0-126 33-250.5t103-240.5 169.5-204.5 244-142 313.5-53.5q28 0 76.5 12t115 40.5 136 69 138 105 121.5 141 86 183.5 33 227q0 168-76.5 344.5t-186.5 290.5q-76 79-167 132t-198.5 80.5-217.5 38.5-252 11q-165-92-266.5-213t-159.5-295zm1393-262q0-107-25-215.5t-75.5-206.5-120.5-174.5-166.5-121.5-206.5-45q-158 0-296 61t-233.5 164.5-150.5 243.5-55 295q0 88 20 171t66.5 161 114 136 171 93 229.5 35q199 0 363-71t264.5-208.5 100.5-317.5zm-694-648q252 0 402.5 127.5t150.5 333.5q0 140-54.5 279.5t-149.5 218.5q-87 72-221.5 119.5t-236.5 47.5q-72 0-136-30.5t-110.5-82.5-81-119-51.5-143-17-152q0-104 28.5-195t75-154 102.5-113 113.5-79 105-43.5 80.5-14.5zm450 593q0-105-35.5-194.5t-92-145.5-123.5-87-134-31q-107 0-216.5 49.5t-183 135-73.5 179.5q0 46 8.5 100.5t31 118.5 56 115 89.5 85.5 126 34.5q55 0 120.5-9.5t142.5-35.5 139-64.5 103.5-104 41.5-146.5zm-686-32q0-134 76.5-209.5t193.5-75.5q118 0 211 76t93 190q0 70-24.5 120.5t-78 87.5-127.5 62.5-184 48.5q-75-34-117.5-118.5t-42.5-181.5zm110 87q104 60 230 49 13-24 40.5-55t43-58.5 15.5-62.5q0-67-46-106t-110-39q-77 0-139.5 47.5t-62.5 122.5q0 48 29 102z"/><glyph unicode="●" horiz-adv-x="2048" d="M1039 476q-273 0-418.5 130.5t-144.5 390.5q0 271 125 423.5t374 152.5q81 0 158-14.5t158.5-54.5 142-101.5 99.5-163.5 39-233q0-252-142-391t-391-139z"/><glyph unicode="☀" horiz-adv-x="2048" d="M1011 2026q153-236 237-450-45-16-167-16-135 0-235 15 12 109 63 239.5t102 211.5zm-497-681q-93 167-108 298 181 0 308-107-16-15-86-86t-114-105zm853 204q148 36 294 43-34-189-93-265-25 17-47 35.5t-36.5 32.5-33.5 38-27.5 35-29 41-27.5 40zm-781-549q0 112 36 197t100 137 148 78 184 26q120 0 218-69t150.5-180 52.5-238q0-73-10.5-130.5t-37-109.5-69.5-86-111-54-159-20q-102 0-191.5 28t-159.5 81.5-110.5 141-40.5 198.5zm-132 204q-3-59 1.5-209.5t2.5-204.5q-59 5-168.5 60.5t-197.5 112.5q40 45 113.5 96t116.5 74.5 117 62.5q10 6 15 8zm1173-363q-4 33-14.5 106.5t-16 131.5-4.5 118q266-62 364-138-72-75-142.5-124t-186.5-94zm-12-154q36-50 54.5-79t41-80.5 40.5-117.5q-85-8-151.5 3t-172.5 44q68 121 188 230zm-1221-362q60 221 103 328 44-28 118.5-124t94.5-115q-119-56-316-89zm478 81q76-6 412-3-8-101-54-201.5t-110-179.5q-69 62-147 188.5t-101 195.5z"/><glyph unicode="☁" horiz-adv-x="2048" d="M1439 1256q78 29 151 29 114 0 203-68t134-172.5 45-222.5q0-173-97-296-53-8-288-48t-402.5-58-337.5-18q-124 0-286 14.5t-233 31.5q-114 43-183 173t-69 279q0 75 19.5 140.5t57.5 118.5 101.5 83.5 145.5 30.5q55 0 121-15 14 187 120.5 287.5t280.5 100.5q103 0 190.5-29.5t143-73.5 96.5-99.5 60.5-101.5 26.5-86zm-731-173q-18-1-37 1t-28.5 2-27-6-40.5-22q-16 6-27 22t-17 31.5-22.5 26-43.5 8.5q-84 3-145-58.5t-82.5-148-9.5-178.5 60-147q160 3 241 2.5t242.5-4 239.5-4.5q245-2 436 16t355 70q16 48 18 92t-9.5 79.5-31 67-46 59-54 51-56.5 46.5l-12 9q-76-7-149-5t-129 21q7 35 7 71 0 73-31 134t-82 99.5-113.5 59.5-128.5 21q-124 0-211-72t-87-207q0-66 21-137zm566-146q50 29 141.5 26.5t153.5-27.5q42-119 7-180-25 1-40 15t-20.5 31.5-17.5 35-31 22.5q-65 13-89 1t-58.5-33.5-69.5-20.5q-7 78-70 128t-139 50q-71 0-119.5-48t-49.5-142q-34-1-72 14.5t-63.5 30.5-65 20-75.5-17q-27-6-42.5-28.5t-27.5-60.5-20-53q-74 43-74 104 0 64 70.5 117.5t154.5 53.5q72 0 124-45 49 73 119 120.5t157 47.5q61 0 126-26 9-20 46.5-61t44.5-75z"/><glyph unicode="☆" horiz-adv-x="2048" d="M986 1710q-10-44-25-82t-37-82.5-34-75.5q-13-33-38-117.5t-41-108.5q-31-46-93-63.5t-144-28.5-131-34q41-42 171-151t187-182q-40-112-88-372 40 12 89 52t89.5 83 95.5 88.5 104 66.5q71-28 179.5-117.5t184.5-117.5q-2 57-24 115.5t-45 98.5-36.5 94.5-1.5 108.5q7 32 48.5 87.5t100 121 65.5 74.5q2 2 13 11 53 42 41 59-5 6-17 10-43-8-103.5-6t-97.5 6.5-99.5 12-108.5 10.5q-42 69-103.5 221t-100.5 218zm25 146q33-8 56.5-35t33.5-55 23.5-70 21.5-61q10-23 36-71.5t42.5-88 22.5-76.5q53-21 131-27t144-2 141 1 123-20q2-47-21.5-95.5t-60-88-79-83.5-79.5-82-62-84-25-89q0-47 21-104.5t46.5-103.5 46.5-105 21-109q0-65-35-125-69-2-139.5 28.5t-117.5 69-113.5 94.5-105.5 82q-164-103-257-182-20-17-53-54t-56.5-62-63.5-45.5-84-20.5q-9 33-3 73t13 62.5 19.5 55.5 17.5 52q2 8 22.5 72t28 113-1.5 91q-7 33-51 76t-102 84.5-115 84.5-96 89-39 85q0 46 34.5 71t90.5 33 115.5 12 120 16 93.5 37q37 53 72 140.5t58.5 158.5 66.5 145 98 113z"/><glyph unicode="☇" horiz-adv-x="2048" d="M822 1927q135 9 278 9 157 0 366-12-51-135-155-358 178-12 187-12-49-106-182.5-294.5t-172.5-257.5q145-4 185-11-30-53-264.5-379t-367.5-500q-30 2-71 9 25 70 76.5 218t74.5 211q-24 3-92 5t-107 7q36 107 119.5 292.5t113.5 270.5q-21-2-117 5t-143 8q35 107 131.5 376t140.5 413z"/><glyph unicode="☔" horiz-adv-x="2048" d="M1528 1355q43 8 93 8 98 0 181.5-38t136.5-100 83-136.5 30-150.5q0-75-29.5-138t-87.5-102q-107-73-405-73-150 0-465 24t-433 24h-48q-83 0-123.5.5t-109.5 4.5-105 12.5-85 25-76 41-52 62-37 86.5q0 281 102.5 430t324.5 149q84 0 177-20 32 120 163 187t296 67q94 0 177.5-22t151-64.5 106-114 34.5-162.5zm-128 16q0 94-91 154.5t-224 60.5q-154 0-234-77-34-31-49-75.5t-29-93.5-42-84q-97 44-196 44-107 0-200-49.5t-157-130.5q-23-152 11-264 157-37 445-37 66 0 205.5 2.5t210.5 2.5q96 0 267-10.5t271-10.5q317 0 317 133 0 45-62 106.5t-143.5 105-134.5 43.5q-44 0-86.5-26.5t-66.5-26.5q-30 0-50.5 24.5t-20.5 53.5q0 24 29.5 71t29.5 84zm-1104-819q-8-42-23-77t-42-82.5-35-62.5q-32 6-46.5 34.5t-10 65 18.5 72 38 59.5 49 24q29 0 51-33zm1580 19q23-19 47-20-15-73-43.5-128t-72.5-55q-21 0-45 15 46 128 114 188zm-1334-23q-6-31-16-59.5t-25.5-64.5-21.5-52q-79 4-97 25 9 13 29.5 61t41.5 76 49 28q19 0 40-14zm659 12q51-10 51-65 0-52-39-103t-85-51q-23 0-42 15 50 142 115 204zm-181-1q-18-110-31-143-29-76-102-76-10 0-16 1 0 31 6.5 65.5t20.5 70.5 41.5 59.5 64.5 23.5q11 0 16-1zm-248-13q0-30-4-60.5t-15-66-36-58-60-22.5q-13 0-33 5 8 45 17 76t25 61.5 42.5 46.5 63.5 18zm545-176q11 17 31.5 68.5t45 76.5 68.5 24q11-17 12-36.5t-6-39.5-15-35.5-20.5-36-17.5-29.5q-16 1-48.5 3.5t-49.5 4.5zm357 152q12-37 5-79t-35-76-63-34q-26 0-52 20 14 19 31 66.5t40 75 64 27.5h10z"/><glyph unicode="☕" horiz-adv-x="2048" d="M961 1736q-23-2-38.5 6t-21.5 17-15 29.5-12 26.5q7 23 22 47t27 40 23 40.5 10.5 48-10.5 62.5l60-3q23-33 26-64.5t-9.5-54.5-28.5-48-31-46-16.5-48 14.5-53zm255-27q-49-8-68 49-19 60 7 123 23 58 72 68-2 9-9.5 23.5t-12 23.5-2.5 21.5 14 22.5q39-5 57.5-29t15-55-16.5-61.5-36.5-53-45.5-26.5q-7-18 .5-36t18.5-28.5 15.5-23-9.5-18.5zm-512 9q-44 15-56.5 42.5t-1 61.5 28 69 27.5 74.5 1 68.5q44-21 59-48t7.5-58.5-22-62.5-29.5-72-14-75zm-227 312q40-16 57.5-38.5t14-46-15-50.5-29-52.5-28.5-52-14-49 15-43.5l-15 7.5-15.5 8.5-13.5 9-13 10.5-9 12.5-6.5 16.5-1.5 20 3 24.5q83 85 71 223zm896-510q-156-15-502-9-375 6-540-17 104-848 267-1385 131-8 240-8 241 0 425 37 23 158 41 348t27 327 21.5 363.5 20.5 343.5zm91-321q27-4 58 1t45.5 6 46.5-14q45-243 21-513-12-28-40-47.5t-56.5-28.5-59.5-26-46-40q-2-25-4-75 33-7 75.5-3t64 8.5 59 14 59.5 13.5q2 58 7 164.5t7 162.5.5 143-9 144.5-25 124.5-45.5 124q-23 7-41.5 9t-32.5-2.5-25-8.5-19-17.5-13-20.5-10-27.5-6.5-28.5-5.5-32.5-5-30.5zm-26-556q43 8 68.5 36.5t33 66.5 6 90-8 98-12.5 99.5-5 87.5l-45 3q-2-30-15-127.5t-20.5-192.5-1.5-161zm-1208 931q151 28 316 32.5t289-4.5q119-8 289.5-6t328.5 26q25-11 28-52t-2.5-79 10.5-67q17 1 52 6.5t61.5 9.5 55 2 43.5-12q36-40 61-96t37-127.5 19-139 5.5-158-3.5-153.5-7-157-7-139q-100-45-187-68t-194-20q-10-34-24.5-111.5t-32.5-130.5-49-85q-246-50-525-50-126 0-261 11-32 20-54.5 50.5t-34 69.5-18 73-13.5 83-14 78q-4 16-28 121t-30.5 136-28 129.5-29 144.5-22.5 135-20 146-11.5 133-5.5 141.5 6 127.5z"/><glyph unicode="♡" horiz-adv-x="2048" d="M1146 1696q61 60 165.5 93.5t218.5 33.5q140 0 248-52.5t139-155.5q9-78 9-150t-7.5-133.5-23.5-120-35.5-106-48.5-96-57.5-86.5-66-80-71-74.5-76.5-71.5q-81-73-157-156t-125.5-145-90.5-115.5-68-81.5-42-28q-31 0-63 43t-75.5 127-66.5 120q-82 125-151 212t-114 129.5-87.5 72-71.5 41-65 35-69 57.5q-84 86-128 191.5t-44 216.5q0 79 17.5 145.5t59 126 106 100.5 162.5 65 224 24q152 0 275.5-44t179.5-137zm-891-300q0-67 21.5-122t65.5-100 85-76.5 107-77 105-77.5q129-106 222-220t200-296q72 87 166 178t167 153.5 148 139.5 124.5 146 81 162.5 31.5 199.5q0 157-92 274-144 35-276-9.5t-199-137.5q-4-16-10.5-45.5t-10.5-47-11.5-42-16-38.5-22.5-28.5-31-19.5-41-3.5-54 11.5q-13 58-6.5 115.5t3.5 130-29 114.5q-133 67-286 67-118 0-217-39.5t-162-121-63-190.5z"/><glyph unicode="♥" horiz-adv-x="2048" d="M1146 1696q61 60 165.5 93.5t218.5 33.5q140 0 248-52.5t139-155.5q9-78 9-150t-7-133.5-23.5-119.5-36-106-48-96.5-57-87-66.5-80-71.5-74-76.5-71.5q-78-70-165-169.5t-143.5-174-105.5-128.5-69-54q-29 0-61 42t-77.5 128.5-66.5 119.5q-98 154-152 222t-160 161q-34 30-120.5 78.5t-125.5 85.5q-88 84-132 198.5t-40.5 224.5 52.5 209 137 155q58 36 162 59t218 23q152 0 275.5-44t179.5-137z"/><glyph unicode="♫" horiz-adv-x="2048" d="M1681 1782q92-295 120-742 2-40 10-134t13-175 5-145q0-79-9.5-131.5t-35.5-97.5-78.5-66.5-133.5-21.5q-49 0-100.5 16t-101 50-88 81-62 116-23.5 149q0 89 18.5 158.5t47 112 68.5 70 79 38 81 10.5q54 0 99-15.5t60-35.5q-7 284-68 461-187-34-459-21-97 4-138 5.5t-117.5 0-139.5-9.5q24-106 40.5-342.5t22.5-291.5q19-169 19-236 0-319-252-319-143 0-241 94t-98 245q0 156 77.5 258t197.5 102q61 0 100-34-9 101-18 381t-26 453q267-20 660-1 373 18 471 18z"/><glyph unicode="⚙" horiz-adv-x="2048" d="M963 1340q-74 0-137.5-49.5t-96.5-118.5-33-135q0-71 31.5-132.5t77.5-99 95.5-59 89.5-21.5q49 0 102 19t100.5 54 78.5 93 31 126q0 83-31.5 148t-82.5 101.5-108.5 55-116.5 18.5zm289-1282q-46-19-106-21.5t-110 4.5-109 7.5-104-10.5q-23 141-39 371-40-10-90-56t-113.5-118.5-89.5-98.5q-36 11-70.5 29.5t-57.5 35.5-53 48.5-44.5 49-45.5 57-42 53.5q20 45 59 87.5t76 71 77 70 62 84.5q-9 5-153 1t-199-1q9 50 2.5 122.5t-19.5 137.5-11 134.5 28 113.5q71-7 179 5.5t133 13.5q-159 149-293 254 26 62 71.5 115.5t98 108.5 83.5 102q60-19 114-55t88.5-71 82.5-75.5 95-63.5q7 97 7 226.5t7 207.5q50-3 121 1t126 9.5 121.5 2.5 117.5-19q-19-220 9-448 181 202 323 311 41-5 78-19t61-27.5 56-43 45-43.5 46-54 42-50q-44-79-97-141.5t-111-124.5-100-122q32-20 95-22.5t120.5 3.5 116.5-1q14-31 23-66.5t12-90.5 4-80 .5-103-.5-90q-232-46-430-39 20-45 53.5-85.5t71-72.5 75.5-62.5 74-69.5 58-81q-35-47-98.5-88.5t-130-82-103.5-83.5q-81 39-138 105.5t-116 168.5q-24-17-32-73t-5-121.5-2-137.5z"/><glyph unicode="⚠" horiz-adv-x="2048" d="M554 1166q56 119 159 267t200 252 137 104q22 0 100.5-117t180-292.5 186.5-329 151-277.5q24-44 37-70t35-74 30.5-82 14.5-74-3.5-71.5-33.5-54.5q-115-111-801-82-53 2-155 3t-169 3-144.5 9.5-127.5 26-73 48.5q-17 22-18 61.5t16 99.5 35.5 114.5 55.5 137.5 61 134.5 67 140.5 59 123zm403 190q-2-104-8-262t-9-250q131 0 171-2 7 98 6 264.5t5 253.5q-112 6-165-4zm69-638q-72 0-99-36t-27-99q0-53 39.5-83t94.5-30q48 0 82.5 35.5t34.5 86.5q0 61-27.5 93.5t-97.5 32.5z"/><glyph unicode="⛰" horiz-adv-x="2048" d="M549 1196q-2-50-17-82-16-36-36-87.5t-36.5-96-42-117.5-38.5-112-40.5-121-35.5-105h115q12 39 28 106.5t28.5 114.5 34 98.5 56 87 82.5 52.5q36-12 66.5-40.5t48.5-57.5 44.5-62.5 53.5-52.5q40 39 82 102t71 115 75.5 106.5 99.5 85.5q60-60 117.5-148t89.5-151 89.5-186.5 80.5-169.5q20 6 70 12t81.5 17 44.5 36q-190 377-262 541-17 38-45 109.5t-48.5 117.5-50.5 103.5-67.5 101.5-83.5 76q-36-61-82-157t-79.5-167-86.5-150.5-112-131.5q-40 17-79 48.5t-66 60.5-67.5 59-82.5 45zm-377-836q2 71 26 169t47.5 167 73.5 205q8 20 26 72t29.5 83 31 78.5 36.5 77 38.5 59 45 44 48.5 14.5q34 0 62.5-16t51-42.5 42-54 45.5-57 52-45.5q57 71 113.5 185.5t113 224.5 117.5 180q78 3 146-50.5t117-129.5q42-66 80-156.5t80-206 69-178.5q26-60 81.5-165.5t89.5-187 42-155.5q-37-62-144.5-88.5t-230.5-26.5q-69 0-213 8.5t-215 8.5q-51 0-142-16.5t-136-16.5q-83 0-240 14.5t-231 14.5q-81 0-152-13z"/><glyph unicode="✉" horiz-adv-x="2048" d="M1874 163q-226-42-573-14h-13q-9 0-215.5-4.5t-355.5-4.5q-395 0-507 31-24 125-32.5 264t-5.5 255.5 4 257-3 268.5q26 44 70 88.5t104.5 89.5 110 78 125 81 110.5 72q19 12 74.5 61.5t108.5 95.5 118 85.5 109 42.5q78-52 172.5-138t197.5-186 175-159q26-21 72-50.5t74-52 40-46.5q15-32 23.5-80t10-79.5 2.5-96.5 1-79q10-264 3-780zm-362 1264q-55 48-197 184t-220 196q-21-1-146-91t-307.5-226-272.5-198q174-11 445-11 160 0 451.5 5.5t406.5 5.5h20q-35 40-98 79t-82 56zm-1211-240q12-113 11.5-424t14.5-444q53 38 178.5 117t225.5 149.5 161 134.5q-70 71-169 150t-238.5 181-183.5 136zm1425-3q-66-64-219.5-226.5t-212.5-220.5q85-52 251.5-201t211.5-183q0 29 .5 129t.5 139-.5 124.5-2.5 132-5.5 110-9.5 110.5-14 86zm-512-514q-34-43-104-108-10-8-27-8-24 0-44 16-12 9-40 42.5t-45 45.5q-90-72-301.5-221.5t-274.5-196.5q191 6 679-9 466-12 695 14-323 281-538 425z"/><glyph unicode="✋" horiz-adv-x="2048" d="M657 82v158.5l-11 221.5q-10 18-32.5 33.5t-44 26-44.5 30-35 44.5q-6 13-11 41.5t-8.5 72.5-5.5 84-3.5 98.5-2 92-1.5 88-1 64.5q-2 116 4 177t28 115q16 42 40 58t58 16q17 0 37-3 1 33 1.5 93.5t2.5 92.5 8.5 75 22.5 74 43 56q31 0 62-34t49.5-75.5 22.5-73.5q5 161 19 214 10 39 26 58 30 14 55 14 69 0 114-86.5t34-189.5q11 28 22 72.5t18 70.5 26.5 46.5 50.5 20.5q32 0 54.5-22t33.5-60.5 17-83.5 6-99-1.5-97.5-3.5-89.5-2-65q25 27 72.5 46t94.5 19q79 0 112-54 11-17 6.5-38t-13.5-35-21.5-35-16.5-37q-11-47-12.5-150.5t-9.5-150.5q-3-16-16-44.5t-17-45.5q-8-33-18.5-88t-17.5-87-23.5-71-41.5-67q-29-8-56-20.5t-61.5-31-49.5-26.5q-4-39-7.5-162t-15.5-195q-80-84-291-84-122 0-245 28zm469 90q3 85 3 151t2.5 113 22.5 84 62 65q12 8 48 15.5t52 17.5q64 38 101 212 7 32 11.5 103.5t10.5 109.5q-28 18-78 22 2 18 26 20t48 4.5 26 20.5q-3 22-14.5 30.5t-38.5 17-47 19.5q15 16 55.5 5t56.5 6q45 152 74 202-20 24-53 24t-95-31q-54-24-80-82.5t-29-119.5-11.5-141.5-29.5-130.5q-51-6-92-17t-70.5-28-50-33-38-42-27-43-24-48-22.5-46q-3-1-15 8.5t-18 11.5q21 57 32.5 85.5t30.5 60.5 35 45.5 47.5 29.5 66 25 92.5 21q-51 9-105 10.5t-123-8-101.5-14-117-22.5-92.5-19q-13 25-14.5 59.5t-7.5 52.5q-5 7-36 11t-31 22q-2 13 7.5 17.5t22 3.5 21.5 4 5 20q2 16-7 36.5t-4 41.5q-4 0-12.5-.5t-13.5 0-12.5.5-11.5 1.5-8.5 4-6.5 7-2 10.5q0 13 11 19t23.5 7 22.5 8 10 21q-2 12-7 89.5t-11 97.5q-8 29-32 29-19 0-28-26-19-94-23-205.5t6-222 25-207.5 36-191q13-11 58-40t65-50q11-32 16.5-88t6.5-93.5 0-109.5-1-77q85-11 168-11 156 0 234 45zm-91 865q-4 24-10.5 56.5t-9.5 60.5q-11 4-26 1t-28-2-13 12q14 34 67 34 2 20 0 60t-.5 70 11.5 48q-6 8-21 10t-29 2-23 8-5 25q4 18 12.5 20t25.5-4 29-5q2 37-7 98.5t-5 102.5q-6 5-25 9.5t-27.5 14.5-2.5 32h67q2 146-9 186-6 23-26 39.5t-41 16.5q-36 0-47-49-11-43-13.5-163t-3.5-129q-3-48-5-90.5t-2.5-89-.5-75 2-82 3-73.5 4.5-86.5l4.5-85.5q23 2 77.5 14.5t76.5 13.5zm181 184q-6 8-25 20.5t-27.5 27.5-3.5 41q7 4 15.5.5t14.5-8 13-10.5q12-11 16.5-11.5t7.5 18.5q1 62 5.5 117.5t5.5 94.5q-5 10-22.5 16.5t-28 17-5.5 33.5q9 9 16.5 9.5t18.5-4 21-5.5q-2 28 3 106t1.5 127-25.5 49q-30 0-61-102t-52.5-298.5-21.5-428.5q14-7 54-19.5t57-24.5q12 94 23 234zm-382-211q-8 103-12 214-11 11-32.5 7t-40 0-14.5 24q0 11 17.5 13.5t36 .5 28.5 2q0 33-6 104t-6 105q-3 8-15.5 9.5t-25.5 0-22 3-7 18.5q0 11 16 14t33.5 1.5 27.5 1.5q-24 188-40 234-17 50-45 50-35 0-49-60-3-12-3.5-83.5t.5-180.5 1-120q6-121 36-404 32-6 72.5 8.5t49.5 37.5z"/><glyph unicode="✎" horiz-adv-x="2048" d="M649 1298q59 78 178.5 251.5t204.5 276.5 188 191q270-91 610-407-48-108-113-222.5t-127-210-150.5-217-154.5-207-169.5-219-166.5-216.5q-187-118-303-164.5t-391-121.5q-7-2-15.5 11t-14.5 32-7 34q28 346 50.5 528.5t49.5 234.5q38 74 171 231.5t160 194.5zm403 439q95-89 250.5-194.5t272.5-172.5q58-33 83 37-124 106-275 214.5t-280 184.5q-1-1-23.5-31.5t-27.5-37.5zm-48-52q-18-34-53-88 30-37 64.5-68.5t76.5-60 71.5-46.5 81.5-47.5 74-42.5q29-17 71.5-46t74.5-47.5 65-30.5q10 18 29 44t27 39q-86 49-184 115t-224.5 156.5-173.5 122.5zm-99-145q-72-111-154-221t-185.5-244-163.5-216q15-21 31.5-56t36.5-65 52-54q98 147 293 402t238 313q-26 25-71 69t-77 72zm214-175q-50-67-169-208t-224.5-277-176.5-255q4 2 27.5 14.5t29.5 16 27 13 30.5 12 27.5 7 30.5 4 29-3.5 31.5-9q-1-30-7-89t-7-89q116 156 285 405t242 351q-17 3-176 108zm237-151q-54-60-155.5-204.5t-238-349-137.5-205.5q11-3 40-17t46-16q84 101 258.5 343t301.5 386q-35 16-115 63zm-984-458q-5-58-25-186.5t-26-174.5q25-11 88.5 3.5t88.5 3.5q15-21 18-49.5t.5-52 7.5-51 36-48.5q16 10 126 70t167 104q-29 23-85 31.5t-87 34.5q25 111 45 170-30 15-65 4.5t-61.5-30.5-61.5-31.5-65 1.5q-8 41-44 117t-57 84z"/><glyph unicode="✓" horiz-adv-x="2048" d="M1796 1747q-63-48-119-105t-100.5-114-87-131-73.5-137-64.5-152-55.5-156-51-169.5-47.5-172.5-48.5-183.5-49-185.5q-75 12-188 0-59 66-145 180.5t-149.5 198-162 176.5-203.5 150q244 76 435 51 37-27 73.5-69t81-92 96.5-91q52 194 201 524.5t268 511.5q106 26 171 26 102 0 218-60z"/><glyph unicode="✝" horiz-adv-x="2048" d="M1229 1443q-4 84-18.5 188t-35.5 148q-22 0-84.5 8t-122.5 8-115-16q12-207 12-396-7-1-180-7.5t-210-15.5q-6-48-6-213 25 0 208-9.5t213-7.5q4-37 18-160t19-175.5 13.5-153 11-191 1.5-190.5q35 0 149 2.5t150 2.5q1 114-4 297.5t-7.5 297 5.5 299.5q34 2 104.5 2.5t130 3.5 112.5 11q-13 27-32 120t-36 121q-59 4-157.5 14t-138.5 12zm-471 426q329 21 508 0 12-47 19-96t16-129 14-119q221-18 323-25 32-158 40-415-106-36-347-23-17-151 5-455t12-426q-83-13-180-12.5t-159.5 7-183.5 21.5q0 22-1 145.5t-2.5 175.5-4.5 153.5-9.5 183.5-16.5 162q-73 1-145.5 4.5t-156.5 10-102 7.5q-19 139-17 415 50 11 186.5 15.5t217.5 19.5q0 84-10 194.5t-6 185.5z"/><glyph unicode="❓" horiz-adv-x="2048" d="M860 2005q88 8 155 8 149 0 266-35.5t207-100 190-173.5q154-169 212.5-322t58.5-365q0-229-59.5-410.5t-176-309-295-195-410.5-67.5q-174 0-323.5 58t-255.5 156.5-181.5 228.5-112 275-36.5 296q0 118 18.5 219t50.5 180.5 85.5 149.5 112 123 142 105 163.5 92 189 87zm0-193q-119-30-218.5-106.5t-165-174.5-111.5-214-66-225-20-207q0-152 61-281t162.5-215 234.5-134 277-48q155 0 298 54 112 41 208 130.5t158 197 96.5 221.5 34.5 212q0 199-112 411.5t-234 291.5q-76 49-191.5 76t-237.5 27q-95 0-174-16zm323-754q-1-35-14-92.5t-8-114.5q-34-3-62-3.5t-39.5.5-43.5 5.5-43 5.5q0 50 2.5 67t-3 52.5-8 46.5-11.5 48.5-14 58.5q137 72 168 96 48 38 45 89-1 25-12 64-51 69-110 69-47 0-84.5-44.5t-49.5-119.5q-72-8-144-13 3 73 12.5 127.5t19.5 91.5 33 61 39.5 37 53 19 59 7 72.5 1h15q126 0 211.5-102t85.5-226q0-81-42.5-143t-127.5-88zm-253-472q0 73 23.5 117t85.5 44 96-37.5 34-89.5q0-61-24-103t-78-42q-70 0-103.5 23t-33.5 88z"/><glyph unicode="➡" horiz-adv-x="2048" d="M1243 1257q-295 11-412-10-104-18-187-59t-139.5-91-98.5-128-66-148-40.5-174.5-23.5-182.5-13-197q62-14 156-19.5t180 4.5q-25 140 32.5 324.5t166.5 301.5q25 27 55 46.5t56 32 65.5 18.5 65.5 8.5 77 0 78-4.5 88-8q0-35 12.5-148t12.5-149q34 30 114 95.5t127.5 106.5 109.5 106.5 106 128.5q-80 85-265 300.5t-267 302.5q0-76 5-232t5-225zm-483-1161q-308-14-668 20-2 162 11 312.5t44.5 302.5 92.5 280 148 211q55 53 115 88t117.5 55.5 138.5 30 154 11.5 189 1q-6 217 0 548 68-33 240-198.5t340.5-347.5 273.5-309q-26-75-316.5-325.5t-467.5-367.5q-3 62-7 159t-7.5 159.5-10.5 118.5q-115-10-196.5-76.5t-123-174.5-57.5-231-10-267z"/><glyph unicode="⤢" horiz-adv-x="2048" d="M1028 1257q48 62 115 140t101 109q-23 17-58 57t-62 63q26 27 232.5 86t286.5 67q11-117 1-276.5t-41-180.5q-33 5-75 35.5t-52 35.5q-35-39-80.5-95t-83.5-97-91-84q-28 8-57 26t-47.5 33.5-47 42.5-41.5 38zm-322-74q13 20 43.5 57t43.5 57q25-4 125-75t226.5-165 180.5-128q-12-24-36.5-58t-42.5-55l-19-22q-85 70-215 160-43 30-147.5 112.5t-158.5 116.5zm-306-914q0 8 2 92t5 157.5 11 155 20 114.5q17-13 38-25.5t49-28.5 40-23q72 104 224 280 69-39 192-167-70-109-207-263l10-8 8.5-7.5 9-9.5 8.5-8.5 9-10 8.5-10 9.5-11.5 9-11.5 11-13.5 11-14q-68-50-244-121.5t-224-66.5z"/><glyph unicode="⬅" horiz-adv-x="2048" d="M800 1257q0 69 5 225t5 232q-82-87-267-302.5t-265-300.5q44-63 106-128.5t109.5-106.5 127.5-106.5 114-95.5q0 36 12.5 149t12.5 148q61 6 88 8t78 4.5 77 0 65.5-8.5 65.5-18.5 56-32 55-46.5q109-117 166.5-301.5t32.5-324.5q86-10 180-4.5t156 19.5q-6 119-13 197t-23.5 182.5-40.5 174.5-66 148-98.5 128-139.5 91-187 59q-117 21-412 10zm483-1161q6 144-10 267t-57.5 231-123 174.5-196.5 76.5q-7-56-10.5-118.5t-7.5-159.5-7-159q-177 117-467.5 367.5t-316.5 325.5q105 127 273.5 309t340.5 347.5 240 198.5q6-331 0-548 116 1 189-1t154-11.5 138.5-30 117.5-55.5 115-88q87-83 148-211t92.5-280 44.5-302.5 11-312.5q-360-34-668-20z"/><glyph unicode="" horiz-adv-x="2048" d="M175 1526q0 14 3 30t6 27.5 8.5 31.5 8.5 30q627-24 779 409 31-12 53.5-34.5t47.5-57 44-53.5q102-105 293.5-149.5t446.5-22.5q24-318-11-593t-127-499.5-247.5-391-367.5-259.5q-166 80-308.5 186t-263 247-203.5 305-126.5 367-35.5 427zm254-144q2-191 81.5-404.5t227.5-398 326-268.5q-8 125-8 260-70-23-142 4 0 65 25.5 163.5t27.5 153.5q-51 24-73.5 83.5t-15 120.5 45.5 110.5 96 55.5q-1 40-2 99.5t-2 80.5-6.5 58-16.5 79q-37-53-96.5-90.5t-137.5-58.5-154.5-31.5-175.5-16.5zm682-115q79-3 125-81.5t35-161.5q-11-78-80-145 8-24 26-56t32.5-56 29-58 15-63-9.5-71h-119q-1-34 .5-76t5-100.5 4.5-87.5q81 88 141.5 163t130.5 186.5 111.5 218.5 63 243.5 5.5 276.5q-131 11-290.5 52.5t-237.5 100.5q5-189 12-285z"/><glyph unicode="" horiz-adv-x="2048" d="M665 1514q0 7 57.5 88t142.5 192.5 147 183.5q67-70 98-105.5t81.5-100.5 82-129.5 51.5-137.5q-119-12-192-25 8-50 3-162t-5-124q-38-18-114-18-85 0-139 27-7 191 3 287-127 16-216 24zm660-665q-10 67-9 107.5t11 118.5q121-11 236 0 0 5-3 109.5t5 121.5q58-12 188.5-110t187.5-160q-67-109-165-203.5t-199-153.5q0 1-9 168-25 1-65 2.5t-62 2.5-54 .5-62-3.5zm-777-191q-130 58-227.5 124t-213.5 169q81 106 201 202t243 165q3-42 5.5-113t4.5-114q24-2 123.5-6t145.5-10q3-33 3.5-64.5t-.5-76.5-1-70q-186 0-264 7-3-85-20-213zm151-175q28 0 117.5-3.5t117.5-3.5q2 62-3 127t-6 90 9 93q60 2 81 2 61 0 142-9 0-23 .5-91t-.5-123-4-85q17 0 70.5-1t89.5-2.5 63-5.5q-58-101-144-216t-159-185q-210 117-374 413z"/><glyph unicode="" horiz-adv-x="2048" d="M1801 1903q104-663 33-1289-2-16-8.5-89t-11.5-104-15-84-26-85-38-51q-48-41-220-61.5t-398-20.5q-228 0-418.5 20t-254.5 56q-31 64-81 260.5t-97.5 452-70.5 512 1 439.5q236 21 452 32t543.5 20.5 413.5 12.5q25 5 85 3t111-24zm-82-77q-15 4-47.5 6t-86 1-100.5-2-124-5.5-121.5-7-129.5-7.5-113-7q-18-1-150.5-6.5t-237-11-211.5-17-133-26.5q-23-13 2-21t97.5-11.5 123.5-4 139-.5q114 0 442 16t461 29q74 8 156 37 73 26 33 38zm37-167q-27-7-65-12.5t-61-10.5q19-18 34-29.5t34.5-25 36.5-26.5q18 18 27 52t-6 52zm-348-38l24-24 23.5-22.5 22.5-16.5 31-14q3 5 16.5 20t24 30.5 14.5 32.5q-19 0-77.5-3t-78.5-3zm-228-28l96-59q24 19 31.5 30.5t17.5 43.5q-13 14-64.5 9.5t-80.5-24.5zm431 2q-5-11-30-36.5t-25-43.5q49-37 114-66 5 13 13 29.5t12.5 27.5 7.5 25q-9 7-22 17.5t-20.5 16.5-20.5 14.5-29 15.5zm-704-17q56-50 100-66 10 6 20.5 15t20 19.5 16.5 18 15 17.5 9 11q-14 0-91-7.5t-90-7.5zm-190 5q-7-18-15-30t-18-23-16-20q13-9 38-26t42-28.5 31-24.5q8 17 17.5 33t16 30.5 13.5 39.5q-44 25-109 49zm150-5l-56 2 49-29zm-500-87q6 11 20.5 31t24.5 35.5 9 20.5q-22-2-57.5-3t-58.5-3.5-42-10.5q59-44 104-70zm1056-53q24 25 49 68-15 17-49 41t-38 27q-10-9-33-38.5t-31-36.5q11-12 20-20t20-14l16.5-9 21.5-9zm-763 136l-109-2 66-64zm469-6q-10-20-65-103 17-7 58-32t62-32q31 37 58 94-22 9-56 35t-57 38zm-644-2q-12-24-37-55.5t-40-55.5q65-45 115-55 5 10 26.5 36t31.5 63q-26 14-52.5 35.5t-43.5 31.5zm501-105q-52 52-94 70-5-13-28.5-51t-31.5-62q10-5 47-30.5t56-31.5q38 59 51 105zm783 58q-24-17-66-92 5-3 37-33.5t48-43.5q-5 127-19 169zm-1515-26q19-147 32-175 20 29 38 64.5t18 52.5q-33 36-88 58zm1272-11q-11-13-45-79 17-9 32-18.5t38.5-26.5 38.5-27q5 9 17 24.5t19 28.5 6 26q-84 62-106 72zm-892-25q-30-61-62-106 5-6 9-10.5t7-8 7.5-7.5 7-6.5 8.5-7l8-6 10.5-7 11.5-7.5 14.5-9.5 16.5-10.5q10 13 29.5 34.5t32 40.5 22.5 47q-22 7-61.5 31t-60.5 33zm659-8q-5-20-24.5-46.5t-24.5-35.5q55-39 115-65 3 7 12.5 32t17.5 39.5 19 26.5q-12 4-49 25.5t-66 23.5zm-130-99q-68 50-124 64-9-13-23-39t-24-42q21-9 50.5-31t54.5-33q9 10 28 36t38 45zm-772 56q-16-21-66-109 56-42 100-61 4 5 14.5 16t14.5 15.5 11.5 15.5 13 23.5 12.5 30.5q-43 38-100 69zm1286-26q-17-37-48-91 21-11 33-19t31.5-22 39.5-28q9 10 17.5 24t17 31.5 14.5 27.5q-13 10-31 26.5t-33 26.5-41 24zm-874-24q-17-20-39-62t-28-53q10-6 25.5-16t23.5-14.5 23-12.5 35-16q45 45 58 115-2 2-9.5 8t-9 7.5-8 6.5-9.5 6.5-9 6-11 6.5-11.5 5.5-14 6.5-16.5 6zm654-5q-3-12-23.5-44.5t-25.5-54.5q10-5 47-28.5t62-27.5q22 33 43 96-13 6-29.5 21.5t-34 26.5-39.5 11zm-241-28q-37-65-69-107 17-8 57-31t57-31q6 9 20.5 29t25.5 36.5 19 32.5q-65 51-110 71zm-676-21q-17-24-60-101 11-13 54.5-39.5t50.5-31.5q8 11 22.5 29t22.5 31 17 36q-20 12-52.5 37t-54.5 39zm423-29q-35-75-67-117 14-12 101-70 22 27 72 119-34 26-106 68zm855-145l-11 135-40-62zm-98 58q-15 13-29 21t-38 19-46 24l-15-36q-16-35-20-60 22-8 57-33t58-32q22 54 33 97zm-1414 49q5-24 22-76.5t24-83.5q32 62 52 111-13 7-28 16.5t-22.5 14-20 9.5-27.5 9zm1186-94q-45 43-109 70-2-4-32-40t-34-62q17-11 50-39t65-44q6 19 29 54t31 61zm-689-23q-26 31-101 83-66-106-70-115 24-13 55-33t49-30q10 19 19.5 33t25 33.5 22.5 28.5zm313 46q-11-20-34-58.5t-38-64.5q20-20 32.5-31t34.5-24.5 48-21.5q32 40 47.5 70t21.5 71q-15 7-48 26.5t-64 32.5zm634-10q-7-13-12-28.5t-10.5-38-8.5-31.5q12-6 31-20.5t36-20.5q25 38 28 75-33 43-64 64zm-1312-7q-33-77-45-119 53-41 100-53 39 65 60 104-80 52-115 68zm1111-40q-50-91-65-112 47-56 104-70 6 10 19 30t18.5 29.5 14 24.5 14.5 30q-44 34-105 68zm-691-15q-9-17-36-53.5t-41-57.5q6-3 45.5-27.5t57.5-28.5q40 35 79 101-19 14-55 35t-50 31zm427-26q-9-15-37-54t-42-69q7-7 32-35.5t46.5-46.5 40.5-21q12 21 40 63t41 67q-3 3-29 27.5t-45.5 39.5-46.5 29zm-685-32q-4-9-11.5-28t-14-32-17.5-27q9-6 44.5-33.5t58.5-39.5q7 14 26.5 43t26.5 47q-8 10-25 21.5t-47.5 27-40.5 21.5zm1178-87q-17 16-42 32.5t-40 29.5q-4-6-20-28.5t-31-45.5-24-43q21-10 48.5-28t44.5-28q55 57 64 111zm-758 47q-11-21-37-59.5t-40-68.5q24-10 59.5-35t61.5-37q8 19 18 36.5t16 27.5 17 26.5 15 23.5q-20 12-55.5 42.5t-54.5 43.5zm-670-22q4-99 32-168 11 16 40 43.5t48 56.5q-85 60-120 68zm1025-162l115-65q7 23 33.5 62.5t32.5 68.5q-17 10-51.5 37.5t-51.5 37.5q-8-20-39-65t-39-76zm-622 115q-29-38-46-93 9-6 28-19.5t35.5-23.5 40.5-21q3 6 25.5 43t25.5 59q-68 38-109 55zm1042-172l8 155-49-87zm-1280 132q-17-32-67-105 9-4 47-30t58-31q6 7 26.5 28.5t31 35.5 12.5 25q-27 23-108 77zm665-2q-59-82-72-124 18-5 48-29.5t48-32.5q21 24 29.5 34.5t19.5 30.5 19 44q-10 11-21 20.5t-19 16-24.5 19-27.5 21.5zm408-40q-23-37-71-129 11-7 39.5-22t48.5-29q16 19 28 38t27 46 27 47q-20 12-51.5 26t-47.5 23zm-672-16q-6-14-15.5-28.5t-23.5-33-21-29.5q6-6 27-28.5t38-36 34-18.5q11 8 20.5 17.5t15 16 11 16 7.5 13.5 6 14 5 12q-11 9-46 39t-58 46zm-237-42q-40-53-77-95 9-10 24-21t37.5-25.5 30.5-20.5q29 31 43 50.5t29 53.5q-12 5-43.5 29.5t-43.5 28.5zm1039-15q-11-28-34.5-71.5t-33.5-67.5q12-4 36-23.5t36-23.5q17 14 32 53t28 52q-13 27-37 51.5t-27 29.5zm-392-9l-9-9q-9-8-12-11t-11.5-12.5-14-17-13.5-20-15-26.5q11-9 32-25.5t32-25 27.5-18.5 32.5-15q35 47 66 114-15 6-49.5 34.5t-65.5 31.5zm-929-30q29-94 45-196 60 43 88 115-57 60-133 81zm670-8q-8-21-28-50.5t-34-54.5q15-14 30.5-26t33.5-24 28-20q3 4 10.5 13.5t10.5 13 9 11.5 9 12.5 7.5 11.5 8 12.5 7 13 6.5 14.5q-16 18-48 42t-50 31zm-143-113q-48 49-102 74l-12-12-10-10.5-9.5-12.5-8-11.5-9-14-8-13.5-10-17.5-10.5-18.5q13-8 50.5-36.5t66.5-36.5q23 23 35 44t27 65zm566 53q-8-14-18-37t-21.5-42.5-29.5-41.5q10-5 27-15.5t30.5-17.5 27.5-10q9 16 33 47.5t36 67.5q-8 5-26.5 18.5t-31.5 20.5-27 10zm-276-38q-36-78-70-126 19-14 41.5-32.5t41-32.5 47.5-31q58 64 69 129-11 8-37.5 29.5t-49.5 38.5-42 25zm-633-2q-13-15-36.5-52t-38.5-55q50-35 102-53 28 34 56 87-41 46-61 59-9 7-22 14zm1177-60l20-66 12 121zm-147 21q-1-13-15-37t-33-51.5-24-35.5q17-13 41.5-27t34.5-22q7 8 13.5 16t12 17.5 9.5 15.5 10 19 8.5 18.5 9.5 22.5 10 24q-11 9-21.5 14.5t-27.5 12.5-28 13zm-644-23q-5-9-28-40.5t-32-51.5q5-3 34.5-33t59.5-50q48 56 66 111-31 33-100 64zm-252-37q-30-60-61-91 1-1 35-26t64-39q16 27 35.5 52.5t24.5 33.5q-11 6-45 35.5t-53 34.5zm1011-17q-9-16-22-37t-23.5-39-20.5-39q9-10 31-28.5t37-33.5q22 9 39 105-7 10-17.5 35t-23.5 37zm-334-8q-47-63-60-94 15-15 42.5-35t31.5-23q20 9 36 36.5t22 59.5q-15 11-34 28t-38 28zm-929-30q23-127 49-169 20 18 32 35t23 40 16 32q-9 0-30.5 11.5t-48.5 28-41 22.5zm664-6q-19-35-71-105 101-74 116-83 2 4 26 46.5t30 62.5q-18 10-51.5 39.5t-49.5 39.5zm-263-32q-24-23-68-92 55-52 92-79 12 13 20.5 25t19.5 30.5 24 36.5q-33 44-88 79zm642-14q-19-42-59-108 9-6 36.5-20.5t44.5-26.5q30 33 60 102-8 10-18.5 18t-18.5 12-22.5 11.5-22.5 11.5zm-880-38q-8-18-26.5-44t-33.5-54q13-5 31.5-12t33.5-12.5 29-9.5q50 56 68 77-2 1-42 25.5t-60 29.5zm1009-19q-4-11-21.5-48t-21.5-50q9 0 33 .5t37 1 29 5 23 12.5q-4 5-16 18.5t-16 17.5-12.5 13.5-16.5 16-18 13.5zm-365-6q-2-10-8-22t-17.5-32-17.5-32q18 5 84-2.5t91-5.5q-9 7-30.5 23.5t-33.5 25.5-31 22-37 23zm-275-28q-31-27-45-68 8 0 71 2t72 2q-67 46-98 64zm-276-87l124-5-77 69z"/><glyph unicode="" horiz-adv-x="2048" d="M683 259q-270-8-601 9-24 137-38.5 385.5t-18 482.5-3 411 3.5 218q306 19 901 25 190 1 537 1 35 0 173.5-186t263-388 124.5-244q0-51-97-170.5t-216-234-220.5-203.5-112.5-89q-163 0-696-17zm117 1118q-17-1-90-5.5t-100-5.5-89-1.5-98 3-83.5 12.5-86.5 23q5 27 20.5 36.5t32 6 40.5-10 37-6.5q80 1 378 13 54 5 115.5 1t93.5-27q-5-20-19-30.5t-33.5-12.5-38-1-42.5 3.5-37 1.5zm924-310q0-98-78-164.5t-213-66.5q-128 0-211.5 64t-83.5 172q0 116 84 180.5t201 64.5q123 0 212-69.5t89-180.5zm-77-3q0 79-66 126.5t-152 47.5q-80 0-135.5-42.5t-55.5-121.5q0-78 44-119.5t129-41.5q28 0 62 5.5t76.5 20 70 47 27.5 78.5zm-743 91q-49 11-144.5 12.5t-182-2-170 2.5-115.5 26q2 17 14 27t33.5 12.5 40 3 45-1.5 36.5-2q124 1 261-13 28-3 73.5 1t79.5 2.5 56-16.5q3-21-13-26 3-21-14-26zm641-97q0-40-31-63t-76-23q-17 0-30 1.5t-28 6-25 13-16.5 24.5-6.5 38q0 53 31 81.5t75 28.5q41 0 74-32.5t33-74.5zm-979-112q-19 0-61-3t-70-3.5-61.5 3-57.5 17.5-37 39q57 0 190 7.5t252.5 7.5 222.5-15v-39q-5-1-12-7.5t-14-6.5q-44 7-96 7.5t-133-3-123-4.5zm182-208q-29 0-144-5t-188.5-1.5-136.5 19.5q7 39 51.5 47t128.5-1 120-7q15 1 51 6.5t53 6.5q64 5 146 .5t128-26.5q-10-24-37-35t-50.5-11-64.5 3.5-57 3.5zm3-371q469 20 571 19 87 70 168 140.5t182 167 162 181 61 137.5q0 15-5.5 31.5t-19.5 39-22.5 35-30 41-26.5 35.5q-41 56-119 163t-136 185-110 147q-65-1-1303-26 6-116 17.5-405.5t25-495.5 35.5-389q190-22 550-6z"/><glyph unicode="" horiz-adv-x="2048" d="M1058 1813q-47 57-48 153 18-4 51.5 2t34.5-2q9-38 43.5-124t42.5-143q-5-3-29-9.5t-28-19.5q-33 15-47 50.5t-20 92.5zm382-200q-47 18-59.5 45t4 58.5 40.5 62 49.5 67 31.5 63.5q11-3 96-38-1-34-21.5-69.5t-46.5-61-54-61-40-66.5zm-773 19q13 36 40 40t60-18 64-48.5 61-54 42-33.5q-3-13-11-25.5t-11.5-17-18.5-19-16-15.5q-150 118-210 191zm-200-1555q-187 53-267 153 16 48 60 115t106 147 82 110q100 150 190 267 32 40 88 134t84 133q20 29 66.5 82t67.5 80q12 16 51 73.5t73 98.5q112 140 152 143 48 4 126.5-68t83.5-132q4-40-7.5-82.5t-38-87-48-74.5-58.5-76.5-48-61.5q-193-257-248-324-62-77-166-220t-183-238-166-172zm753 1479q-172-178-276-344-4 0-6-.5t-3.5-2.5-.5-6q30-20 69.5-63.5t79-75 90.5-42.5q15 32 70.5 98.5t94.5 132 35 122.5q-3 48-56 105.5t-97 75.5zm296-201q4 18-4.5 38.5t-5.5 38.5q69-1 183-23.5t151-24.5q6-11 7.5-22.5t.5-18.5-4-22-4-23q-183-1-324 57zm-124-295q2 30 19.5 47.5t47.5 28.5q26-21 75.5-40t91.5-40 62-53q4-27-12-53.5t-17-42.5q-49 20-132.5 76.5t-134.5 76.5z"/><glyph unicode="" horiz-adv-x="2048" d="M1535 1842q3 5 9.5 14.5t9.5 14.5 5.5 13.5-3.5 12.5q-21-4-29.5-21t8.5-34zm-69-126q27 43 11 91.5t-48 55.5q-12-17-8.5-40t10.5-36.5 18.5-35 16.5-35.5zm-69-126q22 32 33 47-20 18-32 51t-17 61-20 52.5-40 31.5q-9-40 3-80t38-88.5 35-74.5zm-72-106q1 6 7 14t12.5 15 11.5 14 5 13.5-8 10.5q-24 13-39 55.5t-34.5 92.5-50.5 76q-9-48 6.5-96t47-106 42.5-89zm240 199q25 20 51-1 8 13 9.5 26.5t0 21.5-7.5 23.5-8 20.5q-3-9-14.5-23.5t-20.5-24.5-14-23 4-20zm-313-305q22 32 32 47-35 34-56.5 95t-42 113-55.5 72q-9-42 2.5-88t30.5-79.5 47.5-81 41.5-78.5zm237 219q95-40 162 10-21 33-75 28t-87-38zm-318-336q24 30 21 55-19 53-73 171-3 8-9.5 23t-11.5 27.5-12 28.5-13 26-13.5 19.5-13.5 9-13-5.5q-15-15-14-38t8-39 25-47.5 23-42.5q36-75 96-187zm-77-138q-8 4-8 10.5t5 13.5 11.5 14 13 15 7.5 14q-25 27-35.5 69t-25 80.5-51.5 65.5q-7 42-30.5 93t-43.5 27q-11-13-12.5-31.5t5.5-41.5 15.5-42.5 21.5-47.5 19-44q5-13 20-54.5t24-62.5 26.5-45.5 37.5-32.5zm349 332q24 17 62.5 18t73.5 6 59 33q-33 20-89 9t-89 9q-3-7-10.5-16.5t-13.5-17-10.5-16-.5-15 18-10.5zm-445-473q10 15 32 47-24 87-95 249.5t-78 180.5q-29-22-33.5-48t5.5-45.5 28.5-50 24.5-47.5q11-29 28-92t36.5-110 51.5-84zm356 343q31 17 92.5 15.5t108 8.5 62.5 56q-155 29-262-28 10-6 1-25.5t-2-26.5zm-429-449q6 9 17.5 26t14.5 21q-41 71-99 208t-90 198q-7-40-8.5-70.5t8.5-67.5 22-65 31-63 35.5-62 36-62 32.5-63zm369 335q33 8 138 19.5t159 36.5q-33 17-90 18t-110.5-8.5-104.5-25.5q10-7 8-10.5t-7.5-6-11-4.5-1.5-6.5 20-12.5zm-438-461q8 57-9.5 120t-43.5 110.5-58 111.5-46 111q-18-42-20.5-85.5t5.5-77 30.5-76.5 41.5-70.5 51.5-73 48.5-70.5zm341 320q42 11 93 12t95-2 91.5 17.5 81.5 70.5q-40-2-96.5-3t-108-1.5-97-18.5-63.5-55q-9 6-12-2-3-9 16-18zm-77-86q-5-18 16-28 37 20 88 24.5t92.5.5 91 5 85.5 37q-35-2-118.5 3t-143.5-2.5-111-39.5zm-329-329q3 39-12.5 81t-37 74-48.5 74.5-40 73.5q-4-19-4.5-37t3-36 9.5-34.5 15.5-34 19-32.5 22.5-33 23.5-31.5 25-32.5 24.5-32zm252 191q40 18 96.5 19t102-5 98.5 4 92 45q-44 17-95.5 17t-91-8.5-90.5-9.5-95 13q-32-41-17-75zm-316-285q15 28 2 59t-46.5 70.5-40.5 50.5q-3 5-2.5 16t1 17-5 9.5-20.5-6.5q8-12 8.5-28t-2-34.5-.5-29.5q26-2 41-16.5t19.5-32 16-40 29.5-35.5zm252 191q39 8 93 8t96-2.5 93 5 90 28.5q-27 12-57 14t-74-3-55-5q-33-1-61 0t-61-1.5-60-11.5q-1-3-4-8.5t-4.5-9-.5-7.5 5-7zm-73-106q25 9 53.5 9t64-3.5 56.5-3.5q5 0 31.5-.5t39.5 1 34 5 36 12.5 26 23q-42 12-90 13.5t-79-1.5-87.5-11.5-79.5-11.5q-1-3-4-8.5t-4.5-9-1-7.5 4.5-7zm-60-63q10-1 35-4.5t40-5.5 40.5-5.5 42.5-4 38.5-1.5 35.5 1.5 27 6 19.5 10 6.5 16.5q-53-5-95.5-1.5t-96.5 2.5-93-14zm-184-116q18 20 14 43t-21 41-31 12q11-13 12.5-47.5t25.5-48.5zm119 22q8-3 33.5-11t35.5-11 32.5-8 34.5-5 31 1 31.5 7 27.5 17 28 27q-35 12-53.5 11t-50-5.5-50.5-3.5q-10-1-26.5 5.5t-28.5 11.5-25-3-20-33zm-41-110q17 10 60.5 8t58.5 14q-55 24-98 21.5t-21-43.5zm-396-300q-7 6-23 16-8 26 9 50.5t50 48.5 69 49 69.5 60.5 47.5 73.5q8 22 8 38.5t-5.5 29.5-14 36.5-16.5 53-14 86.5-6 130q0 144 28 271t73 223.5 114.5 185.5 140 154 161.5 133q96 71 159 112t147 81 168.5 52 177.5 0q10-38 14-126.5t15-135.5q14-56 14-103 0-103-35-243t-98-293-167.5-306-228.5-260q-88-77-199.5-134.5t-212.5-57.5q-58 0-121 21-32-26-98.5-90.5t-119.5-103.5-106-52z"/><glyph unicode="" horiz-adv-x="2048" d="M616 1934q18-144 7-374-4-166-2.5-293.5t6-357 5.5-293.5q0-14-9-128.5t-4-138.5q1-6-7-25.5t-20.5-46-17.5-38.5q-6-16-18.5-51t-16.5-44.5-16.5-30-27.5-33.5-40-30q-47 46-76.5 95t-53.5 98.5-50 82.5q-28 1170-17 1622 62 25 138 25 100 0 220-39zm934 9q-29-109-18-268.5t53-236.5q7 2 32 2t43.5 2.5 18.5 11.5q0 10-9 302-1 22-.5 93t-2.5 87q-6 1-31.5 2.5t-53.5 3-32 1.5zm-578-16q14-2 44-4 28-44 75.5-165t89.5-173q-10-281 12.5-773.5t13.5-750.5q-99-15-154-15-84 0-141 24-25 172-33.5 381t-8 515-1.5 408q-4 66-2 139t9 139 31 138 65 137zm-485-136q56 0 80 3l1 10q0 11 .5 23t.5 25.5-2.5 24-6.5 13.5q-50 27-132 27-72 0-105-19 1-9 1.5-27.5t2-33 5.5-26.5q0-20 155-20zm478-30q-10-22-21.5-107.5t-13.5-126.5q14-3 28.5-3.5t25.5-.5 27 2.5 23.5 4 24.5 6.5 21 6 23 7.5 21 7.5q-15 5-27 35t-24.5 73-25.5 65q-1 10-22.5 2.5t-26.5-6.5q-7 2-16.5 19t-16.5 16zm145-260q-16-21-85-27.5t-83-12.5q-17-187-5-633t35-469q23-9 96-11t87-6q-12 165-18 571.5t-27 587.5zm623 487q0-12-1.5-38.5t-2-40.5 3.5-29q5-3 18-3.5t26-12.5q-3-44-4-90t1.5-101 4.5-90 7.5-105.5 7.5-98.5q-11 4-45 24-14 9-16-4v-13q-5-191-6-410.5t0-502.5 1-412q-62-7-206-7-4 65-8.5 577.5t-15.5 685.5q0 3 .5 19t-.5 28.5-6 17.5-10 2-9-1-5 13q-9 71-6 301t1 287q51 18 125 18 67 0 145-14zm-1414-267q-4-18-2-145.5t4.5-265.5-2.5-262q-3-160-1.5-243t8.5-234.5 8-179.5q7-66 49-113 41 54 65 80 23-39 33-63.5t16-64.5q15 15 30.5 54t25.5 69 14 29v618q0 23 3 118.5t4.5 173 2 171.5-3.5 163-13 100q-39 3-111 3.5t-130-8.5zm838-1442q-27 13-104 16t-90-2q0-13 1-59t1-65q7-25 36-40.5t63-15.5q40 0 68.5 21.5t29.5 64.5q-1 10 .5 24t.5 27-6 29zm400 1089q16-89 13.5-376.5t-8.5-503 7-317.5q7-29 70-23 40 2 42 0 8 184 5.5 611.5t1.5 608.5q-5 0-41 3.5t-58 4-32-7.5z"/><glyph unicode="" horiz-adv-x="2048" d="M395 685q8 32 22.5 57.5t40.5 44.5 48 32 63.5 26.5 66 20 76.5 18.5q11 84 12 130-35 4-66.5 19t-45.5 37q-52 371 18 531 5 1 47.5 14.5t78.5 20 90 10.5q5 41 14 136.5t16 141.5q10 67 34 93t82 26q69 0 106-111 27-79 51-273 146-28 239-72 64-250 26-512-15-10-51.5-22.5t-50.5-20.5q6-34 3-66.5t1-65.5q141-25 232-80.5t101-120.5q12-82 15-252t-3-255q-1-34-49.5-67.5t-130.5-60.5-200.5-43.5-250.5-16.5q-399 0-636 145-13 103-10.5 301t11.5 235zm1130 87q-7 3-41 18t-66.5 27.5-59.5 18.5q-62-41-165-65t-209-24q-183 0-260 67-97-5-215-68 83-68 220-104.5t289-36.5q164 0 301.5 42.5t205.5 124.5z"/><glyph unicode="" horiz-adv-x="2048" d="M193 1907q66 8 168 10t227.5.5 165.5-.5q35 64 91.5 103.5t130.5 39.5q79 0 141-56t75-117q116 6 325.5-1.5t275.5-8.5q7-10 10-21t5.5-27.5 4.5-23.5q14-55 25-377.5t21-787 15-618.5q-102-14-341-24t-498-10q-683 0-803 60-21 152-33.5 309t-16 342-4 304.5 2 348 2.5 321.5q0 22-5.5 73.5t-3.5 89.5 19 71zm704-71q0 71 77 71 30 0 52-23t22-55q0-35-14-54t-53-19q-43 0-64 18.5t-20 61.5zm-634-12q9-193 17-523.5t20-628.5 35-556q129-3 342.5-16.5t375.5-24 361.5-9.5 353.5 21q10 107 10.5 299t-6.5 416.5-14 410.5-16 375.5-10 216.5q-214 11-520 0 85-23 123.5-60t42-89.5-3.5-125.5q-13 0-194.5-3.5t-313-3-262.5 6.5q-7 49-4.5 88.5t5 65.5 13 47 19 32.5 23.5 22.5 26.5 17 28 15 28.5 18q-85 4-480-12zm900-66q-9 39-15 62.5t-20.5 58-31 54-44 34-62.5 14.5q-101 0-147-48t-45-165q-77-7-112.5-56t-30.5-131q95 2 122 2t94.5-1.5 103.5-1.5q53-1 170.5.5t169.5 1.5q2 85-33.5 128.5t-118.5 47.5zm-554-1098v32q101 88 169 88 31 0 54.5-14t35-31.5 26.5-40.5 27-34q14 13 26 33.5t28 58 21 47.5q103 229 246 387 144-5 183-75-46-49-92.5-118.5t-69-109.5-74.5-137q-21-38-63-123.5t-77.5-148.5-74.5-114q-25 2-49 18t-38.5 32-38.5 46-35 43q-53 59-99 98t-105 63z"/><glyph unicode="" horiz-adv-x="2048" d="M96 1035q0 153 32.5 284.5t104 245.5 178.5 194 264.5 125.5 353.5 45.5q190 0 347-54.5t262-145 177.5-211.5 104.5-250.5 32-265.5q0-177-81.5-341.5t-216-282.5-315-189-371.5-71q-190 0-355 73.5t-277.5 198-176.5 292-63 352.5zm922 768q-211 0-367-57t-250.5-163.5-140-249.5-45.5-325q0-147 58.5-289t156.5-250 237.5-174.5 291.5-66.5q132 0 261.5 34.5t242.5 102 200 160 137 216.5 50 263q0 174-61 322t-169 253-263.5 164.5-338.5 59.5zm-220-334q131 0 237-31t174-82 116-119.5 70.5-141.5 30-150 .5-142.5-23-120.5q-73-34-140-28 0 31 6 104t5 114-23.5 109-71.5 134q-74 100-156.5 144.5t-188.5 44.5q-71 0-171-21 0 20 .5 56.5t1 52 3.5 36.5 9 36q68 5 121 5zm353-773q-15-12-62.5-16t-62.5-12q16 86-6 161t-74.5 122.5-131.5 64-179-12.5q-1 44 .5 67t11 50 30.5 37q37 6 75 6 96 0 181.5-37t141-100.5 79.5-148.5-3-181zm-492 54q0 55 24.5 83.5t69.5 28.5q52 0 93-33t41-82q0-45-37-73t-89-28q-43 0-72.5 29t-29.5 75z"/><glyph unicode="" horiz-adv-x="2048" d="M1824 1017q6-53 12-81t22-49 30.5-30.5 52.5-30.5q-63-23-83.5-24t-54.5 16q-71 36-103 67t-57 84q-33 13-56 13.5t-69-10.5q10 114-21.5 254t-93.5 215q-183 53-393 53-103 0-321-18-2 69 24 126.5t74.5 98 111.5 70.5 138.5 47 151 25.5 153.5 8.5q113 0 206.5-21t156-55 110-81.5 74-94.5 42.5-101 21-94 5-79q0-192-133-309zm-411-459q-47-13-116-10.5t-125-1.5q-2-36 .5-117t-2-138-22.5-95q-39 15-71 44t-68.5 74.5-53.5 62.5q-154 157-181 181-46 6-102 6-40 0-126-3.5t-130-3.5q-106 0-183 18t-123 68q-20 160-20 368.5t14 383.5q90 5 179 7.5t150 2.5 190.5-1 222.5-1q16 0 83 1t89 .5 77-2.5 81-7 65-13.5 66.5-22.5 49.5-33q10-8 18-30t14-46 11-60 7.5-59 6-57 4.5-40q13-121 12-205t-17-271z"/><glyph unicode="" horiz-adv-x="2048" d="M1612 776q-20-100-35-162t-40-143.5-58-142.5-75-106q-44-46-178-77t-279-31q-121 0-242 71.5t-228 182.5q-6 35-19.5 91t-20 100.5-3.5 92.5q-11 18-39 28.5t-53 23-32 35.5q-29 63-20 126.5t40 116 79 92.5q0 53-2 130t-3 119 .5 102 6.5 96 16.5 82 30 79.5 47 69.5 67.5 69q68 59 214 85.5t289 26.5q140 0 228-16t148.5-59 87.5-113 34-183q4-62 4.5-121t4-103 17.5-128q68-5 111.5-59.5t49.5-148.5q4-71-43-138t-105-88zm-507 1082q-55-3-96-23t-67.5-58-42-75-30.5-92q24 3 34 1.5t26.5-7 26.5-6.5q20 58 77 144.5t72 115.5zm198-24q-29 8-55 9t-47-6-39-16.5-34-27.5-27.5-33-24-39.5-20.5-40.5-20-42.5-18-39.5q26 5 54-4t45-8q82 143 186 248zm-595-38q-66-30-116-100t-45-135q29 11 50.5 36.5t32 49.5 24.5 63q3 8 4 12 4 4 19 16 56 41 47 52-4 5-16 6zm706-37q-46 40-92.5 11.5t-82-85-48.5-112.5h99q11 36 64 87t60 99zm25-99q-5-10-37-45.5t-37-66.5q15 0 49-8t62-4q-6 14-7 44t-6.5 52-23.5 28zm-508 174q-102-5-170-78.5t-78-157.5q6 12 25.5 13.5t47-1.5 39.5 0q6 13 22 47.5t25 52 23.5 43.5 30.5 45.5 35 35.5zm538-403q-19 9-51.5 27t-51 26.5-45 16.5-51.5 4.5-51-17.5q-25-14-97.5-22.5t-122.5-8.5q-63 0-175 14.5t-142 36.5q-32-14-100-114-30-25-44-39t-26.5-38.5-12.5-52.5q1-91-2.5-242t-2.5-224 17-182 51-211q5-4 45.5-33t54.5-37.5 52.5-32.5 64-33.5 64.5-23.5 78-19.5 81-5.5q188 0 308 76.5t165 255.5q44 175 48 296 2 40-11.5 206t-27.5 201v32.5l-.5 12.5-.5 12-1 14-1.5 16.5-2.5 22-3.5 28.5-5.5 38zm-315-241q67 43 132 43 69 0 129-49 24-54 17-111-70 70-155 70-67 0-111-44 0 19-2 32.5t-5 29.5-5 29zm460-63q0-33 1.5-133.5t1.5-133.5q21 14 45.5 57.5t25.5 72.5q3 47-18 89t-56 48zm-605 80q-3-22-2-53t-4-55q-97 6-163.5-2.5t-177.5-40.5q-32 38-32 116 75 51 243 51 84 0 136-16zm225-246q0 29 17 56.5t41 27.5q27 0 48.5-32.5t21.5-53.5q0-23-15-47t-45-24q-33 0-50.5 21t-17.5 52zm-828 24q-1-4-14-29.5t-22.5-54-9.5-53.5q0-36 21.5-66.5t44.5-32.5q-2 15-5.5 113.5t-14.5 122.5zm452-40q13 3 31 7t24 5.5 17 4.5 17.5 6 16 8 22.5 12q-20-80-114-100-45-5-81.5-6t-65 17.5-41.5 59.5q34-4 67-10t40.5-5.5 66.5 1.5zm469-268q-8-100-112.5-178.5t-229.5-78.5q-75 0-142 34 13 20 26.5 23t44.5-4 57-7q57 0 122 29.5t114.5 79 57.5 102.5h62z"/><glyph unicode="" horiz-adv-x="2048" d="M404 1288q26 72 100.5 172t146.5 127q117 117 117 173 0 27-31 27-51 0-137-64-100-100-111-112-70-79-85-164-11-65 0-159zm111-573q1-15 18.5-57t49-100 80.5-120 106-115.5 132-87.5 153-34q93 0 177.5 51t143 128.5 103 169.5 66 174.5 22.5 143.5q3 127-11 343-4 53-60.5 118.5t-129.5 116-144 85-104 34.5q-20 0-21-13-3-36-10.5-60.5t-37-57.5-80.5-57.5-145.5-52-228.5-50.5q-22-4-36.5-11t-24-19.5-14.5-23.5-13-32-15-36q-9-35 1.5-198.5t22.5-238.5zm928 432q-26 11-56 12t-67.5-1.5-60.5-1.5q-30-3-52-4t-40-.5-55-.5q-4 20 6 32t32 16.5 44 5 52 1 47 3.5q56 8 67 8 79 0 83-70zm-493 0q-30-9-43-4.5t-45 15.5-63 11q-39 0-84-18t-66-19q6 41 46 63t94 22q49 0 93.5-18.5t67.5-51.5zm-138-240q-36 3-52.5 16t-19.5 53q-3 36 8 53.5t39 36.5q44 3 61-10.5t29-51.5q8-24-15-61.5t-50-35.5zm452 78q28 0 45 5.5t24.5 14 13.5 17 16.5 14.5 28.5 7q7-44-33.5-76.5t-97.5-32.5q-45 0-90.5 27t-49.5 62q29 8 70.5-15t72.5-23zm-27-482q-2-5 .5-17t-.5-21.5-17-15.5q-82-39-173-39-79 0-141.5 45.5t-157.5 158.5q48 38 65 8 48-84 120.5-126.5t143.5-42.5q13 0 27 2t23.5 4 27 8.5 24 9.5 29 13 29.5 13zm515 239q6-31 37-63t67-56 76.5-57.5 61.5-65.5q-102-38-185-38-111 0-185 66-1-2-23.5-33t-49-63.5-66.5-78-87-84.5-100.5-74-115.5-55.5-124-20.5q-71 0-135.5 18t-110.5 45.5-93 68-80 76.5-75.5 79.5-74.5 70.5q-64-53-218-53-92 0-217 19 3 13 43 44.5t84.5 64.5 80 78.5 31.5 85.5q-38 399-38 695 0 135 69.5 252t189 186.5 257.5 69.5q42 0 83.5-11.5t112.5-39.5q49 61 141 61 112 0 257-80.5t234-168.5q14-14 38-68t53-158 45-217q1-4 5-33.5t6-44 6-50 5.5-60.5 3.5-65.5 1-75.5-3-79-7-87z"/><glyph unicode="" horiz-adv-x="2048" d="M814 1443q9 12 30 42t31.5 43.5 33.5 36 43.5 32.5 53 18.5 70.5 8.5q70 0 127.5-24t96-79.5 38.5-136.5q0-121-54-253t-106-151q-62-18-121-12t-101 30q-82 46-115 168t-27 277zm1049-62q-12-87-35-124.5t-87-37.5-104.5 48-40.5 116q0 61 32.5 114.5t84.5 53.5q65 0 112-50.5t38-119.5zm-1664-6q-13 70 18.5 108.5t88.5 38.5q29 0 55.5-7.5t51.5-23.5 38-47.5 9-74.5q-8-87-39-131.5t-103-44.5q-19 0-34 4.5t-25.5 9.5-19 17.5-13 21-9.5 28.5-6.5 29.5-5.5 35.5-6 36zm1548-288q27 0 46.5 16t41 46 36.5 44q55-5 91.5-34.5t54-83.5 24-110.5 6.5-135.5q-84-12-188-11.5t-198 5.5q-6 7-16 18.5t-42 40.5-64 51-77 40.5-85 18.5q2 103 73.5 165t158.5 39q19-48 54-78.5t84-30.5zm-1105-112q-35-17-65.5-49.5t-63-79.5-34.5-50q-221-22-463 0-21 58-15.5 117t27 107.5 65.5 79.5 101 34q17-7 30.5-24.5t21-33 22.5-28 35-12.5q38 0 65 28.5t40 78.5q14 1 25.5.5t21-.5 19-2 15.5-3 15-5.5 13.5-6.5 15-9 15-10.5 18.5-13.5l21-15q22-16 35.5-42t16.5-44zm353-140q9-12 26.5-39t34-48.5 37.5-40.5q34 22 59.5 53t59 89.5 41.5 71.5q201 12 313-115t117-341q-24-13-58-20t-60-8.5-79.5-3-81.5-2.5q-120-5-260.5-6t-222 .5-248 5.5-207.5 5q6 249 108 364 53 61 120 89.5t158 40.5q14 4 28 1.5t22.5-2.5 18.5-7l15-10.5 13.5-14 13.5-18 14.5-21 17.5-23.5z"/><glyph unicode="" horiz-adv-x="2048" d="M761 1383q-8 42-11.5 104.5t5.5 145 32.5 151.5 78.5 117 135 48q222 0 334-126t112-348q0-84-48-193.5t-93-159.5q-39-41-114.5-68.5t-143.5-27.5q-56 0-107.5 37t-86.5 94-59 115.5-34 110.5zm289-672q104 40 187 127t137 198q13-2 57-7t57.5-7 48-7.5 51-10.5 43-13 47.5-18 43-23q52-32 97.5-162t62-297-11.5-338q-255-20-368.5-28t-298-17-334.5-9q-350 0-706 43-7 280 34 421 58 202 196 334t350 155q24-33 62.5-83.5t121.5-144 124-113.5zm398 97q-1-60-4.5-117.5t-4.5-89.5q-89 3-162-4-9-9-3-46t3-62q29-7 82-4t77-7q2-22 5.5-81.5t8.5-99.5q12-6 64-1t59 5q0 104-6 182 21-4 71.5 6.5t72.5 2.5q9 71 11 120-16 1-55-1.5t-69-1-48 10.5q2 15 6 44t5.5 43.5 2 37-3 41.5-10.5 39q-16 0-51-8.5t-51-8.5z"/><glyph unicode="" horiz-adv-x="2048" d="M1275 1928q39-13 87.5-57t65.5-55q-1-15-6-63t-4-80q1-37 21.5-111t19.5-104q2-95-54.5-207.5t-136-188-140.5-75.5q-53 0-131 41t-153 117.5-101 159.5q-5 16-23.5 72.5t-23.5 75-17.5 65.5-13.5 72.5-2 64.5 7 72.5 22 67.5q11 27 72.5 91.5t91.5 72.5q49 12 208-1t211-30zm-1143-1811q-2 132 22.5 256.5t80 236.5 135.5 194 198 126.5 259 36.5q87-213 304-390 160 190 248 380 67-9 125-30t102.5-49.5 82.5-71 65.5-85.5 51-102.5 39-112 29.5-124.5 23-129 19-136q-27-14-115-22t-217.5-10-248-1.5-259.5 2-198 1.5q-24 0-134-1t-188.5-.5-178 2.5-163 9.5-82.5 19.5zm1564 369q-52-2-128 2t-119 5.5-121-7.5q-4-14-1-41.5t5-36 8-33 8-32.5q63 4 176.5-1t169.5 5q7 12 10.5 26.5t2.5 32.5-1.5 27.5-5 30.5-4.5 22z"/><glyph unicode="" horiz-adv-x="2048" d="M51 1680q160 44 603 44 142 0 305.5-4.5t284.5-9.5 142-5q129 0 314.5-13t221.5-43q28-23 43-76.5t17.5-102.5 4.5-127 4-110q2-24 16.5-170.5t22.5-250.5 4-225-28-171q-8-16-19-29t-27-22-30.5-15.5-38.5-10.5-40-6.5-47-3.5-48-1.5-53-.5h-54q-445-6-1142 0-43 1-86 0t-87 .5-81 5.5-68.5 13.5-49.5 25.5q-36 32-61.5 135t-36.5 239.5-15.5 242-4.5 199.5q0 20-2 89.5t-2.5 121 2 114.5 11.5 106.5 25 60.5zm723-210q36 11 87 12.5t98-3.5 112.5-8.5 117.5-.5q1-5 5.5-21t5.5-21 4-22.5 2-25-2-28.5q-46-1-137.5-4t-132-3-166.5 5q-1 18 7 58t-1 62zm88-879q-17-1-121.5-7.5t-169.5-6.5q-144 0-228 28-26 226 182 332-28 31-28 98 0 54 22.5 94t63.5 40q54 0 89.5-42.5t35.5-102.5q0-49-28-81 111-54 148.5-139t33.5-213zm197 475q142 7 251 5t336-13q-2-21-2.5-45t.5-37v-13q-60 2-177 1t-250 1-158 8q-1 8-1 25.5t.5 39.5.5 28zm13-193q53 2 260-1t304 4q5-21 6-33t0-29-1-26q-107 3-188.5 1t-187.5-.5-191 9.5q0 8-1 38t-1 37zm335-191h237l-3-75q-112-6-238 0-30 1-154.5-.5t-187.5-1.5q-2 14 2 45t4 32q47 0 112 2t117 2 111-4zm-1272 907q-17-26-25-64.5t-8.5-62 2-83 2.5-72.5q5-311 15-430 16-207 30-280 20-98 59-166 109-16 256.5-22t248.5-5 281 6 238 6q88 2 210.5 0t185-1.5 145 11 157.5 35.5q14 87 18 184.5t-3.5 212.5-15.5 191.5-23 206.5l-6 51q-3 25-5.5 74.5t-5 79.5-14.5 63.5-34 49.5q-175 19-535 38t-656 19q-421 0-517-42z"/><glyph unicode="" horiz-adv-x="2048" d="M721 1535q0 85 19.5 157t60.5 131.5 112.5 93 168.5 33.5q112 0 192-57t119.5-148 48.5-211q-2-106-34.5-189t-78-130.5-104-78.5-107.5-41.5-93-10.5q-19 0-63.5 28.5t-94 73-90.5 110.5-49 129q-7 52-7 110zm223-1134q20 33 32.5 187.5t25.5 186.5q-10 40-54.5 98.5t-55.5 99.5q45 21 117 21 103 0 197-36 4-26-9-51t-31-43-34.5-42-19.5-47q-5-44 27-194t33-192q37 37 66 119t44.5 163 40.5 168.5 54 130.5q38 18 191-45t184-92q38-35 67.5-141t43.5-224 20.5-204.5 5.5-112.5q-41-46-512-46-10 0-106.5-2t-193.5-3.5-237.5-1-258.5 4-234.5 12.5-187.5 24q0 191 29.5 375.5t95.5 284.5q28 43 67.5 74t86.5 51 89.5 33.5 98 29.5 90.5 30q38-152 103-332.5t125-283.5z"/><glyph unicode="" horiz-adv-x="2048" d="M1032 1957q82 0 149.5-34t108.5-88 63.5-114.5 25.5-119.5q18-3 46.5-6.5t50-6.5 48.5-7 46-10 39-13.5 30.5-18.5 16-25.5 1-33.5-18.5-42q-103-74-284-66-15-109-49-178t-114-168q-42-52-166-52-77 0-147 20.5t-83 47.5q-136 270-136 484 0 235 87 333t286 98zm-280-1862q-112-10-326 3t-261 42q-10 64-10 122.5t9.5 108.5 25.5 95 41 83.5 53.5 71.5 65 62 73 53 80 46 84 39.5 86.5 34.5q12 9 17.5 68.5t16.5 67.5q6-7 47-51t47-51q175-215 272-399 33 48 58 115.5t48.5 151 42.5 129.5q7 17 50 104 7-29 19.5-51t25-34.5 30-22 28.5-12.5 27-7q127-28 224-99t155.5-172 86.5-222.5 25-257.5q-795 11-1141-18z"/><glyph unicode="" horiz-adv-x="2048" d="M1257 1068q-37-79-81-117.5t-120-38.5q-32 0-57.5 1.5t-47.5 7.5-37.5 10-31.5 16-24.5 18-22.5 24-20 26-22 32-23 35q-15 21-26 44t-19 50-13 46-9.5 52-6 46.5-4 50.5-3.5 45q-26 2-56 10.5t-47 14.5-64 24.5-65 25.5q-22 14-36.5 23.5t-35.5 25.5-31 29.5-16 28.5 3 29.5 31 26.5q81-56 139-109 12 0 53.5-5.5t66-4 35.5 14.5q14 63 23.5 174t17.5 147q42 46 95 46 32 0 67-13t94-45.5 81-43.5q123 80 181 80 57 0 101-79 11-20 18.5-48.5t12.5-67 7.5-66 5-73 3.5-60.5q27-8 82-3t65 23q27 9 67 41.5t49 37.5q45 1 29-29-11-18-74-78-21-20-30-30-63-49-218-51-5-1-12.5-56t-26-141-47.5-147zm-1112-887q10 51 23.5 159t25 181 45 160 85.5 141q49 52 155 105.5t177 53.5q42 0 82.5-31.5t75.5-78.5 69.5-96.5 78.5-92 88-57.5q45 11 79.5 36t59 63 41 73 37.5 83.5 38 78.5q87 5 158-3.5t126.5-33.5 98-59.5 74.5-88.5 54.5-112 39.5-140 27.5-162.5 19.5-188.5q-70-4-196.5-14.5t-203.5-16-202.5-10-191.5 4.5q-129 8-263.5 8.5t-242.5-3-231 6-227 34.5z"/><glyph unicode="" horiz-adv-x="2048" d="M1420 1603q0-23-3-56t-12.5-81.5-24.5-95.5-42-95.5-61.5-85-86-59.5-113.5-23q-67 0-121.5 21t-89.5 53.5-61.5 78-40 87.5-21.5 89.5-10 77-2 56.5q0 55 9 107t32 105 58.5 91.5 93 63 130.5 24.5q57 0 119.5-24t118-67 92-113.5 36.5-153.5zm-983-828q104 70 254 121.5t258 30.5q-10-57-8-88.5t6-87.5 2-97q-31-9-110.5-16t-94.5-9q36-52 91-107t131-123 119-111q245 200 324 316-18 6-41.5 12t-40.5 9-52 9-54 9q8 150 9 285 113 1 182.5-19t124.5-63.5 137-139.5q86-100 131.5-251t39.5-312q-109-4-288-30t-271-26q-143 0-525 16.5t-555 13.5q-18 190 49.5 368.5t181.5 289.5z"/><glyph unicode="" horiz-adv-x="2048" d="M1378 1476q0-64-17.5-132t-52-132-96.5-105-141-41q-161 0-272.5 133.5t-111.5 318.5q0 86 21.5 162.5t63.5 138.5 112 98.5 160 36.5q104 0 181-66t115-173 38-239zm480-1359q-210-13-670-23-4 23-11 61t-10.5 58-7 54.5-5.5 73.5q28 0 47 .5t38.5 4 26.5 4.5 33 8 35 9q-14 32-28 58.5t-34 54-33.5 44.5-43.5 47.5-44 44-56 53-60 56.5q-45-74-139.5-165t-142.5-159q18-17 75-33t104-10q-4-39 1.5-117.5t-1.5-129.5q-87-16-313-16-249 0-429 16-1 118 38 259t120 275 183 200q71 46 202 68.5t288 22.5q175 0 328.5-25t214.5-66q113-75 195.5-283.5t98.5-444.5z"/><glyph unicode="" horiz-adv-x="2048" d="M815 1363q0 125 68.5 193t211.5 68q117 0 187.5-64t70.5-179q0-75-13-144.5t-39.5-131-74.5-98-112-36.5q-69 0-127.5 37t-95 95.5-56.5 126.5-20 133zm-461 152q50 0 83-31.5t43.5-68 10.5-74.5q0-55-38.5-86t-81.5-31q-132 0-132 144 0 68 24.5 107.5t90.5 39.5zm1343-46q69 18 186 0 0-21 7-182 2 0 137-12 11-32 15-54t1-49-16-56q-17-5-43-5t-60 2.5-51 2.5q0-38-2-63.5t-5-51-4-44.5q-103-11-165 0 2 49 1.5 83t-7.5 76q-40-1-81.5 5t-83.5 6q2 21-3.5 82.5t3.5 77.5q30 2 92.5.5t78.5 4.5q3 5 1.5 89.5t-1.5 87.5zm-1337-444q28 24 43 40t30 43.5 21 61.5q62 0 113-9t94.5-29 63.5-59 10-93q-57 4-107.5-3.5t-94.5-27.5-72-58-34-91q-121 9-416 9-18 71-1 138.5t53 118.5 100 73.5 138 3.5q-4-9-1.5-21.5t2.5-18.5 5.5-15.5 7.5-14 9.5-12.5 11-12 12-12 12.5-12zm1279-171q1-4 12.5-35t14-38.5 12.5-37 13-41.5 10.5-40 9-44 5-42 3.5-46-2-44.5-6-47.5q-121-13-233-13.5t-256 4.5-248 4q-5 0-156.5-5.5t-276-4-159.5 14.5q38 322 154 416 29 24 63 38t80 19 78 6.5 94.5.5 91.5-1q48-97 171-253 31 18 57 50.5t39 58 35.5 75.5 31.5 69q285 10 362-63z"/><glyph unicode="" horiz-adv-x="2048" d="M1407 1858q4-99 4-290 307-9 427-48 63-114 96-506t27-652q-4-179-171-242-330-28-700-28-468 0-910 40-35 37-55.5 192t-25 316.5-6.5 322-4 180.5q-9 107 12.5 210.5t64.5 143.5q34 32 91 43t159 12.5 134 4.5q4 131 5 284 1 55 129 85t303 30q167 0 292.5-26.5t127.5-71.5zm-632-105q-6-91-1-193 53-4 135-4 151 0 301 12 1 64 .5 79t-6 51-7.5 55q-51 20-169 20-135 0-253-20zm-530-364q-29-131-16.5-562t39.5-573q338-39 794-39 389 0 711 28 17 62 13 232t-18.5 355-38 351.5-45.5 221.5q-140 34-474 34-240 0-515-15.5t-450-32.5zm177-371q0 75 55.5 119.5t132.5 44.5q85 0 149-51.5t64-134.5q0-77-50-121.5t-128-44.5q-86 0-154.5 52.5t-68.5 135.5zm839-129q38-8 55.5-41.5t28-84.5 23.5-73q-81-102-175.5-168.5t-222.5-92.5q-4 32-18 74t-24 69.5-14.5 70.5 10.5 77q67 23 175.5 85t161.5 84zm-31-107q-39-13-109-62t-121-61q-1-23 7-41t17.5-26 27-20.5 25.5-19.5q18 12 86 65t113 73q-3 9-7 27t-7 29-11 22-21 14z"/><glyph unicode="" horiz-adv-x="2048" d="M7 1039q105-51 187-51 54 0 99.5 18.5t77.5 48.5 62 66.5 60.5 72.5 64 66 81.5 48.5 106 18.5q112 0 176.5-46t124.5-155q27 24 71.5 69t67 65 60 37.5 78.5 17.5q52 0 100.5-17.5t87.5-46 77-62.5 75-68 74.5-62.5 82-46 91.5-17.5q61 0 130 30v-10q0-69-76.5-133.5t-201.5-104-260-39.5q-140 0-263 47t-209 147q-102-107-240-159t-284-52q-132 0-246.5 39t-184 110-69.5 158v11z"/><glyph unicode="" horiz-adv-x="2048" d="M1635 1209q-330-70-653-70-153 0-309 13.5t-244 28.5-87 23q3 91 20.5 203t44.5 183q42 110 127 206.5t205.5 158.5 244.5 62q73 0 150.5-26.5t138.5-66.5 105.5-78 70.5-70q88-111 141-257.5t45-309.5zm-1061 303q34 16 93 49.5t90 46.5q59-59 84-90 29 19 88.5 65.5t97.5 67.5q31-18 90-60t74-52q13 11 64.5 43t69.5 60q-8 23-17.5 40t-26.5 30-30 21.5-43 14.5-48.5 9-62.5 4.5-69.5 1.5h-113.5q-79 0-167.5-21t-108.5-68q-13-31-27-60.5t-20.5-47.5-16.5-54zm879-180q-3 9-13 45.5t-17.5 60-18.5 55.5-23.5 54-24.5 33q-18-11-196-124-16 14-39 42.5t-45.5 49.5-49.5 32q-16-11-84.5-63.5t-118.5-84.5q-16 15-40.5 52.5t-45.5 54.5q-19-8-93.5-51.5t-112.5-52.5q0-12-4.5-53.5t-4.5-53.5q377-10 528-10 248 0 403 14zm-1242-1297q-37 119-47.5 301.5t-.5 357.5 34 357q110 10 406-14t410-23q102 1 399.5 23t416.5 14q36-115 53.5-474t-1.5-528q-84-16-170.5-18t-196.5 3.5-159 5.5q-54 0-328.5-3t-463-4-352.5 2zm494 521q88 0 131.5 30.5t43.5 114.5q-1 162-181 162-68 0-113-60.5t-45-111.5q0-42 47.5-88.5t116.5-46.5zm465 279q1-27 0-135t5-130q103-12 421 0-2 77-20 279-44 3-118 1t-98.5-3-91.5-5.5-98-6.5zm-535-521q0-78 96-78 86 0 86 84 0 34-25 58t-63 24q-37 0-65.5-27.5t-28.5-60.5z"/><glyph unicode="" horiz-adv-x="2048" d="M680 155q-15 27-19.5 61t-3.5 54.5 10.5 83.5 12.5 91q5 40 40.5 126.5t73 167 41.5 93.5q-20 50-20 87-29 4-48.5 6.5t-45.5 7.5-43.5 11-34.5 13.5-25.5 17.5-9.5 22q-3 31-.5 55t14.5 41q-15 17-17.5 39t.5 43-2 53q-1 13-10.5 21t-21 10.5-20 11.5-6.5 24q-4 28 11.5 53.5t34.5 54 21 57.5q2 19-12.5 50.5t-16.5 45.5q-6 39-3.5 81.5t-2.5 82.5-23 49q27 41 53 68.5t62.5 53 85 38 110.5 12.5q145 0 280.5-67t181.5-163q23-46 35.5-134t3.5-146q-6-38-47-117.5t-50-105.5q-2-8 .5-28.5t-.5-29.5q-3-13-13.5-34t-17-35-9-36.5 10.5-38.5q4-10 35.5-2.5t42.5-7.5v-106q9-12 23.5-22t34.5-20 29-16q11-42 42-122.5t46.5-148 7.5-135.5q-48-9-130-61t-121-65q-22-8-65.5-11.5t-60.5-7.5q-91-23-174.5-60t-192.5-95q-2-1-11.5-9.5t-17.5-9.5h-19q-8 3-12.5 10t-8.5 19-8 19z"/><glyph unicode="" horiz-adv-x="2048" d="M1375 155q-4-7-8-19t-8.5-19-12.5-10h-19q-8 1-17.5 9.5t-11.5 9.5q-109 58-192.5 95t-174.5 60q-17 4-60.5 7.5t-65.5 11.5q-39 13-121 65t-130 61q-8 68 7.5 135.5t46.5 148 42 122.5q9 6 29 16t34.5 20 23.5 22v106q10 15 42.5 7.5t35.5 2.5q13 16 10.5 38.5t-9 36.5-17 35-13.5 34q-3 9-.5 29.5t.5 28.5q-9 26-50 105.5t-47 117.5q-9 58 3.5 146t35.5 134q46 96 181.5 163t280.5 67q62 0 110.5-12.5t85-38 62.5-53 53-68.5q-18-9-23-49t-2.5-82.5-3.5-81.5q-2-14-16.5-45.5t-12.5-50.5q2-29 21-57.5t34.5-54 11.5-53.5q2-15-6.5-24t-20-11.5-21-10.5-10.5-21q-5-32-2-53t.5-43-17.5-39q12-17 14.5-41t-.5-55q-3-33-57.5-49.5t-149.5-28.5q0-37-20-87 4-13 41.5-93.5t73-167 40.5-126.5q4-30 10.5-76t9-67.5 3.5-51-5-51.5-18-44z"/><glyph unicode="" horiz-adv-x="2048" d="M1360 574q12-47 22.5-77.5t14-35.5 8-26 2.5-49.5-1-106.5q-68-2-194.5-43.5t-249-82-183.5-40.5q-60 0-74 37-81 88-81 170 0 49 29 113t71 127 83.5 126.5 70.5 129 29 117.5q0 31-7 60-10 5-34 21t-39.5 23.5-55 16-93.5 11.5q-17 1-26.5 26t-6.5 48q1 5 7.5 27t2.5 34q-3 11 2.5 54t-2.5 50q-7 11-28 28.5t-32 31-2 23.5q31 36 39 55 4 11 10 28 10 29 12.5 83.5t4.5 70.5q4 19 .5 30.5t-21.5 31.5q39 120 130.5 184.5t221.5 64.5q87 0 149.5-17t98.5-46 58-72.5 29-91.5 11.5-109 6-117.5 11.5-125 28-125.5q11-33 27-76t23.5-69.5 12.5-61.5q-19-21-56.5-20.5t-74 12.5-74.5 17-58-7q13-76 38-142t49.5-106.5 51-95.5 39.5-108z"/><glyph unicode="" horiz-adv-x="2048" d="M681 574q13 53 39.5 108t51 95.5 49.5 106.5 38 142q-20 12-58.5 6.5t-74-16.5-73.5-12-57 20q5 35 12.5 61.5t23.5 69.5 27 76q18 57 28 125.5t11.5 125 6 117.5 11.5 109 29 91.5 58 72.5 98.5 46 149.5 17q130 0 221.5-64.5t130.5-184.5q-18-20-21.5-31.5t.5-30.5q2-16 4.5-70.5t12.5-83.5q7-22 14-35.5t12-20 23-27.5q9-10-2-23.5t-32-31-28-28.5q-8-7-2.5-50t2.5-54q-2-13-.5-19.5t5.5-20 5-21.5q3-23-6.5-48t-26.5-26q-54-3-93.5-11.5t-55-16-39.5-23.5-34-21q-7-29-7-60 0-52 29-117.5t71-129 83.5-126.5 70.5-127 29-113q0-82-81-170-14-37-74-37-61 0-183.5 40.5t-249 82-194.5 43.5q1 78-1 106.5t2.5 49.5 8 26 14 35.5 22.5 77.5z"/><glyph unicode="" horiz-adv-x="2048" d="M511 1767q-1-40 2-84.5t6-68 11-76 10-65.5q113-11 261-7-4 33-12.5 133t-16.5 154q-65 10-144 13.5t-117 .5zm662-22q-176 17-318 6-1-47 5-91.5t18.5-102 17.5-84.5q46-1 149-8.5t141-6.5q1 110-1 158.5t-12 128.5zm82 0q3-32 6-94.5t7.5-109 14.5-84.5q52 3 98.5 0t98 .5 82.5 15.5q0 42 7.5 119.5t7.5 143.5q-91 9-322 9zm404-15q-7-45-8-143.5t-3-122.5q137-6 233-4 2 48-1 87.5t-13 99-12 77.5q-35-1-105.5 2.5t-90.5 3.5zm-1113-336q7-43 21-142t23-147q30-1 94.5-4t85.5-3 95 3q-12 45-29.5 167t-18.5 128q-20 0-65 1.5t-68 2-61.5-.5-76.5-5zm722-14q7-72 9-164t6-115q144-12 251-5 2 33 14.5 129.5t13.5 154.5h-294zm371 0q-4-40-6.5-146.5t-4.5-143.5q5 0 114-6t148-5q21 146-3 299-39 0-124 1t-124 1zm-459 0q-58-4-135 5.5t-134 8.5q-2-58 4-116.5t14-96 23-96.5q34-2 126.5-1t120.5 1q0 92-19 295zm27-368q-33 0-91 3.5t-82.5 3.5-71.5-4q6-20 15.5-106.5t26.5-116.5q32-1 117.5-8.5t115.5-5.5q-15 167-30 234zm417-4q-10-73-22-219 34 0 120 1.5t119 1.5q47 86 46 216h-263zm-93 16q-42-7-117.5-5t-114.5-11q-4-82 8-227 46 3 110.5 2t106.5 3q10 150 7 238zm-650 0q-178 7-283 7 3-18 12-77t18.5-102 22.5-74q37-7 138.5-3t132.5 3q-3 47-19.5 126t-21.5 120zm1022-325q-230-15-634-18.5t-611 3.5q5-21 11-62.5t10-62.5q143-12 549.5-4t586.5 5q29 4 29-107-205 8-622.5-.5t-604.5-1.5q-8 14-14.5 27t-12 31-9 28-7.5 34.5-5.5 35-6.5 44.5-7 48q-17 124-78 509.5t-83 570.5q-14 1-112.5 14t-138.5 11h-3q-28 0-47.5 21t-19.5 45q0 16 10.5 27.5t31.5 12.5q32 2 159.5-10t300-30 259.5-25q58-4 405-16t400-15q43-2 105 1.5t106.5 1 83.5-18.5q1-8 9-80t14-137.5 12-168.5 6-195q0-332-72-518zm-204-561q-49 0-81.5 31.5t-32.5 75.5q0 38 29.5 69t81.5 31q53 0 80.5-34t27.5-77q0-40-28-68t-77-28zm-889 0q-49 0-82 32t-33 71q0 40 29.5 72t82.5 32q51 0 79-33.5t28-75.5q0-41-28.5-69.5t-75.5-28.5z"/><glyph unicode="" horiz-adv-x="2048" d="M1153 1848q-18 1-78 8t-111 12-107.5 6.5-65.5-8.5q1-26 1.5-71t2-92.5 6.5-110.5q33-4 176-9.5t176-10.5q1 55-1.5 149.5t1.5 126.5zm160 83q7-39 11-85.5t5-73.5 3-101.5 3-104.5q52-2 158-4.5t180.5-7 165.5-16.5q19-17 27.5-231t5.5-456v-126l-1-148-4-128.5-11-156-20-141.5q-126-58-337-58-72 0-580 28t-707 35q-20 236-32 662-13 431 13 709 33 10 101 35.5t117 35.5q27 0 66-2.5t72-2.5 70 5q11 58 9 155.5t14 159.5q87 42 245 42 74 0 220-11.5t206-12.5zm-608-479q-53 2-147.5 7t-158 7-108.5 1q-9-166 1-587 36 22 73.5 69.5t87 129 55.5 91.5q12 18 90.5 124t106.5 158zm1076-11q-11-2-107-5t-128-22q-10-11-9-23.5t4.5-36.5.5-36q86 3 254 23 20 72-15 100zm-453-38q-48 6-127.5 12t-197 12-142.5 8q-55-65-142.5-192t-134.5-190q-21-28-98-125.5t-123-158.5-46-68q0-21-3-124.5t-2-188.5 9-135q37-4 133-5.5t134-4.5q74 117 341 533.5t399 626.5zm463-113q-15-3-106-9t-131-19q-5-4-6.5-23t-.5-36-1-26q43-4 126.5 6t123.5 27q7 33-5 80zm-382-23q-59-79-151-226t-139-237q-55-108-192.5-309t-186.5-259q82-5 322.5-3.5t326.5-7.5q4 87 17 257t20 283.5 4.5 256-21.5 245.5zm388-106q-20-3-76.5-8t-99-13-67.5-21q5-43-2-88 53 5 93.5 12t84 17 63.5 14q3 18 2.5 48t1.5 39zm-6-164q-34-9-75-16t-90-13.5-72-10.5q-2-15-2-116 79 27 236 48 7 70 3 108zm-9-173q-92-9-216-43-1-8-4.5-21.5t-5-21-1.5-16 4-13 13-5.5q58-5 132.5 11t88.5 50v16l-.5 17-3 15.5-7.5 10.5zm3-165q-3-1-40.5-4t-93-9-94.5-13q0-20-3-47t-2-44q47-11 230 31 5 15 3 46.5t0 39.5zm-3-251q-3 2 .5 41.5t-3.5 41.5q-18-3-106-5.5t-119-14.5q0-54-14-91 24 4 76.5 11.5t71.5 10.5 47 5 47 1zm0-68q-68 3-256-14-1-10 .5-41.5t-3.5-44.5q46-20 253 15 3 14 3 44t3 41z"/><glyph unicode="" horiz-adv-x="2048" d="M1196 1107q-5 126-34 384t-29 365q0 6 .5 18t.5 18q158-3 287-68t210.5-172 125.5-243 44-286q0-29-1-44-101 13-308.5 15t-295.5 13zm-185 689q36-312 58-817 61-5 152-5.5t174 2 176.5-5.5 160.5-29q5-73 5-127 0-658-580-658-90 0-176.5 11.5t-178 39-171.5 70-151.5 108.5-122.5 149-80.5 197.5-29.5 248.5q0 160 39 295.5t106.5 230.5 158 162 192.5 99 211 32q28 0 57-3z"/><glyph unicode="" horiz-adv-x="2048" d="M114 1020q0 137 40 272t119 253 186 209 250.5 144 303.5 53q158 0 301-50t255-141.5 194.5-215 126.5-276 44-318.5q0-194-55-349t-165-268.5-285-174.5-405-61q-181 0-331.5 47.5t-256.5 132-179.5 200.5-108 253-34.5 290zm1689 67q-3 120-35.5 228.5t-100 205-164 166.5-236 110.5-308.5 40.5q-237 0-418-161 68-68 163.5-192.5t190.5-239.5 186-187q292-7 722 29zm-819-877q1 93 9 361.5t7 384.5q-442 523-557 639-193-219-193-522 0-98 8.5-182.5t31-171.5 58-157 92.5-134 132.5-108.5 180-73.5 231.5-36zm825 774q-325-12-711-45 5-132 5-252.5t-2.5-250-2.5-201.5q349-31 535.5 170.5t175.5 578.5z"/><glyph unicode="" horiz-adv-x="2048" d="M1644 1894q100 0 168-57t77-154q25-300 17-705-142-13-307 11-54 8-87.5 40t-66 94.5-44.5 79.5q-59-65-103.5-106t-119.5-96q-44 46-88 94.5t-65.5 72.5-72.5 83-64 74q-44-43-94.5-115t-98.5-130-103-91q-70-41-182.5-47t-261.5 19q3 96 0 331.5t0 333.5q4 137 49.5 194t138.5 57q58 0 649.5 8.5t658.5 8.5zm-478-1053q64 28 100.5 55t69 63 52.5 53q20-23 42-53t32.5-42 33-25 57.5-22q129-34 347-34 8-66 10.5-159t2-213.5-.5-128.5q0-75-37.5-113.5t-116.5-51.5q-92-15-1047-15-368 0-421 4-82 6-115.5 48t-37.5 111q-3 35 0 103.5t9 185.5 8 217q89 6 165.5 0t170.5 3 164 43q113 52 222 239 91-119 150-175t140-93z"/><glyph unicode="" horiz-adv-x="2048" d="M1669 1751q-199-5-539 0t-481 1q-10 0-66-1t-92.5-3-86.5-6-84-13.5-49-22.5l142-125q57 1 250 4.5t328 6.5 297.5 12 250.5 23q94 71 130 124zm64-19q-13-25-70-71.5t-67-57.5q25-158 35.5-338t14.5-419.5 10-365.5q15-13 39.5-36t46.5-43 45-40q-28 222-33.5 711.5t-20.5 659.5zm-1471-103q-20-506 29-1314 44 28 86.5 64t62.5 59l21 22q-5 79-17 308.5t-24.5 418.5-27.5 332q-13 7-59.5 51t-70.5 59zm666-130q28-185 37.5-509.5t42.5-506.5q26 0 68 3t68 3q-7 116-18 461.5t-33 542.5q-31-1-86 5.5t-79 .5zm-71-15q-31-3-160.5-10t-204.5-15q0-15 9-67.5t6-83.5q27 0 115.5-.5t142.5 2.5 103 13q0 9-7.5 63.5t-3.5 97.5zm679 0q-157-12-364-17 0-33 8.5-92t8.5-92q45 2 99.5 6t82.5 6 74 1.5 103-5.5q-4 30-4 90.5t-8 102.5zm-640-413q0 7-9.5 72.5t-4.5 109.5q-15 0-105 5t-158 .5-107-24.5q-10-125 6-163 103-8 378 0zm658 154q-58-1-200 2t-164-2q3-33 0-65t-.5-66 14.5-51q30 0 101-.5t114 0 91.5 4 71.5 10.5q1 36 .5 66.5t-7 58-21.5 43.5zm-336-238q-7-20-9-43.5t-1-40.5 5-53.5 5-58.5q13-1 71-5t88.5-5.5 89-3 115.5-.5v210q-69 1-144.5-4t-105-5.5-114.5 9.5zm-686 11q-3-56-3-71.5t7.5-57.5 9.5-64q36-5 162.5-1.5t187.5 1.5q12 79 0 196-67 7-186 .5t-178-3.5zm1044-282q-248 5-358-9 8-7 9.5-33t-1.5-55.5-6-66-2-55.5q200-8 361 9 1 16-3 90t0 120zm-680 33q-72 5-196-5.5t-160-11.5q0-6-.5-43.5t0-59.5 1.5-55 3.5-55.5 7.5-35.5q24 1 164 11t203 3q-1 15-1.5 78t-5 111-16.5 63zm859-448q-44 37-88 67.5t-66 42.5l-22 12q-107-12-517-6.5t-541-21.5q-35-21-78-60.5t-67-56.5q249 6 469.5 2t481.5-.5 428 21.5zm106-57q-704-37-923-27-14 1-45 1-57 0-197.5-8t-212.5-8q-193 0-284 45-18 289-18.5 783.5t-12.5 726.5q203 45 519 67t627 22q405 0 486-27 23-148 34.5-317.5t17.5-376.5 10-278q1-15 8-124.5t9-171.5-1.5-154.5-16.5-152.5z"/><glyph unicode="" horiz-adv-x="2048" d="M73 664q0 557 24 837 98-65 271-190.5t236-177.5q-12 201-6 369 62-43 221.5-179t257.5-192q6 52 8.5 112t3 93 0 107.5-.5 92.5q55-37 229-192t266-211q4 147-3 739 70-4 121-1.5t110-.5 107-15q40-541 51-910 16-488-5-745-203-16-595-21t-824.5-3.5-441.5 1.5q-30 272-30 487z"/><glyph unicode="" horiz-adv-x="2048" d="M80 165q165-17 253-14 0 23-9 180-30-3-74.5 3t-78 12.5-63.5 4.5-39-18q8-161 11-168zm1895 1152q4 6 .5 33.5t-3.5 37.5q-83 14-168 17 0-13-4.5-44t-4.5-44h180zm-1571-1166q263-17 359-12-9 110-27 257.5t-33.5 260-41 291-37.5 264.5q-66 4-90 3.5t-79-3.5-105-3q0-123 16.5-484t37.5-574zm-337 585q31-3 107-8t117-11q5 300-8 492-68 6-140.5 9t-89.5 4q2-59 4-155.5t4.5-175 5.5-155.5zm309 746q29 0 89.5-1.5t89.5-1.5q9 236-17 421-34 13-87.5 15t-85.5-15q0-98 5-223.5t6-194.5zm592-197q-27 48-50 127-138 0-270-.5t-297.5 4-301.5 15.5q3-32 5-78.5t4-72.5q230-1 319.5-1t314.5 3 276 3zm753 94q11 3 18 12t9.5 26 3 30.5-2.5 39-5 38-6 39.5q-40-46-116-65.5t-154-4.5-119 62q-33-44-83.5-70t-127-24-156.5 48q1-9 2.5-30t2.5-30 4.5-25.5 7.5-25.5 12-19.5 19-17.5q51 1 294.5 4t396.5 13zm60-125q-20-80-69-117t-150-68q0-135 13.5-351t16.5-319q170-4 266-12-6-29 3-71-16 0-56-1.5t-55-1.5q0-46 2-105.5t1-85.5q20 0 106 5t138 4q-19 242-12 581.5t-8 536.5q-16 0-47-.5t-49-.5-45.5 1.5-54.5 4.5zm-1695-833q61-19 103.5-23t118.5 3q0 24-3 105t-3 139q-119 4-233 23 1-129 17-247zm236 1069q0 48-7 185t-4 225q-34-3-89.5 3t-86.5 8-75-11q0-54-2.5-200.5t-2.5-200.5q106-5 267-9zm301-14q21 1 70.5 4.5t76 4.5 68.5 0 80-6q-4 47-4.5 86t14 67 45.5 35q5-8 16.5-30.5t22-37.5 28-32.5 43-27 58.5-9.5q42 0 78 17t56.5 41 35 48.5 19.5 41.5l6 17q13-11 38.5-40t45.5-48.5 57.5-36.5 81.5-17q40 0 72.5 17t47.5 35 39.5 53.5 35.5 49.5q24-58 36.5-105.5t16.5-117.5q19-1 83.5-7.5t86.5-4.5q0 44-4.5 192.5t-.5 211.5q-147 24-468 28t-547-2-351 3q0-34 12.5-188.5t4.5-241.5zm-116-587q41 0 71.5-39t30.5-75q0-32-11-49t-48-29q12-204 19-295-31-12-81-1-2 38-3 146t-4 155q-8 3-20 8.5t-31.5 26.5-19.5 48q0 42 26.5 73t70.5 31zm613-426q50 0 82.5 31t32.5 86q0 42-19 112.5t-50.5 144-81.5 126-103 52.5q-37 0-50-29.5t-13-103.5q0-87 23.5-181.5t71.5-166 107-71.5zm-371 239q8 0 36 2t43 1q1-5 6-21.5t4.5-19.5-1.5-24q-64-10-82-12 5-22 12.5-56t10.5-49.5 7.5-47 8.5-71.5q56 3 88 24t62 65q-30 76-53 199.5t-23 212.5q0 171 127 171 61 0 133.5-77.5t121-188.5 48.5-202q0-40-8-70.5t-28.5-60-64-45.5-107.5-16q-39 0-60 9t-45 36q-23-110-179-120 1-60 22-208 151-15 435.5-10.5t435.5-.5q-9 132-12 196-74 3-185 4t-153 2q0 5-1.5 27.5t-1.5 43.5q25 0 60.5-1t61.5-1 51 2q-9 108-19.5 313.5t-22.5 349.5q-17-1-47-1-153 0-251 49t-167 130q-51-8-110-10.5t-125-3-97-2.5q6-118 69-518zm472 1315q409 0 532-18 174-24 183-25 76-16 102-54 28-43 30-179v-9q20-1305 0-1684-328-21-1006-16.5t-817 19.5q-125 14-162 26-87 27-91 99-11 199-12.5 660.5t-7.5 615.5q-3 80 .5 174t10.5 204 9 164q842 23 1229 23z"/><glyph unicode="" horiz-adv-x="2048" d="M1287 576q-150-298-189-366-68-119-95-119-40 0-175.5 238.5t-172.5 348.5q-24 72-79.5 193t-73.5 167q-21 55-32 88t-23 93-12 116q0 89 22 175.5t70.5 168 117.5 143.5 170.5 99 221.5 37q186 0 310-101 63-51 110.5-105.5t75.5-108 45.5-97.5 24.5-95 8.5-78.5 1.5-67.5q0-79-40-187t-87.5-193-111.5-193.5-87-155.5zm-494 821q0-40 8.5-79.5t28.5-78 49-68 74.5-47.5 100.5-18q115 0 174.5 79t59.5 186q0 99-73 186.5t-165 87.5q-101 0-179.5-76t-77.5-172z"/><glyph unicode="" horiz-adv-x="2048" d="M1195 1896q459 0 673-23 19-144 29-224t26.5-231.5 23.5-253.5 13-245.5 2.5-254-15.5-233.5-34-226q-167-26-473.5-31.5t-364.5-9.5q-382-24-840-7-42 116-68.5 275.5t-33.5 254-19 289.5q-2 33-13 195.5t-14 237.5.5 201.5 19.5 222.5q64 13 133 23t120 17 135 11.5 123 7 141.5 3.5 131.5 1h304zm-1013-285q224 10 771.5 31.5t851.5 36.5q-2 15-5 36.5t-5 33-6 27.5-11 30q-4-3-77-3t-269 .5-546-1.5q-135-8-296-15t-248.5-10.5-100.5-6.5q-23-5-38-15.5t-22-20.5-8.5-29-.5-29.5 5-34 5-30.5zm385 66q-17 1-29 9t-13 19q-2 36 22 44 14 3 23.5-1t13-11 7.5-18q1-22-4-32.5t-20-9.5zm-184-7q-14 51 27 67 47 9 49-38 0-13-8-28.5t-22-15.5q-26 0-46 15zm-129-4q-13 45 24 61 43 7 45-35 0-12-7-26t-20-14q-26 1-42 14zm-72-122q-3-154 15.5-370t45-459 34.5-362q513 51 1596 54-6 152-6 387.5t-8.5 424-39.5 392.5q-293-22-853.5-37t-783.5-30zm115-1250q1-2 5-17.5t7-21.5 9-16.5 15-14.5 21-4q156 0 687 14.5t770 22.5q56 2 48 83-237 3-477 3-656 0-1085-49z"/><glyph unicode="" horiz-adv-x="2048" d="M887 128q-59-1-169.5-7.5t-166.5-7-131.5 16-132.5 55.5q-42 170-63.5 388t-23 420.5-1.5 431v419.5q4 45 39 62t118 24q123 10 497-3 220-9 447-1 26 1 115 7t137 7 106.5-9 84.5-34q63-58 80-482 2-51 8-234t12-297q5-141 6-292t-19-285-59-165q-30-24-87-30t-170-2-157 3q-88-1-250 7t-220 8zm789 1705q-99 20-230 24t-242.5-2.5-260-12.5-256.5-2q-21 1-83 5t-89.5 4-73.5-3.5-80.5-15.5-64.5-34q-2-20-5.5-61t-4-52.5-1.5-52.5 2-61q163-11 356.5-12t345 4.5 361 13 350.5 8.5q14 152-24 250zm-313-1086q12-9 44.5-34.5t47.5-37.5 38-32.5 40-38.5q37-39 23-68-17-37-65-97-14-11-37.5-5t-36.5 17q-44 37-103 81t-85 67q-127-84-272-84-182 0-306.5 125t-124.5 332q0 91 28.5 161t73.5 112.5 108.5 69.5 125.5 37 131 10q137 0 237-37 75-38 133.5-130t58.5-177q0-193-59-271zm-379 463q-53 0-98.5-17.5t-76-45.5-52.5-64-32-71.5-10-68.5q0-100 72.5-172t198.5-72q60 0 107 16.5t73.5 44.5 44 56 24 60 8.5 46.5 2 25.5q0 106-66 183.5t-195 78.5zm730 273q-167 6-368.5 2t-368.5-12-356.5-7-333.5 17q2-70 2.5-272.5t3.5-338.5 19.5-315 46.5-301q82-37 195.5-46.5t209-.5 226.5 22 211 13q56 0 181-5t207.5-2.5 153.5 19.5q11 113 14.5 233.5t-1.5 260.5-10 234-16.5 262.5-15.5 236.5z"/><glyph unicode="" horiz-adv-x="2048" d="M75 1005q0 212 58.5 384t171.5 295.5 288 190.5 399 67q188 0 347.5-48.5t275-135.5 197-206.5 121.5-263 40-302.5q0-141-31-268.5t-97.5-240-163.5-194.5-237.5-129.5-310.5-47.5q-174 0-325 28t-288 94.5-234 167.5-154 256.5-57 352.5zm313-62q106-76 175-122t173.5-103.5 199.5-92.5l-2 126q-31 19-142 95t-195 119q201 162 329 281 10 31 8 74t-13 80q-190-140-533-457zm755 440q-3-23-2.5-71t-5.5-74q26-21 143.5-111t189.5-150q-102-100-291-226-1-17-1.5-60.5t-2.5-75.5q370 240 478 375-213 191-508 393z"/><glyph unicode="" horiz-adv-x="2048" d="M79 1954q133-8 550.5-2t639.5 2q82-2 246-2t287 1l123 1q5-45 12-234.5t13-404 7-248.5q1-22 4.5-111.5t4.5-124 4-118 3.5-128 2-117 1-122-1.5-107-4-105.5q-402-42-1069-42-291 0-777 8-6 104-11.5 281t-11.5 278q-43 690-23 1295zm179-176q739 11 911 11 332 0 578-10 27-954 23-1423-184-1-498-8t-468.5-8-488.5 4q-11 118-34.5 664.5t-22.5 769.5zm413-148q-47-2-110.5-3.5t-94.5-2.5q36-38 83.5-111.5t82.5-111.5q-14-26-29.5-50t-35-51-32.5-44-40-52-40-52h202q19 21 36 41.5t28 34.5 27 37 23.5 34.5 27.5 42 29 44.5q-8 11-30.5 42.5t-30.5 42.5-25 36-26 40.5-21.5 38-23.5 44.5zm244-382q0-5 .5-39.5t4.5-56.5q71-1 192 3t196 3l-7 88q-28 3-196.5 2t-189.5 0zm-766 228q11-126 12.5-311.5t.5-330 15-322.5 53-320q152-4 206-3.5t201.5 7 199.5 8.5q103 3 308-6t390-5.5 352 34.5q9 161 5.5 424.5t-9 418.5-15.5 408.5-14 393.5q-214 22-562 22-156 0-483.5-6t-484.5-6q-65 0-187 2 8-60 8-204t4-204z"/><glyph unicode="" horiz-adv-x="2048" d="M1859 1956q14-136 21-593t10-508q6-82 6.5-188t-.5-169.5-6-202-6-174.5q-33-18-117-28.5t-204.5-13-210-3-208 2-124.5 2.5q-24 0-148-1t-232-1-245.5 8.5-227.5 25.5q-15 327-16 675.5t4 611.5q2 336 12 452 4 65 23 92 149 27 351 27 117 0 365-12 7-134 6-194t-7.5-171.5-7.5-170.5q-14-1-54 2.5t-76 1-67-15.5q60-60 166-179t182-195q32 40 98 111.5t119 136.5 84 126q-23 1-56.5 2t-49.5 2-40.5 5.5-50.5 13.5q-11 42-12.5 110.5t2.5 131.5 7.5 145 2.5 135q169 12 353 12 189 0 354-12zm-37-1448q-335-12-914-13.5t-685 7.5q4-65 1.5-113t.5-104 15-101q136-1 395-17.5t385-16.5q43 0 185.5-1.5t204-.5 177 11 223.5 30q2 42 5.5 144t6.5 175zm-1015-99q70-3 152-5t176-3 138-2q14-10 15-31t-6.5-59.5-8.5-45.5q-112-26-259-29t-240 15q-7 112 33 160z"/><glyph unicode="" horiz-adv-x="2048" d="M260 179q141-10 517-19.5t410-11.5q94-6 192 0t228.5 21.5 188.5 20.5q3 54-1.5 169.5t2.5 177.5q-127-8-340-2t-315 19q0 46 2.5 165.5t1 203.5-9.5 161q142 16 205 11-12 14-90.5 109.5t-140 165.5-111.5 117q-1 1-68-81t-147-184-109-144q54 6 228 6-3-117 2.5-282t3.5-270q-24 4-117.5 7t-186.5 3.5-210.5.5h-140.5q1-42 1.5-157.5t4.5-206.5zm1010 245q12-25 10.5-65t-10.5-65q-155-17-263-17-116 0-232 17-14 22-18 53t8 59q106 33 283 33 124 0 222-15zm561 1544q48-106 57-274 6-98 7-664t-8-908q-152-31-301.5-40t-286.5-4.5-351-.5q-37-1-145.5-6t-174.5-5.5-159.5 2-167.5 17-131 40.5q9 73-2 219t-9 193q0 5-4.5 350.5t1.5 674.5 30 409q14 0 402.5 6t649.5 6q421 0 593-15z"/><glyph unicode="" horiz-adv-x="2048" d="M1248 1903q3-96 3-620-92 61-378 327-9 114-7 277 1 66 64.5 106t144.5 40q71 0 121-33t52-97zm-1001-14q17 38 60 74 61-21 394-306t671-597.5 429-416.5q-9-10-24.5-24.5t-26.5-23.5l-10-9q-185 152-837 725.5t-656 577.5zm629-1115q-3 66-4.5 219t-4.5 213q38-29 182-146t191-150q6-79 0-187-2-33-41.5-50.5t-98.5-17.5q-83 0-152.5 32.5t-71.5 86.5zm-239 304q24-2 69-3t69-3v-100.5l-1-103 4.5-98.5 16-87 35-68.5 60.5-42.5q67-24 220-24 21 0 153 4 27 1 44 18.5t23 49.5 8 61 2 69 2 58q18-22 50.5-51t46.5-52q2-61-3-102.5t-22-78.5-49-58.5-85.5-33.5-130.5-11q8-151 0-223 16-2 49-6t57.5-7.5 57-9 55.5-13 44.5-18.5 32.5-26.5 11-34.5q0-30-104.5-48.5t-245.5-18.5q-156 0-270.5 24t-114.5 68q0 35 18.5 54.5t49.5 24 70 5.5 81-1.5 82 1.5q-7 153-18 238-79 7-129.5 19.5t-93.5 42-67 71-41.5 115.5-25 167-10.5 233z"/><glyph unicode="" horiz-adv-x="2048" d="M1836 1876q49-211 64-492t13.5-636.5 6.5-515.5q-90-43-197-64t-231.5-21-228 6-253 19-240.5 17q-88 4-158 1t-152 5.5-148 32.5q-34 33-56.5 77t-33.5 103-15.5 103.5-9 120-7.5 110.5q-6 58-18.5 179.5t-21.5 217-14 180.5q-7 104-8.5 177.5t10 166.5 39.5 162q532 77 1097 77 311 0 562-26zm-965-73q-64-5-199-16t-237.5-18.5-195.5-11.5q7-118 20.5-373t22-395.5 26.5-331.5 42-333q199-42 466-59.5t497-13.5 461 21q20 159 18 378.5t-12.5 381-21 382.5-8.5 384q-141 19-299.5 23.5t-286-.5-293.5-18zm756-179q5-43-8.5-73t-33.5-43.5-45.5-33.5-36.5-41q15-67 47-134t60-112 50-112.5 22-141.5q0-34-3-68.5t-16.5-89-36.5-102-67-98.5-102.5-87-150-59.5-203.5-23.5q-154 0-273 32t-196 87-126 136-69.5 172.5-20.5 202.5q0 94 13.5 161t39 110.5 52.5 73.5 66 73 66 87q5 1 94 22.5t123.5 29 105 17 125.5 9.5q155 0 258-63 23 6 86 58.5t103 52.5q39 0 77-42zm-1116-627q0-99 35-183t93.5-141.5 135.5-97.5 160-58.5 168-18.5q227 0 349 121t122 326q0 123-39.5 214t-118.5 180q-26-10-62.5-39.5t-66.5-57.5-65-50-60-22q-54 0-77 103 14 22 45 50.5t56.5 49.5 43 50 12.5 55q-115 32-219 32-120 0-218.5-42.5t-162-114-97.5-163-34-193.5zm359 28q0 46 47.5 89t127.5 43q69 0 108-47t39-111q0-66-37.5-109t-100.5-43q-70 0-127 56.5t-57 121.5zm816-552q-1-16-2.5-49t-2.5-49q-26-23-60-23-35 0-68 23.5t-50 56.5q6 41 33.5 63.5t63.5 22.5q54 0 86-45z"/><glyph unicode="" horiz-adv-x="2048" d="M1955 294q-22-22-53-38t-56-25-69-16-66.5-9-76.5-6-72-5q-457-35-1017-35-106 0-169.5 11t-108.5 41q-67 63-95 321-2 15-3 23-8 74-10 215t-6 194q-5 73-17 169t-23 173.5-19 160-6.5 159.5 15.5 141q1298 120 1495 120 171 0 226-54 36-36 52-105.5t14.5-141.5-2.5-149.5 1-128.5q6-58 17-161.5t18.5-174.5 17.5-179.5 13-177.5 5.5-169-5.5-153zm-426 1261q142-300 147-868-79-10-258.5-40.5t-328-48.5-277.5-18q-190 0-332 41-8 63-24.5 145t-33 151.5-33 151-27 152-10.5 146 14 139.5q245 60 655 56 15 0 207.5-4t300.5-3zm-164-393q0-25 7-57.5t7-56.5-14-50q-33-16-77-16-68 0-103 33-13 29-13 58 0 49 34.5 82t81.5 33q41 0 77-26zm-721-131q-14 149 91 149 50 0 94.5-36.5t44.5-83.5q0-40-30.5-67t-75.5-27q-35 0-68.5 17t-55.5 48zm-213 410q49-354 131-754 68-15 113.5-22.5t110.5-8 120 13.5q19 136 82 181 22 0 73 9t75 9q46 0 68-18.5t24.5-42 11-50.5 27.5-38q52 0 149.5 17.5t161.5 14.5q-2 25-8.5 110.5t-9.5 118-10 105.5-14 114-17.5 98.5-24.5 103.5-31 88q-127-13-270-14t-241 3q-150 4-270-3t-251-35zm590-656q-28-64-33-98 47 13 78 10t63.5 0 55.5 23q-30 13-33 65h-131zm-21 973q-181-21-256.5-29.5t-232.5-18-293-7.5q-9-78-10.5-165t4-169.5 15.5-174 22-175.5 26-176q6-39 9-58 5-33 8.5-87t7-99 9.5-98 19-93.5 33.5-75 55-53 80.5-18.5q6 25 10.5 81.5t15.5 94 39 53.5q175-9 549 7.5t533 9.5q23-23 31.5-99.5t17.5-97.5q32-2 64.5 3.5t48.5 11 51 18.5q-19 312-26 422t-26 342-42 386-54 292q-87 9-175.5 10.5t-183.5-4.5-168.5-13-181.5-20zm-45-1497h246q11 81-33 147-47 5-82 5-72 0-116.5-19t-44.5-59q0-31 30-74zm-360 0h246q7 35-7 76t-10 71q-10 0-27.5 1t-32 1.5-26.5.5q-71 0-110.5-20t-39.5-77q0-25 7-53zm737 147q1-12 0-36t-.5-39 4.5-31.5 13-24.5q11 1 46.5 6t46.5 6.5 47.5 4.5 50.5 1.5 54-1.5q3 24 3 42 0 53-24.5 74t-69.5 21q-29 0-92.5-10.5t-78.5-12.5z"/><glyph unicode="" horiz-adv-x="2048" d="M176 737q-4 46-8.5 288.5t-4.5 308.5q2 110 154 115 270 11 560 5 837-15 844-15 55-2 91.5-49.5t40.5-93.5q5-52 19-291.5t13-293.5q-1-57-35.5-80t-102.5-31q-56-5-723.5-7.5t-723.5 3.5q-111 12-124 141zm146-13q297-17 820-19.5t605 10.5q3 46 4 103t-1.5 133.5-4 117.5-6 134-5.5 105q-141 42-792 42-513 0-646-20 5-106 2.5-202t2.5-211.5 21-192.5zm808 142q-4 138-21 342 93 4 155.5-2.5t111.5-27.5 71-63 20-107q-2-56-35.5-90t-83.5-44-108.5-12.5-109.5 4.5zm100 223q5-35 5-126 48 0 78.5 19.5t32.5 48.5q3 71-116 58zm-606-227q-4 64-5.5 119t-2.5 120-2 114q86 7 117-3 4-17 6-37t2.5-33 1.5-36.5 1-34.5q24-2 75.5 0t90.5-1q1 23 1 72t1 73q25 0 36 1t30 3 47 4q7-60 11-174t9-176q-56-9-135-10 2 41-6 128-108-11-160-11-6-42 2-111-106-17-120-7z"/><glyph unicode="" horiz-adv-x="2048" d="M213 1238q0 83 36.5 122t128.5 43q85 4 618.5 6t661.5 0q156-2 159-188 1-26 6.5-111t9-174 1.5-153q-3-137-79-137-26 0-382.5-3t-606-4-394.5 2q-52 3-83.5 11t-48.5 26.5-22 41.5-5 63v455zm119-478q125-10 258.5-15t290-5 261.5.5 298 4 275 4.5q11 71 11 179t-6 200.5-16 172.5q-184 22-718 22-499 0-659-22 0-44-2-142t-2.5-152 1.5-125.5 8-121.5zm165 98q-13 134-15 357 67 14 115.5 6.5t81-23.5 51.5-47 27-65.5 9-77.5q1-42-16.5-72.5t-46-45-64-23.5-72-9h-70.5zm800 35q-8 72-15 311 54 1 92-1t80.5-11 68.5-25 43-45.5 17-71.5q-1-102-67-134t-219-23zm-327-28q-11 33-57.5 145t-65.5 188q15 0 39 1t39.5.5 34.5-4.5q39-155 62-206 53 143 61 202 14 1 27 0t33-3 39-3q-14-54-59-170.5t-55-147.5q-14-6-52-3.5t-46 1.5zm-405 266q-3-33 0-97.5t11-87.5q54-5 83.5 15.5t24.5 71.5q-5 110-119 98zm809-181q121-2 123 85 1 51-34.5 71t-97.5 15q8-34 11-94t-2-77z"/><glyph unicode="" horiz-adv-x="2048" d="M1307 1797q19-81 27-218 346 4 498-36 23-55 39.5-112.5t26-126 15-115.5 6.5-129 1-116.5-2.5-127.5-2.5-114q-1-43 1.5-130.5t.5-159-14-137.5q-278-34-826-34-343 0-600.5 17.5t-310.5 52.5q-20 72-31.5 356t-4 558 33.5 312q118 24 376 18 2 163 29 234 121 18 341 18 151 0 397-10zm-253-387q-259 0-399-138.5t-140-376.5q0-245 131-368t416-123q111 0 203 31t152.5 81 102 115.5 59.5 131.5 18 131q0 78-14 146.5t-51.5 138-96.5 119.5-157 81-224 31zm-427-524q0 71 11 132.5t38.5 120 70.5 100 111 66.5 156 25q223 0 340.5-107t117.5-300q0-60-19-121t-57-115-89-96-121-66.5-148-24.5q-193 0-302 111t-109 275zm478 254q-36 3-45 3t-36-2-45-3q3-47-5-162-28-3-83-2t-62-6q0-22 3-53t4-50q37-4 83-7.5t64-5.5q8-39 8-150 53-11 118 0 3 16 4.5 30.5t2 23.5 0 22.5-1 19-2.5 22.5-3 24q31 6 77.5 7.5t69.5 5.5q0 12 2.5 55t1.5 56q-29 2-54 3t-51.5 1.5-43.5 1.5q3 102-6 166z"/><glyph unicode="" horiz-adv-x="2048" d="M1088 1538q132 11 207 11 83 0 153-11 32-154 41.5-314t9.5-370 5-326q-111-18-304-18-14 0-42 .5t-42 .5q2 196-12 541t-16 486zm-541-17q91-11 207 6.5t170 10.5q36-457 42-1014-82-25-211-25-37 0-175 7-46 665-33 1015z"/><glyph unicode="" horiz-adv-x="2048" d="M1504 2017q123-178 178-335-87-42-238.5-100t-229.5-94q-73-34-182-76t-239-89-176-65q132-1 370 2t433.5 1.5 350.5-12.5q39-700 19-1201-77-6-319-12t-490-6q-503 0-656 23-5 31-2 593t6 612q-6 12-27.5 56t-28 62.5-16.5 52-6.5 59.5 17.5 51q15 27 41.5 49.5t64 39.5 71 29 82 28 76.5 27q86 33 438.5 154t462.5 151zm-260-417q13 6 66 22.5t71 30.5q0 9 22 150.5t22 149.5q-6-2-30.5-8t-38-9.5-34-11-35.5-15.5q-1-32-21-154.5t-22-154.5zm-386-146q25 9 79 33.5t70 30.5q8 39 21 144.5t26 154.5q-7-3-72-25.5t-84-32.5q-4-29-19.5-140t-20.5-165zm-388-145q17 4 42.5 16.5t60.5 33 40 23.5q4 27 10 122.5t17 160.5q-31-8-76.5-24.5t-61.5-21.5q-25-205-32-310zm-60-339q5-158 2-286.5t-.5-288.5 13.5-276q57-3 120.5-5.5t143-3 136-1.5 156.5.5 144.5 2 158.5 3 140.5 3 149.5 4 129 3.5q-1 36-2 98t-2 99 0 92 3 108q3 65-7.5 225t-8.5 225q-195-8-615-2.5t-661 .5zm506-701q-1 54-8.5 233.5t-6.5 293.5q67-34 202.5-118.5t186.5-126.5q-33-41-162-140t-212-142z"/><glyph unicode="" horiz-adv-x="2048" d="M185 1875q60 6 332 6 344 0 776.5-9t560.5-20q16-86 19.5-797t-16.5-886q-39-2-369-2-1172 0-1312 10-9 1578 9 1698zm159-307q20 2 60.5 2t53.5 1q4 23 .5 110t-3.5 106q-21-3-53 3t-61 6q0-34 1.5-114t1.5-114zm634 6q11 1 67-5.5t58 2.5q3 126-5 208-13 0-35.5 3t-41 3-34.5-6q0-33-4.5-103t-4.5-102zm350 193q0-146 3-193 80-9 102-12 9 135-8 205-7-1-26.5-2.5t-27.5-2-20.5.5-22.5 4zm287-219q15 0 56.5 1t55.5 1q-17 168-21 192-10 0-46 2.5t-47 2.5q-4-123 2-199zm-984 20q24 11 69.5 5.5t58.5.5q1 44 1 81.5t-.5 74-.5 54.5h-125q0-163-3-216zm-321-1041q332-16 899-16 306 0 582 3 0 62 1 224.5t0 248.5-8 222-21 254q-618 31-1152 31-157 0-310-3 12-155 6.5-493.5t2.5-470.5zm592 192q-5 78-9 178t-5.5 230.5 7.5 171.5q16-12 177.5-117t235.5-167q-28-47-173-151t-233-145zm-527-465q18-1 47.5-4t40.5-3.5 40 1.5q-12 104-5 194-17 0-60.5 1t-59.5 1q0-29-2.5-90.5t-.5-99.5zm339-11q21 0 63.5 1t64.5 1q2 23-5.5 86.5t-3.5 93.5q-17 0-56.5 5.5t-57.5 5.5q-5-57-5-193zm332-6q13 0 36.5-.5t43.5-.5 37 1q-2 30 1 87.5t2 85.5q-14 1-60 1t-57 5q0-22-1.5-90t-1.5-89zm311 168q-4-27-4.5-55.5t.5-67 1-51.5q18-1 48.5-2.5t47.5-3.5q0 28-2.5 89.5t-2.5 90.5h-88zm275-180q18-5 58-2t53 2q0 25-8.5 92.5t-8.5 92.5q-18-5-50.5-2t-45.5 2q0-28 1-92t1-93z"/><glyph unicode="" horiz-adv-x="2048" d="M1638 388q-25 34-186 23-359-18-936 0-5 0-21 1.5t-26 1.5-22.5-2-21-9-11.5-20q10-12 25.5-21t28-13.5 36-7.5 33-3.5 37-.5h31.5q472-7 898 23 10 1 28.5-1.5t34.5-4 32-.5 26.5 9.5 13.5 24.5zm0-102q-686-22-1011-16-102 2-194 6-6-1-8.5-10.5t.5-28 12-40.5q472 0 722 10 3 0 93-2t187.5-2 165.5 4q16 6 22.5 20.5t8 35 2.5 23.5zm-40 1633q32-7 59.5-41t36.5-71q-3-193 21.5-565t24.5-571q0-325-51-518-36-12-77.5-14t-99 1.5-87.5 2.5q-113-1-461.5-17.5t-522.5-12.5q-44 21-68 75.5t-23 137.5q0 15-5 187.5t-10 388.5-6 327q-2 445-21 674 147 55 325 21 13-188 17.5-526.5t13.5-493.5q33 0 54.5 36t41 91 36.5 76q14-30 33-62t49.5-79.5 33.5-51.5q3 71 .5 192t-.5 194q2 90 0 196.5t-7.5 243-6.5 189.5q121 3 393 .5t307-10.5z"/><glyph unicode="" horiz-adv-x="2048" d="M1257 117q-198-3-290-.5t-274.5 12-294.5 12.5q-34 34-45 74t-11.5 108-4.5 101q-10 72-27 613.5t-22 859.5q101 23 229 31t225.5 5 244.5-12q7 0 59.5-3.5t63-4 57.5-3.5 61.5-3.5 56-2.5 60.5-1.5 54 0 58.5.5 52 2.5 54.5 3.5q40-15 69-40.5t46-55 29-77.5 17-92 11-116q12-153 19.5-594t4.5-500q-7-138-17.5-173t-67.5-83q-24-20-63-33t-91.5-18.5-90-7-97.5-2-76-.5zm62 1706q-10 7-44 3.5t-54 8.5q2-171 16-625.5t14-677.5q15-11 32.5-15t51-5 45.5-2q-7 152-16 421t-18.5 478.5-26.5 413.5zm294-1375q-3 15-24 12-79-17-189.5-23t-269.5-8-229-5q-227-10-380 0-7 0-25.5 3.5t-30.5 4.5-24.5-3.5-17.5-17.5q-5-22 2.5-37t26-21.5 33.5-9 40.5-3.5 32.5-2q35-4 81.5-4t113 2 87.5 2q57 0 170.5-1.5t205-1.5 164.5 3q42 1 72.5 5t68 14.5 61.5 33.5 31 57zm11-150q-41-21-236.5-27.5t-490.5-3.5-310 3q-11 0-38.5 3t-45 3.5-38.5-7.5-32-27q3-32 66-32 69-11 470.5-14.5t640.5 14.5q2 13 7 31.5t7 31.5 0 25z"/><glyph unicode="" horiz-adv-x="2048" d="M299 1516q-15 190-10 288 151 13 316-18 1-11 3-50t3.5-64.5 2.5-60-.5-61-4.5-44.5q-33-5-79.5-9t-100-6-91.5 4-39 21zm1109 8q-21 195-18 277 38 3 152 3t161 4q1-15 8.5-126.5t6.5-150.5q-70-18-158-19t-152 12zm-561 262q9 1 24 3.5t58 7 83 7.5 88.5 2.5 84.5-5.5q5-34 7-74.5t1.5-69-1-72-.5-61.5q-173-17-327-11-3 49-8.5 136.5t-9.5 136.5zm-519-896q-8 155 3 285 94 18 303-4 19-91-3-288-191-29-303 7zm1120-7q0 36-7 288 187 14 298-7 0-42 11-267-152-19-302-14zm-558-7q-12 93-12.5 153t5.5 127q48 0 153-1.5t153-1.5q8-36 10-77t-1-107.5-3-81.5q-196-38-305-11zm579-616q-10 53-13 158.5t-5 133.5q13 0 148.5 1t154.5-5q12-144 3-292-48-4-81.5-3t-100.5 4-106 3zm-540-18q-7 22-12 49t-7 62.5-2.5 58.5-.5 66v56q206 21 303-11 22-87 22-256-145-23-214-25-37-1-89 0zm-561 4q0 46-2 112.5t-1.5 101.5 6.5 63q79 4 299-7 10-38 11.5-88t-1.5-87.5 1-84.5q-24-8-53-12t-66-4.5-62 .5-71 3-61 3z"/><glyph unicode="" horiz-adv-x="2048" d="M1018 578q592 24 735 12 15-157 4-334-29-4-119.5-3.5t-235.5 2-372-.5q-157-2-325-5t-208.5-3.5-128.5.5q0 44-2 122t-1.5 123 6.5 72q27 1 106 1.5t222 3.5 319 10zm-21 903q-103-3-242.5-8.5t-207-7.5-138-2-110.5 5q-17 210-10 336 21 6 282 .5t447-.5q153 4 415.5 2.5t269.5 1.5q15-311 15-317-42-12-158.5-13t-255 3-307.5 0zm37-293q133 1 260 2.5t186.5 2.5 115 1 85-2.5 58.5-7.5q0-2 10-307-177-24-709-15-173 3-311 .5t-250-1.5-151 9q-8 181 4 326 84 6 113 3.5t203-7.5 386-4z"/><glyph unicode="" horiz-adv-x="2048" d="M497 104q-40 139-45.5 323.5t3 418 .5 372.5q-2 40-12.5 137.5t-16 173.5-6.5 164 15 153.5 49 98.5q102 102 602 102 335 0 496-64 36-117 42-292.5t-4.5-435.5-9.5-372q0-23 2-109t1.5-150.5-3.5-129.5q-2-40-3.5-108t-3-103-7.5-80-18.5-74-33.5-50q-44-44-120-61t-243-17q-215 0-415 25.5t-269 77.5zm69 69q44-35 108.5-50t112.5-15 121.5 5 97.5 5q71 0 162.5-4.5t137.5-6.5 96 7 83 32q32 95 38.5 209t-2 290.5-8.5 251.5q0 116 9.5 331.5t9.5 386.5-19 313q-214 16-491.5 9t-479.5-34q-14-131-13-212.5t6.5-225 2.5-233.5q-3-83-3-180t1-163 6-190 6.5-165.5 9-190.5 8.5-170zm154 969q-7 44-9.5 91.5t-3 104-2.5 88.5q-1 31-6.5 89t-7 93 .5 78.5 16 75.5 39 54q49 43 148 43 27 0 58-2.5t70-6.5 58-6q79-6 118-10t93.5-15.5 95.5-30.5q24-68 32-162.5t6.5-149.5-11.5-182-11-148q-286-35-442-35-161 0-242 31zm622 278q9 31 3 147.5t-27 151.5q-229 49-336 49-110 0-179-35-11-28-14.5-90.5t-2-118-.5-104.5q69 0 174 3.5t194.5 3.5 187.5-7zm-553-116q3-14 1.5-28.5t1.5-34.5 13-34q16-21 246.5-21t286.5 6q12 1 17.5 8t4.5 20.5-4 27.5-7.5 37-6.5 42q-219-22-400-26-16 0-67 2.5t-86 .5zm306-1089q-88 0-156.5 26t-109 65.5-67 92.5-36 101-9.5 97q0 64 17 119.5t54.5 106 108 80 167.5 29.5q153 0 212-35 57-32 108-147t51-230q0-134-90-219.5t-250-85.5zm-20 643q-36 0-79-12.5t-88.5-37.5-75.5-72.5-30-108.5q0-77 44.5-154t118-126.5 149.5-49.5q134 0 218 155 10 51 10 101 0 143-77 224t-190 81zm-105-183q63 49 117 49 31 0 64-8 32-17 52-57.5t20-87.5q0-41-16-77-47-50-114-50-59 0-101.5 39.5t-42.5 102.5q0 44 21 89zm70-126q14-15 48.5-15t48.5 15q0 47-11 72t-45 26q-33-9-44.5-38.5t3.5-59.5z"/><glyph unicode="" horiz-adv-x="2048" d="M1488 1640q20-10 81.5-25.5t84.5-34.5q21-172 32-350.5t11.5-412.5-1-342-7.5-391q-349-27-782-27-427 0-494 39-38 138-52 291.5t-11 269 7.5 277.5.5 273q-6 132-8 392 34 8 96 13t107 13q2 49 3.5 175.5t9.5 179.5q355 10 409 10 301 0 478-57 9-47 18.5-146.5t16.5-146.5zm-829 242q-13-59-3-176t3-171q-38-13-118-4.5t-108-10.5q11-177 14-630.5t29-718.5q56-22 145-26.5t200 0 157 2.5q50-2 167-10t165-8.5 129 10.5 154 39q14 342 12 668.5t-27 673.5q-12 2-44 5t-48.5 6-39.5 8.5-38 15.5-25 25q9 31 6 78t-8 72.5-14.5 72.5-14.5 79q-38 2-192 13t-237 11q-144 0-264-24zm825-815q1-10 7.5-51.5t9.5-67.5 4.5-72-6.5-65q-159-14-396-14-49 0-153.5.5t-161.5.5q-135 0-208-2-26 58-39 156t-7 160q133 17 308 17 180 0 357.5-16.5t284.5-45.5zm9-442q69-108 30-347-117-32-269-32-107 0-334 23.5t-347 23.5q-2 23-10.5 85.5t-12.5 101.5-3 90 11 85q342 18 472 18 287 0 463-48z"/><glyph unicode="" horiz-adv-x="2048" d="M1381 1936q20-40 39.5-136.5t36.5-134.5q10-17 64.5-18t109.5-2 66-17q0-4 7.5-68t9-77.5 8-73.5 8.5-85.5 6.5-82 6.5-93.5 4.5-89.5 3.5-102 1-100.5v-739q-154-7-542-16.5t-567-18.5q-78-4-148.5 9t-175.5 42q-4 164-6 695.5t-17 836.5q40 17 166 15 2 41 3 86.5t2 63 7 48 18 73.5q145 16 327 16 254 0 562-31zm-814-90q-8-28-11.5-66.5t-4-67.5 0-80 .5-73q-121 4-166-15 15-270 23.5-699t19.5-634q111-13 226.5-18.5t255.5-3.5 230.5 4.5 270 10.5 254.5 11q5 210 0 421.5t-20.5 513.5-19.5 397q-25 12-63 14.5t-70.5-2-75.5-9.5-66-6q-24 26-33.5 76t-13.5 113.5-13 96.5q-140 20-364 20-63 0-184-2t-176-2zm-60-1116q105-6 467.5-9t557.5-21q42-74 44.5-190t-44.5-187q-96 0-275-4.5t-263-4.5q-275 0-457 39-40 286-30 377z"/><glyph unicode="" horiz-adv-x="2048" d="M1115 1913q91 0 161.5-22t129-72.5 97.5-138.5 58-214q17-118 13-462-1-74-2-123.5t-4.5-115.5-9-112.5-15.5-102.5-24-96.5-34-84.5-46-76.5-60.5-63-75.5-52.5q-78-42-226-42-121 0-230.5 34t-167.5 103q-73 87-121.5 282.5t-64 394-16.5 360.5 12 211q53 210 199.5 301.5t426.5 91.5zm367-890q0 350-71.5 543.5t-229.5 265.5q-102 5-183.5-1.5t-161-28.5-137.5-69-88-118q-11-27-19-59.5t-12-74.5-6-76.5 0-88.5 3-86.5 7-95 8.5-88.5 9.5-93 9-84q12-115 33.5-208.5t58.5-178.5 88-142.5 125-91 166-33.5q91 0 194 30 108 86 157 297.5t49 480.5zm-491 293q-35 36-41 100.5t26.5 114.5 95.5 43q14-38 20.5-81t3-85-30-68.5-74.5-23.5zm-312-122q22 3 27-13 3-33 8-96.5t9-105.5 11-104.5 16.5-107 23.5-98.5 34-93.5 45.5-77 60.5-63.5 77-41q150-13 231.5 48t120.5 183q24-13 24-49 0-51-22-94t-57-71-78.5-48-85.5-29-79-9q-86 0-151.5 41.5t-107.5 116-67.5 185-34.5 239-5 287.5z"/><glyph unicode="" horiz-adv-x="2048" d="M1633 1907q-25 0-330.5-1t-420.5-5q4-18 10-148.5t13-309 11-247.5q2-34 7.5-248t9.5-270q17-3 34.5-5.5t38-4.5 36-3 40.5-2 38-1.5 43-.5h129l375-6q2 91-1 293.5t-8 286.5q-11 168-15 369.5t-10 302.5zm-544-1595q70 104 94 175-47 9-129 9-66 0-102-10 35-63 60.5-97.5t76.5-76.5zm-986 1714q164 2 937.5-2.5t875.5-11.5q12-396 31-1755-20-10-56-13t-63.5-1-47.5 0q6-25 9-56t4.5-74.5 3.5-68.5q-377-31-851-18-44 1-187 5t-195 5-208 2.5-228-1.5q-18 271-24.5 989.5t-.5 999.5z"/><glyph unicode="" horiz-adv-x="2048" d="M485 1660q-4-122 10.5-619.5t6.5-682.5q90 0 537 12.5t564 9.5q0 80 3.5 366t.5 508.5-17 392.5q-90 10-325 20t-441 10q-257 0-339-17zm1109 157q61 41 117 41 70 0 114-59t44-136q0-103-74-158 47-26 76-79t29-111q0-93-71-141 86-47 86-167 0-60-23.5-121t-62.5-101q48-17 73-67t25-112q0-65-26-120.5t-72-77.5q40-51 40-135 0-83-31-118t-89-35q-57 0-122 26t-110 67q-23-45-96-76t-135-31q-37 0-97.5 24.5t-89.5 65.5l-2.5-10-9.5-21.5-19-27.5-33-21.5-49-9.5q-36 0-65.5 12.5t-44 27.5-26.5 28-17 14h-1q-9 0-50.5-29t-70.5-29q-24 0-36.5 7t-32 22.5-49.5 28.5q-37-31-57.5-47t-57-31.5-71.5-15.5q-68 0-130 60t-62 116q0 29 12.5 55.5t35.5 59.5 33 54q-50 17-76.5 61t-26.5 98q0 59 30.5 108t84.5 65q-57 21-86.5 71t-29.5 112q0 65 31 122t85 83q-16 16-52 38.5t-55.5 45.5-19.5 60q0 79 115 199-87 10-131 63.5t-44 124.5q0 75 45.5 132t119.5 57q54 0 113-34 16 35 56.5 59.5t82.5 24.5q73 0 90-72 15 8 33.5 26t33 31.5 43.5 24.5 68 11q25 0 42.5-5.5t28.5-17.5 17-22 13.5-29.5 12.5-28.5q31 37 75.5 58t89.5 21q50 0 90-25.5t60-75.5q5 7 16.5 25.5t16 25.5 14.5 21 16.5 20 17.5 15 21.5 12.5 24 6.5 29.5 3q71 0 119.5-31t83.5-106z"/><glyph unicode="" horiz-adv-x="2048" d="M1006 1492q-2-55 8-271.5t2-299.5q-31 0-96-2t-96-2q58-55 178-163.5t155-135.5q44 20 170 139.5t154 163.5q-90 9-226 17-1 13-4.5 85t-5 101-3.5 93-2 100.5 1.5 80 5.5 72.5q79 80 197 80 119 0 213.5-92.5t94.5-215.5q0-34-7-63 33 5 58 5 124 0 189.5-90.5t65.5-240.5q0-152-64.5-278.5t-144.5-174.5q-100-3-307.5-3.5t-392.5.5-359.5 2-186.5 1q-39 0-108.5-1.5t-111-2-101 2.5-96 11.5-78 26.5-64.5 45-38.5 69-15.5 98q0 70 27.5 132.5t75 108 102 78.5 117.5 55q-51 77-51 196 0 43 11.5 94.5t42 113 76 110 121.5 81.5 170 33q102 0 189.5-39.5t134.5-119.5z"/><glyph unicode="" horiz-adv-x="2048" d="M878 781q29-124 13-324-360 3-555 17-71 5-116 12t-91 23.5-71 42.5-41 69-16 104q0 143 82 234t214 88q-2 18-2 53 0 132 56 244.5t166 183.5 252 71q143 0 232-69.5t98-209.5q26 10 76.5 40t100.5 49.5 106 19.5q123 0 213-69.5t90-175.5q0-36-12-73 44 2 71 2 304 0 303-309v-5q0-68-29.5-131t-72-104.5-86-67.5-76.5-30q-87-12-381.5-14t-310.5-3q-7 33-3.5 150t20.5 174q30 0 94 4t103 4q-30 38-86.5 96.5t-128.5 130.5-101 102q-53-62-168.5-175.5t-147.5-148.5q59 17 205-5z"/><glyph unicode="" horiz-adv-x="2048" d="M961 2054h42q85-50 189.5-142t175.5-166.5 193-207.5 169-183q14-15 51.5-51.5t62-62.5 53-61 43-68.5 14.5-64.5-29-86-60.5-99-78.5-105-56-74q-45-65-124.5-161t-126.5-161q-193-229-350-335-48-32-95-32-24 0-50 9.5t-45.5 20.5-48 35.5-44.5 40-48.5 48l-46.5 46.5q-46 45-90 90.5t-73.5 77.5-74.5 84-66.5 77.5-77 92.5-79.5 95q-14 16-60.5 67.5t-69.5 80.5-45.5 71.5-20.5 74.5q1 16 6.5 33t20.5 38 25.5 35.5 36.5 41 37 37.5 43.5 42 40.5 39q132 128 228 237.5t205 251.5q40 52 112.5 147.5t111.5 146.5zm839-993q-198 292-545 615-24 23-92 91t-117 111-85 64q-120-174-275.5-364t-312.5-349q-3-3-28.5-29t-35-36-32.5-35.5-34-40-25-34.5-20-35.5-6-27.5q0-42 160.5-209t366.5-351.5 357-302.5q106 51 207 191 45 63 130.5 180.5t138 191 123 177 125.5 193.5zm-1121 90q70 95 163.5 247.5t146.5 249.5q38-96 352-478-32-9-103.5-17.5t-108.5-14.5q10-48 18-76t24-57.5 35-46.5 54.5-37.5 79-37 112.5-39.5q-8-44-22-75.5t-27.5-48.5-35.5-45-39-56q-25 9-46.5 20t-46.5 28.5-39 28-46 36-45 35.5q-6 5-22.5 25t-30.5 38l-13 17q-8-56-56.5-112t-126-87.5-154.5-14.5q-25 37-55.5 91.5t-55.5 83.5q19 8 45 16.5t47 14.5 46 14.5 44.5 16.5 39.5 21 34.5 27.5 26.5 36 17.5 47 5.5 59.5-7 74q-14 2-48 6t-54 6-50.5 3.5-58.5.5z"/><glyph unicode="" horiz-adv-x="2048" d="M1329 1964q192-9 444-9 23-214 32-613t7.5-691-5.5-360q-12-4-22-4.5t-23 .5-18 1q-7 69-12.5 469.5t-5.5 540.5q1 47-10 290.5t-11 292.5q-83 3-631 10.5t-674 6.5l3 76q47 5 407 1t519-11zm253-199q11-127 26.5-442t23-687.5-17.5-539.5q-197-25-465-25-234 0-471 18t-403 48q-27 215-32.5 530t0 564.5-6.5 537.5q257 9 427 8.5t489.5-6.5 429.5-6zm-1254-66q-19-72-22.5-167t1.5-173q12-531 0-807-5-125 21-362 50 2 79 2 124 0 424.5-21.5t443.5-21.5q163 0 275 21 2 200-18.5 736t-13.5 783q-170-5-583.5 8.5t-606.5 1.5zm867-291q11-1 53 2t68-3.5 39-30.5q-26-15-65.5-21t-73.5-5.5-95 3-96 2.5q-36 0-203 11t-193 12q-11 0-33.5-1.5t-38.5-1.5-33.5 2.5-28.5 13.5-14 29q144 7 362 3t352-15zm-689-304q101 16 398 1.5t455-35.5q-6-22-23-34.5t-44.5-15-49.5-1.5-57.5 4.5-48.5 4.5q-333 15-460 23-95 5-129 20-28 12-41 33zm5-329q86-8 414-20t460-35q-7-16-20-26t-34-13.5-36.5-4-42.5 0-37 .5q-186-1-714 55v21q-3 17 10 22zm6-327q116-11 440-35.5t391-30.5q4-19-3-29t-22.5-11.5-31 .5-37 5.5-33.5 3.5q-171 1-399 18t-305 47v32z"/><glyph unicode="" horiz-adv-x="2048" d="M1796 2018q68-288 13-1884-1-44-2-63-665-57-1087-57-259 0-451 22-16 133-27 267t-16.5 290.5-9 262.5-3 293 1 264.5 4 295 4.5 274.5q347 50 949 50 344 0 624-15zm-1454-142q1-137-2-412t-3-453.5 13.5-421 42.5-438.5q387-41 697-41 369 0 616 59-3 206 6 560t9 652-24 527q-305 29-632 29-456 0-723-61zm278-1018v32q112 100 193 86 27-5 46.5-25t38-49.5 33.5-43.5q12 10 23 27.5t17.5 32 18 41.5 16.5 38q104 230 247 386 143-3 182-75-45-49-92-119t-68.5-108-75.5-138q-22-40-63-123.5t-77-147.5-74-115q-25 2-49.5 18t-38.5 32-38 47-35 43q-54 59-100 98t-104 63z"/><glyph unicode="" horiz-adv-x="2048" d="M28 996q0 115 34.5 236.5t95.5 235 151.5 214.5 197.5 175.5 238 118.5 268 44q140 0 272-38t242-106.5 202.5-165.5 156-212.5 99-250 35.5-274.5q0-167-52.5-316.5t-145-262.5-215.5-196.5-268-126.5-298-43q-183 0-344 49t-282.5 138-209 209.5-132.5 266-45 305.5zm964 903q-180 0-335-74t-261-200-166-296.5-60-361.5q0-170 48.5-306.5t128.5-225.5 190-148.5 227-85 244-25.5q101 0 192 11t182.5 38.5 167 69.5 141.5 108 111.5 150 71.5 199 26 253q0 179-45.5 326.5t-126.5 252-195 176-249.5 105.5-291.5 34zm-216-728q0-52-16.5-92t-44.5-62.5-56.5-35-62.5-17.5q-2-43-.5-153t-4.5-157q-10-8-89-3-6 78-14.5 367t-13.5 382q24 4 58 4 30 0 59-4.5t64-19.5 60.5-39.5 43-68 17.5-101.5zm128 214q56 9 104 9 146 0 214-94.5t68-305.5q0-348-303-348-25 0-54 3-16 254-29 736zm-322-113q0-37 1-87t1-73q46-14 73.5 5.5t27.5 65.5q0 48-24.5 70.5t-78.5 18.5zm441-470q49-1 83.5 17.5t52 54.5 25 77 7.5 94q0 89-38 148.5t-115 59.5q-21 0-41-4 11-87 15.5-231.5t10.5-215.5zm397-136q-19 617-27 715 25-2 111 .5t142-6.5q8-33 8-119-125-7-150-14-5-31-2-60t-1-46q12-6 36.5-7.5t49 0 50.5-.5q-6-18-1.5-51.5t1.5-45.5q-11 1-59-3t-67-2q-1-24 .5-86.5t0-132.5-7.5-143q-16-1-34.5-.5t-33.5 1.5z"/><glyph unicode="" horiz-adv-x="2048" d="M641 1531q-37-77-65-309.5t-39-280.5q30-15 77-15 56 0 159 25-22 71-63.5 286.5t-68.5 293.5zm1089-846q-8 31-18 101t-25.5 107.5-50.5 56.5q-32-147-38-265 26 11 46 11t43.5-5.5 42.5-5.5zm-216-457q-43-17-134-17-60 0-86 13 35 171 204 916 71-9 146-14.5t123-11.5q16-51 62-195t72-228.5 58.5-213 51.5-235.5q-14-14-40.5-17.5t-70-1.5-59.5 1q-16 12-33.5 71t-28.5 111l-11 53q-11 19-47.5 21.5t-73-3-68.5.5q-14-38-27.5-108.5t-37.5-141.5zm-1175-15q-55 5-107 .5t-108.5-1.5-86.5 20q63 309 203 831.5t194 757.5q65 10 144.5 12.5t147 1 161.5 2.5q220-970 295-1604-34-14-82.5-18t-119-2-100.5 1q-29 60-41 162t-24 203-42 160q-19-1-87 1t-120-1.5-68-18.5q-24-60-47.5-129.5t-35-106.5-40-139-36.5-132z"/><glyph unicode="" horiz-adv-x="2048" d="M1660 1621q4-55-43-115.5t-90-60.5q-33 0-71.5 46t-41.5 86q-2-60-9-139t-7-106.5 7-122.5q159-53 241-129 0 40 12 254.5t2 286.5zm-25 256q8 24 22.5 46.5t26 35.5 33 36 31.5 34q19 10 35 10 23 0 36-16.5t13-39.5q0-34-23.5-101.5t-69.5-121.5q-8-77-7.5-334.5t-11.5-345.5q-11-91-31-149.5t-62-110.5q-26-32-63.5-63.5t-64-50.5-78-52.5-71.5-46.5q-3-22-13.5-89.5t-14-92.5-11-85-10-102-5-107-2.5-135h-93q-8 39-10 128.5t-3 168.5-16 154-45 101q-74-25-268-8.5t-253 8.5q-35-31-45-80.5t-8-147.5q0-11-1.5-57t-2-74 3.5-45q14-24 28.5-60t45.5-83q-76 0-106-10-39 111-88 163-8 174-37.5 268.5t-115.5 164.5v208q-35 1-48.5 31t-16.5 87q16 22 34.5 68t32 83.5 40.5 70 62 38.5q11 2 48.5 31.5t74.5 32.5l314 6q314 6 423 21 32 48 41 126t3.5 149-2.5 153 23 133q-10 22-37.5 51.5t-27.5 65.5q0 114 58 114 41 0 84.5-50.5t55.5-120.5q41 6 193-8z"/><glyph unicode="" horiz-adv-x="2048" d="M1459 228q-15-2-80-11t-88-12.5-84.5-11-93-10.5-87.5-8-94-6-86.5-1.5-91 2.5-82.5 8q-38 39-69 92.5t-50.5 101.5-40 122-30.5 122-28 136-27 131q-14 63-28.5 147t-25 152.5-24.5 174-20.5 156.5-20 159.5-15.5 127.5q61 4 273.5-2.5t450-5.5 393.5 25q12 2 51.5 7t54.5 8 48 13.5 69 27.5q49 22 84-21t37-117q4-176-49-721-30-304-56-423-51-238-173-348-8-8-17-15zm-1065 1441q32-110 62-360.5t53-360.5q9-43 28-116t54.5-192.5 84-217 95.5-129.5q94-2 143-2.5t130 6.5 127.5 12.5 134.5 15.5 153 17q44 88 83 263t61.5 366.5 35.5 370.5 8.5 298.5-24.5 127.5q-106-37-228.5-54.5t-244.5-18.5-241.5 1-258.5-3-256-24zm1018-1046q-68-72-179-100.5t-229-17-237 53.5q-32 76-60 168t-42.5 153.5-42.5 190-42 187.5q-25 107-52 286 40 1 264 1.5t386 5.5 353 19q5-108-7-244.5t-26-224-45.5-257-40.5-221.5zm47 866q-78-31-194.5-35t-221.5 7.5-226 13-208-19.5q4-34 31-123.5t16-137.5q30-4 57.5 10.5t59 33.5 63.5 22q59 6 183.5-35t193.5-31q52 8 111 42t113 44q4 37 10.5 97t11.5 112z"/><glyph unicode="" horiz-adv-x="2048" d="M1956 1010q0-197-57.5-368t-166-299.5-276-202.5-375.5-74q-201 0-399.5 63.5t-304.5 157.5q-123 109-205.5 323t-82.5 439q0 138 37.5 261.5t100.5 216 145.5 170 172 129.5 181.5 88 172.5 52.5 145.5 16.5q162 0 337.5-81.5t292.5-193.5q26-25 55.5-60.5t72-103 75-142 56-179.5 23.5-213zm-203-509q87 162 117 255.5t30 230.5q0 132-35 257.5t-96 227-144 186.5-178 142.5-199 89.5-207 32q-124 0-250.5-39.5t-239-116.5-200.5-180.5-139.5-241.5-51.5-289q0-221 82-431t214-313q91-71 276.5-124t364.5-53q458 0 656 367zm-381-246q-89-35-291-35-131 0-270 23.5t-227 72.5q-21 12-47.5 33t-69 63.5-81 105.5-74 143.5-56.5 194.5-21 243q0 124 46.5 240.5t123 204.5 172.5 155 199.5 101.5 198.5 34.5q144 0 290.5-50t262.5-138.5 169-195.5q39-79 73-220.5t34-239.5q0-163-52.5-312t-151.5-261-228-163zm0 78q136 60 237 222t101 333q0 137-49 334.5t-76 250.5q-41 79-144.5 147.5t-225.5 106.5-228 38q-42 0-94.5-11t-117-37.5-127-65-122.5-99.5-105-134.5-72.5-176-27.5-219.5q0-215 89.5-377.5t263-254 409.5-91.5q74 0 112 1t89.5 9 87.5 24zm-333 1150q-37 0-69 35-7 26-7 42 0 46 36.5 70.5t93.5 21.5q32-33 32-74 0-38-25.5-66.5t-60.5-28.5zm-346 58q124 0 110-135-33-41-76-41-39 0-69 30t-30 69q0 44 40 76 9 1 25 1zm594-107q0 64 52 84 42 9 71.5-25t29.5-78q0-34-19.5-57.5t-57.5-23.5q-13 0-35 5-41 33-41 95zm-853-374q-25 31-22.5 93t33.5 85q17 4 37 4 50 0 76.5-31t26.5-74q0-41-22.5-71t-60.5-30q-31 0-68 24zm1106 100q1-3 5-14.5t5.5-15 4.5-14 4-16 3-16 2-18.5-.5-18.5-1.5-21.5q-30-18-61-18-45 0-74.5 38t-20.5 92q20 34 80 34 30 0 54-12zm-655-284q0 54 42 87.5t86 33.5q20 0 35-7 27 36 65 96t63 102l24 42q35 31 63 39 3-14 2.5-32.5t-3.5-34.5l-2-16q-125-209-137-253 17-46 17-74 0-58-40.5-85t-94.5-27q-48 0-84 41t-36 88zm186-40q10 95-78 101-42-14-42-50 0-27 22-50t51-23q26 0 47 22zm-186-247q-11-1-54.5-4t-65-3.5-58 0-67 5.5-58.5 14q1 18 11 28.5t29 14 35 4 42.5-1 38.5-1.5q46 1 145 4.5t181.5 5.5 161.5 2q23 0 66 3t68.5 3.5 57-6.5 52.5-23q-6-14-16.5-23.5t-26.5-13.5-28-5.5-31-2-25-.5q-64-4-222.5 1t-235.5-1zm364-93v-44q-21-1-114-9.5t-146-8.5q-139 0-175 51 88 12 217.5 7.5t217.5 3.5z"/><glyph unicode="" horiz-adv-x="2048" d="M112 1732q3 61 21 90t79.5 47.5 189.5 24.5q3 0 93.5 4.5t186 9 238.5 8.5 265 4q290 0 444-21 224-31 232-190 4-81 43.5-482.5t35.5-606.5q0-20 1-78t-.5-96-6-87.5-18-85.5-35.5-57q-16-16-37-27.5t-50.5-19-53.5-12.5-64.5-7.5-62.5-3.5-68-2-63-2q-636-21-1128-12-118 2-170.5 72.5t-65.5 229.5q-11 120-11 603 0 589 5 697zm1638-46q-1 31-6 48t-20.5 34.5-49.5 25.5-89 9q-275 6-668-11-63-3-287.5 0t-244.5 2q-86-2-134-57t-42-162q3-68 18-615.5t13-601.5q-2-60 59-106t137-51q74-4 536.5 8t675.5 24q46 2 81 15.5t53.5 30.5 30.5 40.5 15.5 38.5 4.5 31q4 57-15.5 358.5t-43.5 619-24 319.5zm-336-11q13 17 73 17 54 0 98-13 61-97 29-188-114-13-135-13-54 0-76 18-18 141 11 179zm-322-19q37 27 99 27 70 0 120-34 31-117 3-175-54-8-108-8-75 0-108 16-15 51-15 92t9 82zm-465 0q1-8 4-28t4-31.5 3-29.5 1.5-30-2-25.5-6-23.5-11.5-16q-34 2-118.5 2.5t-113.5 1.5q-10 105-1 191 68 11 120 11 73 0 120-22zm358-5q24-127 11-168-42-17-125-17-84 0-138 19-13 44-12.5 87t19.5 96q45 8 108 8 104 0 137-25zm472-10q-14-19-18-55t11-58q11-14 117-3 6 27-2.5 60.5t-7.5 48.5q-6 1-50 4t-50 3zm-309-126q24-6 45-6 9 0 76 8 4 21 3.5 31.5t-3.5 37-4 40.5q-11 1-42 3.5t-43.5 2.5-42.5-2q0-8-1-30t-1-34.5 3-28 10-22.5zm-366 4q46-10 88-10 45 0 70 12 5 88-8 103-22 2-73 2.5t-81 3.5q1-19 1-43t.5-39.5 2.5-28.5zm-202 100q-38 7-76 7-41 0-71-9 4-22 2.5-54.5t3.5-41.5q74 2 147 2 8 23 6 53t-12 43zm301-264q-6-46-3-76.5t2.5-60.5-9.5-51q-112-9-213-9-122 0-217 15-7 31-9 60t-2.5 74-1.5 65q189 9 216 9 140 0 237-26zm659 2q2-16 6.5-41.5t7-41.5 2-41.5-7.5-52.5q-48-16-104-16-50 0-79 14-15 70-4 177 10 1 34 5.5t45.5 7 39.5 2.5q37 0 60-13zm-319 2q38-77 26-170-58-8-120-8-101 0-150 18-8 21-6 73.5t-2 76.5q90 16 162 16 43 0 90-6zm-736-38q0-6-1.5-25t-1.5-26 2-23 7-34q55-9 143-9 101 0 189 10 1 14 0 50t0 50q-191 17-215 17-52 0-123-10zm698-8q-30 5-76.5-2.5t-79.5-.5q0-12-1.5-28.5t-1-27 3.5-21.5q57-12 163 8 6 20-1.5 40.5t-6.5 31.5zm318 12q-36 8-98 2-5-21-5-40.5t2.5-42.5 2.5-36q15-1 56 .5t53 1.5q2 36 2 43.5t-5.5 33-7.5 38.5zm-171-275q23-95 20-184-106-24-161-24-49 0-84 14-24 96-7 194 51 20 115 20 66 0 117-20zm-326 4q17-126-3-200-63-5-109-5-80 0-138 13-6 44-10 186 64 20 137 20 61 0 123-14zm414-4q68 17 117 17 51 0 111-15 1-11 4.5-37.5t4.5-38 2.5-33 1.5-41-2-42.5q-38-14-105-14-71 0-125 14-22 134-9 190zm-749-23q5-17 7-41.5t1.5-68.5-.5-57q-68-15-156-15-16 0-34.5.5t-41 1.5-34.5 1q-24 92-8 200 132 12 144 12 81 0 122-33zm933-7q-58 9-139 0-3-25-2.5-36t5-42.5 5.5-47.5q6 0 45-3.5t64.5-3 33.5 8.5q0 77-12 124zm-461-13q2-97 4-109 9 0 36.5-.5t46-.5 38.5 3.5 28 10.5q5 41 4.5 47t-10.5 53q-32 9-65 9-40 0-82-13zm-339 9q2-17 3.5-37t2-30 3-23.5 7.5-26.5q24-1 71.5-4t71.5-4q8 60-6 108-12 9-34.5 13.5t-39 5-46-.5-33.5-1zm-346-5q-10-55 4-115 26-2 80.5-1t79.5-1q10 71-2 111-32 9-74 9t-88-3zm-11-365q-5-33-5-110.5t10-110.5q404-18 645-18 297 0 524 20 4 52 2.5 110t-17.5 92q-133 25-683 25-337 0-476-8zm1225 43q20-48 27.5-156t-6.5-160q-34-6-71.5-11t-66-8-71.5-5.5-65.5-3.5-73.5-1.5-68-.5h-151q-59 0-180.5-1t-191-1-171 3.5-189.5 11.5q-28 252-1 364 69 9 281 9 252 0 564.5-12.5t433.5-27.5z"/><glyph unicode="" horiz-adv-x="2048" d="M1827 1133q-11-87-12.5-233t9.5-256q-26-35-74-43 0-144-24-367-324-179-678-179-85 0-136.5 7.5t-96.5 20-84 17.5q-182 25-253 46-148 44-184 136-11 28-12 72.5t4 86.5 10 98 4 94l-6 1q-7 2-16 6t-19 11.5-18 23-10 37.5q-8 84-10 203.5t5 192.5q2 18 13.5 29t22.5 17.5 12 15.5q3 25 5 53.5t2.5 73.5.5 75v221q0 64 13.5 109.5t50.5 89.5 108 78 180 62q118 31 242 43t242 13.5 147 4.5q70-6 121.5-13.5t106.5-21 93-32 74-46.5 57-65.5 33.5-88 12.5-114.5q0-18-1-110t-1-162.5 2-86.5q1-4 12.5-13.5t24-21.5 21.5-35 6-50zm-562 338q83 2 158 16t137 40 98.5 68.5 36.5 96.5q0 25-9 53t-37.5 63-73 62-123.5 45.5-181 18.5q-203 0-252-4-126-12-242-35.5t-212-56.5-153.5-78.5-57.5-95.5q0-54 53-103t123-75.5 128-26.5q147 0 607 12zm-570 267q10 19 37.5 32t45.5 17 62 12q32 6 62.5 12t42 8.5 34 5 50.5 3 79 .5q78 0 156-15.5t133.5-45.5 55.5-66q0-27-20-47.5t-57-33.5-79.5-22-99.5-13-104-5.5-104-1.5q-64 0-110.5 5.5t-91.5 21.5-68.5 49.5-23.5 83.5zm-109-340q-39 7-74.5 24t-78.5 45-66 40q-26-167-12-424 116-67 303.5-103.5t392.5-36.5q192 0 361 32.5t278 95.5q1 30 7 91t11 112.5 4.5 113.5-10.5 107q-105-61-325-86t-468-25q-237 0-323 14zm849-255q3 38 42 80.5t43 77.5q18-13 20-43t-9.5-58.5-37.5-46.5-58-10zm-983 61q7 7 23 10.5t29.5 4.5 23.5 9 9 25q18 5 28.5-10t20.5-15q-1-29-32-52.5t-63.5-18.5-38.5 47zm534-109q-15 23-9 43t19 30.5 26.5 30 12.5 42.5q22 8 32.5-8t15.5-17q-6-12-16-37t-17-40-23.5-28.5-40.5-15.5zm-303 36q4 16 17.5 28.5t26 20 22 23.5 7.5 38q14 3 21-11t15-14q7-34-12.5-67.5t-46-39.5-50.5 22zm594 110q52-23 30-78-17-43-61-66-39-21-66-2 3 24 21 40t37 23.5 32 28.5 7 54zm-898-935q52-49 143.5-85t191.5-54 184.5-26.5 151.5-8.5q158 0 317 42t286 108q1 9 5 37t5 36.5 4.5 32.5 4.5 34.5 3 31 2.5 33.5 1 31 .5 34-1 33q-303-101-671-101-367 0-615 114-13 5-23-64-18-120 4-207 3-11 6-21zm292-12q4 26 24 61.5t24 47.5q11 2 21-5t16-7q-1-23-19-58t-18-63q-9 3-24 12t-24 12zm473-48q8 10 22 24l23 23 19.5 26.5 11 35-2.5 48.5h36q23-46-4-111-23-54-59-62-24-6-46 16zm279 72q35 73 109 85-17-94-85-109-10 22-24 24zm-498-72q3 25 24.5 60.5t24.5 60.5q15-5 21-21t2.5-34.5-13-35.5-25.5-26-34-4zm-461 48q-12 34 15.5 65t69.5 44q1-15-1-30t-5-23.5-9-22.5l-9-21q-18 5-32.5-4.5t-28.5-7.5z"/><glyph unicode="" horiz-adv-x="2048" d="M1151 1465q8 12 47.5 11.5t50.5-11.5q10-10-6-33t-36-33q-16-9-40 22t-16 44zm-150-142q-13 12-1 39t34 26q38 0 68-35 8-9 12-24.5t0-27-15-11.5q-20 1-53.5 11t-44.5 22zm-263-111q-12 8-6 31t24.5 42.5 30.5 8.5q100-96 65-98-59-4-114 16zm323-68q4 17 61 32.5t67 2.5q10-16-3-66-9-31-17-29-2 0-3 2-5 5-23.5 13t-37 14-32.5 14.5-12 16.5zm-461-99q-13 13-1 40t34 26q38-1 68-35 8-9 12-24.5t0-27-15-11.5q-19 0-53 10.5t-45 21.5zm231-66q-9 15 20.5 66t45.5 49q16-3 40.5-43t8.5-39q-8 0-36.5-12.5t-48-20.5-30.5 0zm530 435q-11 48-25 82t-36 56.5-43 35.5-59 20-69.5 9.5-88.5 3.5q-23-63-83.5-114t-135-86-149-65.5-141-68-95.5-78.5q-70-99-70-204 0-58 24.5-94.5t67.5-36.5q14 0 22 2 3-3 8-9t23-21 38.5-26 53.5-20.5 68-9.5q75 0 156 41 98-24 225-24 52 0 100.5 5.5t103 19 102 38.5 90 60.5 75 89.5 49.5 121q13 39-3.5 81.5t-50 75-69 60-61.5 42.5zm299-606q-58-198-93.5-348.5t-68.5-348.5q-40-1-168-6t-236-8-206-3q-251 0-398 21-24 130-71.5 335t-70.5 319q-45-2-93 39t-76 93-28 86q0 14 1 27t4.5 25.5 6 21.5 9.5 22l10.5 19.5 13.5 21 14 19.5 17.5 22.5 17.5 23.5q-12 21-12 48 0 88 99 180.5t213 92.5q42 0 77-14 92 19 153.5 74.5t81.5 123 11.5 137.5-44.5 123q53 0 112.5-28.5t102-79.5 43.5-107q130-11 240-51t177.5-111.5 55.5-159.5q29-15 63-35t86.5-58 92.5-76 69.5-88.5 29.5-96.5q0-54-31.5-114t-87.5-101.5-117-39.5z"/><glyph unicode="" horiz-adv-x="2048" d="M1045 1811q41-56-2-127t-114-83q-2-23 3-59t-.5-55-30.5-35q-48 15-58 55t9.5 81 53 74 64.5 37q3 17-3.5 33t-13.5 25-6.5 20.5 14.5 22.5q23 15 52 15 8 0 32-4zm336-8q34-78-7-147t-111-80q-3-27 1-51t3.5-41.5-14.5-40.5q-26-6-44.5 9t-37.5 14q-7 178 133 208-8 46-8 67 0 65 56 65 12 0 29-3zm-758-28q11-1 33-2.5t33-2.5q13-29 13.5-57t-7.5-48-25-41.5-32.5-35.5-36-32.5-30.5-28.5q-11-33 12-60t12-60q-27-13-49-13-61 0-61 99 0 5 .5 12.5t.5 10.5q2 26 20.5 50.5t41 45 44 43 31 53.5.5 67zm873-921q-8 27-8 54 0 44 23.5 66t58.5 22q37 0 66-22t29-56q0-44-54-90-6-1-17-1-24 0-56.5 12.5t-41.5 14.5zm-1220 325q18-106 32-176t34-151.5 41-133 51.5-108.5 66.5-90.5 84.5-67 108.5-50 135-27 166-10.5q111 0 192.5 21t126 47 76.5 78 42 83 25 93q8 35 13 51 33-8 69-8 60 0 107 26.5t74 70 41 92 16 99.5q-17 26-65.5 33.5t-103 12.5-78.5 22q-13 22-9.5 43.5t13 34 18.5 36.5 7 52q-156-2-337.5-10.5t-303-16.5-334.5-24-308-22zm1377 217q35-19 42-73t-5-114q22-17 57.5-37t61.5-35.5 52-37 40-51 14-67.5q0-83-41-168.5t-116.5-144-162.5-57.5q-24-125-109-211.5t-205-126.5-268-40q-224 0-394.5 82t-275 229-157 339-52.5 424q181 7 397 19t352.5 20.5 405 26 364.5 23.5z"/><glyph unicode="" horiz-adv-x="2048" d="M1132 2000q-23-212-85-478 46 6 76.5 29.5t42.5 87.5q9 48 26 171.5t28 184.5q-31 0-88 5zm153 34q-15-173-82-500 26 3 132.5 12t186.5 19q17 2 29-3t16.5-18 6.5-26.5 0-35-4.5-36-6.5-35.5q-3-15-4-21-10-6-19.5-8.5t-25-5-26.5-5.5q-7-110-13.5-292.5t-13-301.5-21-265-44.5-269-77-228q-186-24-331-24-108 0-208 13-28 118-51.5 243.5t-44 275-33 247.5-33 281-28.5 254q-50 12-79.5 48.5t-34.5 81.5 1 94q47 0 209.5-7t284.5-4q29 60 49 133.5t27.5 125 18 143 17.5 136.5q124 5 202-22zm237-511q-97-30-321-41.5t-429-11.5-220-2q4-45 22-79t46-34q216-4 473.5 11.5t431.5 55.5q8 26 7 62.5t-10 38.5zm-125-745q18 82 23 303t-4 279q-119-33-355-44-66-3-209.5-5.5t-203.5-7.5q8-163 31-234 68-29 213.5-101t262.5-118 242-72zm-673-124q14-119 52.5-326.5t48.5-267.5q278-1 460 22 67 128 56 281-162 44-304.5 115t-312.5 176z"/><glyph unicode="" horiz-adv-x="2048" d="M1670 1911q59-417 0-883.5t-200-838.5q-167-82-423-82-238 0-378 75-24 110-88 383.5t-101 444-77 425.5-53 473q148 30 367.5 33t413.5-10q416-20 539-20zm-1192-97q72-725 210-1305 55-224 119-251 107-24 260-24 198 0 331 36 60 104 101 361.5t53 513 6.5 458-28.5 214.5q-175-15-515-6-394 11-537 3zm873-1368q-19-25-93-44t-159-19q-175 0-243 80-29 34-52 89t-41 133-29 137.5-26.5 157-22.5 137.5q-88 490-96 544 171 34 426 34 190 0 417-17-28-1161-81-1232zm21 1176q-81 3-184 15t-196 9q-45-2-100.5-5.5t-128.5-14.5-91-25q5-28 17-136t26-164q42-1 85.5 13t74 31 70.5 32 77 16q36 2 82.5-13.5t81.5-31 85.5-21.5 93.5 15q5 94 7 280zm-181-367q-72 51-161 51-35 0-76.5-9t-71-18.5-78.5-27.5-73-26q2-28 5.5-57t11-65.5 12.5-60 16-71.5 16-68q7-33 18.5-111t24.5-130.5 34-80.5q64-85 208-85 111 0 226 47 51 259 44 712-22 0-49.5-2.5t-49.5-2-57 4.5z"/><glyph unicode="" horiz-adv-x="2048" d="M1103 1961q2-19-14.5-35.5t-37.5-17.5q-20 0-35 24t-12 41q3 29 45 33 22 3 37-10.5t17-34.5zm-177-91q24 0 43-22.5t16-40.5q-6-27-23.5-41t-41.5-13q-20 1-31.5 19t-10.5 36q1 21 13 41.5t35 20.5zm74-185q-2 18 11.5 35t36.5 19q26 2 46-11.5t21-39.5-19-43-41-18q-18-1-35.5 19.5t-19.5 38.5zm275-217q-215 10-478-2-7-10-59-47t-59-50q22 0 135-8t175-3q279 22 371 37-10 12-44.5 37t-40.5 36zm100-113q-272-48-400-53-156-7-324 26-3-79 5-193 59-33 315.5-116t414.5-117q2 68-1.5 241.5t-9.5 211.5zm-711-716q14-201 14-418 0-7 2-14t4.5-12.5 8.5-12.5 9.5-11.5 12-11.5 12.5-10.5 13.5-10 12.5-8.5 13-8.5 11-7.5q112-3 171-3t199 2.5 206 2.5q38 30 53.5 54t16.5 67q2 74-19 148-123 50-378 123.5t-362 130.5zm566-426q54 5 76.5 1t25.5-28q-29-5-56.5-9t-59-5.5l-52.5-2.5-64-2-66-2q-4 0-25-1t-28.5-1-28-.5-30 0-28.5 1-29.5 2.5-26 4.5-25.5 6-20.5 9-18.5 11.5q1 13 6 18.5t10.5 5 19-2.5 23.5-2q27 0 192.5-4.5t204.5 1.5zm-339 1308q-16 22-46.5 57.5t-42.5 51.5q0 4 2.5 6.5t8.5 5.5 10 8q27-10 68-63t62-64q66-1 159.5-.5t168.5-1.5q113-113 169-150-4-111-5-217.5t3.5-252.5 6.5-208.5 11-265 11-243.5q-8-13-21.5-34.5t-18-29-15.5-21-22.5-24-28.5-24.5q-83 1-213.5-4t-201-5.5-201.5 9.5q-29 18-76 59t-69 56q-10 173-17 610.5t-22 575.5q21 18 63.5 48t75.5 57.5 52 58.5q64 0 129 5z"/><glyph unicode="" horiz-adv-x="2048" d="M1327 2053q22-1 46-1t33-.5 22.5-3 25.5-9 31-19.5q-23-61-47.5-120t-42-96.5-47-101.5-47.5-103l-181-442q20-45 79-155t76-143l389-734q-40-29-105-60t-115-37q-79 173-217 460.5t-211 448.5q-52-134-192-445t-207-498q-82 22-233 97 27 62 69.5 142t55.5 106q37 77 117.5 248t146.5 306.5 126 250.5q-21 67-53.5 141t-56.5 121.5-71 134-66 123.5q-12 24-37 82t-41 87q-15 27-42 77t-49 91q8 33 41.5 43.5t88.5 8.5q70-109 194-349t196-352q111 210 187 371t137 330z"/><glyph unicode="" horiz-adv-x="2048" d="M1462 630q41 1 122 3.5t116 2.5q106 0 199-31.5t93-67.5q0-22-27-38t-62-19l-467-17q-93-13-273-40t-284.5-41.5-245-27.5-251.5-13q-145 0-265 20-61 228-61 451 0 130 22 244t68 212 124 165.5 183 92.5q-3 51 30.5 107.5t37.5 71.5q162 18 201-112 84 18 155 18 283 0 420-278 81-164 133-492 8-47 21-139 7-48 11-72zm-605 828q62-119 115.5-282.5t82-285.5 71.5-328q21 1 71-1t81.5 2.5 48.5 21.5q-7 44-18 115.5t-18 118-19.5 113-24.5 111.5-31.5 101-41.5 94-54 79-69.5 67-86.5 46-107 28zm-292-44q-44-42-68-119t-29.5-151.5-14-174.5-22.5-160q42 1 59-30.5t12.5-77-6.5-96 2-87.5h224q0 89-20.5 201t-44.5 202.5-39.5 218.5-7.5 251q-8 27-45 23zm112 0q9-108 36.5-234.5t54-220 47-214 19.5-227.5q21-7 44.5-4t35.5 4.5 29.5 11 25 15 22.5 17.5q-11 51-27.5 137t-28 142.5-29.5 133-38 132.5-47 115.5-63.5 107-80.5 84.5zm-291-68q-71-37-119.5-125t-58.5-195 21-217h135q-11 68-5.5 151.5t17.5 144 17 130-7 111.5z"/><glyph unicode="" horiz-adv-x="2048" d="M1422 748q-6 28-17 84t-17 87-18.5 80.5-24 80-30 69.5-39 64.5-49.5 49.5-64 39q-42-130-222-185-29 8-54 26t-44 39-38.5 41.5-46 37-57.5 22.5q-15-56-52-177.5t-60-218-35-194.5q185 0 451.5 27.5t416.5 27.5zm-278 757q51-21 94.5-54.5t75.5-69 62.5-88.5 50-95 42-109 35-109.5 33.5-117.5 32-114q46-3 89 8t61.5 21.5 58.5 36.5q9 5 13 8 22 14 45.5 38t42.5 46 40.5 43.5 50 37 61.5 20.5q14-65-38.5-153.5t-140.5-160-172-93.5q-45-11-99-11t-124 5.5-109 5.5q-104 0-373.5-27.5t-363.5-27.5q-103 0-193.5 13t-170.5 43.5-134 76.5-80.5 116-14.5 157q37-39 46-48.5t44.5-43 52-45 52-35.5 63.5-34 67-20.5 81-13.5q22 71 51 199t50 212 67 178.5 109 149.5q146-30 240-148 64 28 109.5 78t93.5 125z"/><glyph unicode="" horiz-adv-x="2048" d="M942 1844q24-107 31-243.5t5-241.5 12-233.5 50-231.5q64-31 152-48.5t154.5-24.5 140.5-37 126-87q92-101 92-235 0-131-88-226.5t-233-95.5q-34 0-75.5 14.5t-102.5 44-84 39.5q-290 123-406 183-179 93-289 192-8 73-29.5 238t-32 271-18.5 250.5 4 272 42 240.5q143 23 243 23 175 0 306-64zm-495-42q-48-391 25-916 287-40 306-402 455-252 595-275 79-13 132.5 25t70.5 88q-63 16-106 58t-60 99-15.5 122 22.5 129q-75 6-144.5 20.5t-168.5 42-130 35.5q-40 83-58 213.5t-18.5 249.5-8.5 264-29 240q-128 26-245 26-95 0-168-19zm155-108q12-86 25-271.5t21-328.5l7-142q-16 1-68 12-19 212-25 344.5t-9 387.5q8 0 24-1t25-1zm127-446q-1 85-14 215.5t-10 217.5q42-3 58-19 3-70 7-128t12-143.5 13-153.5q1-16 9-89.5t14.5-149 6.5-119.5l-73 17q-4 36-13.5 179.5t-9.5 172.5z"/><glyph unicode="" horiz-adv-x="2048" d="M1032 2072q42-71 95.5-127t105-92.5 119-63.5 120-40.5 126.5-23 121-11.5 121-5 109-5q26-331-82-665t-303-615q-54-78-184-190.5t-240-188.5-125-68q-105 51-192.5 100.5t-170 106.5-148.5 117.5-125 132-103 150-79.5 171-57 196.5-33.5 224.5-11.5 257.5 12.5 293q161-13 300-3.5t252 43.5 207.5 110 165.5 196zm-804-875q5-273 206-546.5t585-523.5q149 95 273.5 217.5t203.5 235 138.5 231.5 87.5 204 41 156q-822 30-1174 30-196 0-361-4z"/><glyph unicode="" horiz-adv-x="2048" d="M2032 1092q0-71 2-215.5t2-223.5-6.5-188.5-21.5-197.5q-24-17-87.5-50t-91.5-57q-191 0-632.5-19t-634.5-17q-129 1-251 25.5t-167 81.5q-56 71-90 284t-42 409q-2 60 5 181.5t7 177.5q0 57-5 155.5t-5.5 152 13 125 45.5 129.5q76 38 176 53t193 12 203-2.5 205 8.5q70 10 188.5 8t210-8.5 214-14.5 200.5-9q25 0 87 4.5t105.5 2 82.5-17.5q25-22 43-56.5t26.5-59 14.5-79 7-71.5 4-81q3-61 3-134.5t-1.5-166-1.5-141.5zm-246 687q-58 4-119 6t-104 1.5-127.5-1-144.5-.5q-157 0-394.5 3t-392.5 3-265-6q-43 4-64.5-14.5t-21.5-53.5q0-128 3-195 5-142 5.5-430.5t6.5-406.5q14-301 48-358 39-69 71-72 576-26 770-27 417-2 780 52 35 2 62 28t32 58q9 62 10.5 130t-1.5 178.5-3 154.5q0 34 1.5 156.5t-1.5 142.5q-1 16-5 133.5t-11 236.5-18 193q-2 41-37 63t-80 25zm-748-1140q4 190 2.5 297.5t-5 231-3.5 162.5q0 102 5.5 184.5t14.5 82.5q14-41 19.5-87t5-90.5-.5-100.5q-1-60 5.5-333t6.5-312q0-13 1-72.5t0-82-7-65.5-18-79q-12 56-19.5 138.5t-6.5 125.5zm754 429q-20-18-38.5-23t-49.5-6.5-55-6.5q3-39 10-95.5t10.5-88.5 6-86-2.5-89q-16-2-84.5-17t-101.5-15q-56 0-89 32 1 26 1.5 50.5t-1 51-2.5 44-4.5 48-5 41.5-6.5 46l-6 42q-35 5-81.5 5t-74.5 7q36 72 119 208t120 210h24q207-156 311-358zm-1360 350q31 1 85 4.5t80 4.5 65-5 74-21q1-36 6-114.5t6-114-3-92.5q86-18 148-15-14-58-42.5-121t-47-96-64.5-103.5-54-83.5q-19-32-29.5-36.5t-30.5 13.5q-37 31-97 94.5t-82 84.5q-33 31-50 48.5t-46 52-44 68-19 68.5q20 7 45.5 7t60.5-3.5 56-3.5q-2 44-4 118t-5 131.5-8 114.5z"/><glyph unicode="" horiz-adv-x="2048" d="M1966 1260q-26-68-79.5-114.5t-102.5-52.5q-43-6-120.5-15.5t-103.5-12.5q4-14 9.5-26.5t12-24 9.5-17.5q107-61 107-135 0-45-29-71t-80-26q-64 0-121.5 41.5t-57.5 92.5q0 45 50 81-3 39-15 53.5t-32 16.5q-226 12-447-2-21-1-68.5-2t-69-3-54-8-54-19.5-38.5-35.5q30-18 48.5-52t18.5-69q0-47-39-75t-98-28q-80 0-131.5 47t-26.5 135q6 14 22.5 24t31.5 15.5 26.5 16 10.5 25.5q-5 0-162 11-65 4-113 24.5t-103 61.5q-18 12-42.5 41t-39.5 70q-10 26-3 45.5t30 19.5q15 0 30.5-17t33-41.5 29.5-34.5q23-18 77-43.5t82-31.5q44-9 105-11.5t105.5-.5 123 7 111.5 7q56 3 241.5 8t355.5 9 176 4q61 1 93 3t74.5 9 66.5 19 47.5 34 38.5 55q10 23 39 23 16 0 24.5-7.5t.5-22.5zm-422-304q-38 0-62.5-18.5t-24.5-44.5q0-32 32-52.5t73-20.5q50 0 80 31 0 10 1 31t1 31q-32 43-100 43zm-1038-90q0-31 28-51.5t68-20.5q39 0 65.5 21.5t26.5 63.5q0 22-7 46-26 26-72 26-43 0-76-23.5t-33-61.5zm1069 63q21-27 21-52 0-6-2-18-16-9-31-9-22 0-38 16.5t-16 34.5q0 31 41 31 12 0 25-3zm-952-98q-66 3-74 71 13 12 31 12 32 0 49-29t-6-54z"/><glyph unicode="" horiz-adv-x="2048" d="M121 778q-34 482-36 676-3 226 20 372-1 38 32 50 169 9 318.5-9t320.5-57q88-142 209-235t299-142q62-17 171.5-35.5t175-40.5 113.5-67q62-58 84.5-142.5t31.5-247.5q-5-94-14-114-7-13-20-17-297-39-526-61t-451-22q-415 0-728 92zm49 983q-5-122-.5-274.5t18-368.5 15.5-258q183-50 348-66t402-16h165l80.5 1 86 2.5 80 4.5 85 7.5 78 11.5 81 16 72.5 21 74 27q0 158-16 252.5t-67 117.5q-55 22-137 40t-179 34-124 22q-44-157-160-250-11 5-66 37 6 9 20 31.5t18.5 30 15.5 26 15 27.5 12 25.5 11.5 28 8.5 27.5 8 32 5 34q-53 26-80.5 33.5t-82.5 13.5q-102-192-156-237-13 9-43 22t-42 21q23 29 59 69t50.5 59.5 25.5 54.5 7 79q-4 43-63 104.5t-117 91.5q-60 31-147.5 41t-194 12.5-166.5 12.5zm1659-1034q18-10 34-21t25.5-18 35-27 40.5-32q-2-27-59-70t-146-71q-6 16-38.5 88t-44.5 117q-1 5 12 11.5t33 12 42.5 9.5 40 4 25.5-3zm-1114-324q0-110-63.5-171.5t-159.5-61.5q-113 0-200.5 81.5t-87.5 197.5q0 65 32 132 85 78 197 78t197-74.5 85-181.5zm471-35q0 102 65.5 184.5t168.5 82.5q45 0 97.5-29.5t90.5-82.5 38-110q0-97-54-160.5t-148-63.5q-106 0-182 45t-76 134zm334 24q0 42-28 73t-66 31q-39 0-66.5-28.5t-27.5-67.5q0-37 32-63t66-26q36 0 63 20.5t27 60.5zm-946 8q0 33-28.5 60.5t-70.5 27.5q-45 0-69.5-22.5t-24.5-63.5q0-38 26-58.5t62-20.5q37 0 71 23t34 54z"/><glyph unicode="" horiz-adv-x="2048" d="M917 1874q-105-311-167-426-14 2-32 4t-25 3.5-21.5 5-34.5 10.5q20 67 44 130.5t40.5 102.5 45 102.5 43.5 97.5q44 1 68.5-4.5t38.5-25.5zm83-35q7 3 24 11.5t27 12.5 27 7.5 35 2.5q28-34 82.5-121t76.5-117q4-5 18-23t23.5-31 22-32.5 15-34-.5-28-20-22-47-10.5q-27-2-52.5 15t-47 48-38 61.5-35.5 68.5-31 56q-12 19-35.5 47t-34.5 48-9 41zm-419-451q29 2 49.5-3.5t30-13 27.5-25.5q-3-39-63.5-198.5t-83.5-198.5q-35-4-73 7t-59 27q24 100 92.5 239t79.5 166zm861-93q3-5 22.5-32t28.5-40 27.5-40.5 29-46 23-42.5 19.5-44.5 9-38.5q-41-60-125-45-17 39-53 91t-63.5 90.5-47.5 94-17 110.5q32 13 49 18t33.5-3 24-17 29.5-40q7-10 11-15zm-1111-408q74 7 119-28-24-114-66-239t-87-209q-21 0-75 4t-75 4q37 98 98 250.5t86 217.5zm1315-52q24-51 75-125.5t88.5-145 52.5-148.5q-18-7-64-3t-72 3q-21 39-69 119.5t-81 145-55 132.5q23 23 55.5 30.5t69.5-8.5zm-240-539q237 33 478 0 11-19 14-40t1.5-40 1.5-48q-52-8-239.5-9.5t-246.5-7.5q-9 38-9 145zm-1242-5q91 14 166 14.5t166-5.5 152-6q9-11 14-22.5t5.5-27.5 0-24.5-4-31.5-4.5-30q-36-6-79-9t-74.5-4.5-86.5-1-78 1-89 3-80 2.5q1 82-8 141zm615 13q57 2 242-1.5t248 1.5q7-7 11.5-19t6-29.5 1.5-30.5-.5-34-.5-28q-300-19-512 0 0 13 4.5 72.5t-.5 68.5z"/><glyph unicode="" horiz-adv-x="2048" d="M775 440q16-18-.5-57t-32.5-77.5-1-54.5q20 15 48.5 42t50.5 46 52.5 37.5 70 26 87.5 3.5q7-17 19.5-60.5t27-70.5 39.5-41q9 21 19.5 58t19 63 22.5 53.5 37.5 44 55.5 21.5q51-28 77.5-42t73-32.5 90.5-28.5q-8 44-36 90.5t-49 94-18 107.5q44-5 81.5 5t60.5 25 58.5 27.5 74.5 11.5q-8 32-30 58.5t-46 45.5-47 40.5-37 54.5-12 76q20 32 67.5 53t93 43.5 62.5 58.5q-29 13-125 35.5t-133 50.5q-1 44 16 79t39 54.5 47 48.5 36 58q-36 2-124-11t-154.5-10.5-99.5 38.5q2 32 17.5 97.5t14 111.5-31.5 84q-149-129-326-241-23 21-68 71.5t-77 83-78 60-87 26.5q4-24 24-107.5t28-133.5q-20-16-44.5-23t-57.5-5-54.5 5-63 11.5-55.5 11.5q5-29 26.5-50.5t44.5-33 43-34.5 23-54q-3-34-24.5-53.5t-53.5-27-65.5-12-65.5-15-48-29.5q20-13 72-44t78.5-49.5 59-54 47.5-76.5q-13-33-44.5-58.5t-64-39-66-37.5-48.5-54q22-11 66.5-26t72.5-25.5 53.5-37 30.5-65.5q-23-44-85-125.5t-87-132.5q17 3 73 16.5t94.5 20.5 90 12 91-3 64.5-29zm-258 1220q17 28 18.5 69.5t-4.5 80.5-10 77.5 6.5 69.5 41.5 47q230-174 378-292 44 16 90.5 52.5t83.5 72.5 76.5 68.5 85 46 93.5.5q8-14 13.5-29.5t7.5-35.5 4-35.5.5-41-2.5-39-5-43-5.5-40-6.5-42.5-6-38q42-18 101.5-16t111.5 13 112.5 5.5 104.5-36.5q-4-43-24.5-79t-44.5-58-49.5-54.5-36.5-66.5q32-22 98-38t119.5-37 74.5-62q-25-49-71.5-86t-109.5-74-94-63q18-33 58-71.5t75.5-66.5 63-65.5 27.5-71.5q-24-23-70.5-36.5t-90-18-91.5-16-75-32.5q2-43 22.5-91.5t40.5-81 31-80.5-8-91q-53-3-100.5 11.5t-78.5 33-79.5 32-102.5 9.5q-37-33-60.5-138t-42.5-137q-46-3-77 14t-47.5 46.5-30 61-34.5 60.5-51 41q-60-31-157-111.5t-153-111.5q-28 6-47 17t-29 28.5-15 35.5-4.5 45.5 2 50 4.5 57 4 58.5q-27 10-98-5.5t-128-26.5-118 15q7 54 29.5 104.5t47 83 59 77.5 53.5 78q-26 35-82 55t-117.5 38-92.5 45q8 45 39 78t65.5 48 80.5 37 72 43q-10 30-40 56.5t-64.5 46-67 40.5-52.5 50-16 65q3 27 22 48t41 31.5 62 27.5 64 30q-1 12-18.5 37.5t-37.5 54.5-36 62.5-11.5 70 34.5 67.5q33-1 119.5-22.5t155.5-11.5z"/><glyph unicode="" horiz-adv-x="2048" d="M414 1735q38-36 73.5-91t73-122.5 60.5-101.5q4-5 23-33t25-37 23.5-35.5 25.5-41 23-40 24-45 20-45 20-49.5q-79-31-238-41 6-91 5-246.5t7-178.5q93-10 177-13t155-1.5 184-.5q3-32 0-282-179-18-337-18-135 0-482 27-7 86-6.5 343t-16.5 349q-45 7-109.5 14t-107.5 11l-42 4q-4 24 38 95.5t98 152.5 66 100q53 98 114 189.5t104 136.5zm607-338q0 37-.5 81t-.5 60 2 46.5 8 76.5q89 5 197.5 6t187-1 189-4.5 159.5-3.5q21-139 25.5-370.5t-7.5-377.5q188-16 273-27-6-54-90-182.5t-184-242.5-148-132q-78 49-200 224.5t-178 343.5q18 8 109 11.5t124 10.5q5 72 3 227.5t3 226.5q-105 8-251 15t-221 12z"/><glyph unicode="" horiz-adv-x="2048" d="M1506 1849v-247q-56 0-88.5-1t-72.5-5-63-12-45-22-32.5-36-13.5-52q-5-46-5.5-66t.5-30 5.5-43.5 7.5-82.5q43-1 191.5.5t201.5-8.5q37-62 38.5-158.5t-30.5-183.5q-69-15-196-8t-196-9q2-48 6.5-138.5t8-165.5 6-163.5 2-172.5-5.5-153q-80-5-214.5 1.5t-169.5 6.5q-19 141-23.5 404t-10.5 354q-48 20-194 16t-190 20q-17 138 8 315 57 4 170-4.5t197-3.5q3 56 5 136t3 136.5 5 124 12.5 115 23 92 38.5 73 58 40.5q112 41 210 41 159 0 353-110z"/><glyph unicode="" horiz-adv-x="2048" d="M865 1467q30-57 43-86 7-15 36.5-42t55.5-47l26-19q39 45 39 82 0 9-6 18.5t-17 18-24 16-30 15-31.5 13.5-31.5 12-27 9-22 7zm621-200q26 0 56 19.5t30 65.5q0 36-16 63.5t-55 27.5q-48 0-69-29t-21-70q0-25 27-51t48-26zm146-415q0 24-34 69t-89 45q-44 0-93.5-30t-89.5-77-70-105-35-114.5 16-105.5q58 4 154.5 68.5t168.5 139.5 72 110zm-1586-51q38-3 168.5-38t215.5-35q54 0 102.5 14.5t98 48.5 72 53 72.5 64q-33 54-66 99t-70.5 82-65.5 62-71.5 54-65.5 42.5-71 41.5q3 17 10.5 26.5t23.5 13 28 3.5 38-1.5 39-1.5q12 4 10 12.5t-12.5 19-20.5 25-15 31 4 35.5q32-14 52-18.5t48.5-4.5 47.5-2q-6 26-8.5 36t-7 21.5-7 14.5-11.5 17.5-18 28.5q37 1 72.5-13t59.5-33 56-42 57-34q17 5 8 28t-19.5 43.5 11.5 35.5q114-27 284-89 16 16 51.5 53.5t58.5 61 60 55.5 67.5 51 69.5 32.5 77 13.5q50 0 94.5-20t76-48.5 63-75.5 50-84 43.5-92q20-16 57.5-30.5t65.5-24.5 50.5-36.5 22.5-68.5q-24-18-89-35.5t-89-35.5q-27-165-102.5-311.5t-189.5-260-273.5-179.5-341.5-66q-120 0-256.5 35.5t-241.5 84.5-174 88-92 58q-36 29-68 87.5t-39 107.5z"/><glyph unicode="" horiz-adv-x="2048" d="M367 1546q76 20 130 47.5t90 73.5q23 30 35.5 71t14.5 71.5 3 87.5 3 84q101 37 354 37 98 0 144-21t64-87q1-3 2-95t11-110q44-3 92-2t88 3.5 78.5-8.5 63.5-39q30-35 41-192 1-18 6-62.5t6-66 .5-55.5-8-62-20.5-55q-26-31-71-46.5t-85.5-18.5-110.5-4h-23q8-199 22-298 21 4 37.5 18t29.5 30 29.5 32 45.5 26.5 69 10.5q52 0 89.5-33.5t56-90.5 26-117 7.5-129q0-94-22-171.5t-57-129.5-83.5-92.5-96.5-63-101-36.5-92.5-18.5-75.5-4.5q-73 0-138.5 15t-134 56.5-121 107-92.5 174-55 249.5q-28 271-32 456-26 1-58.5 1.5t-61.5 1-55.5 11-40.5 31.5q-1 42-5.5 145.5t-4 138 6.5 129.5zm182-290q36-4 131.5 3t115.5-1q0-118 30-424t62-403q22-67 92-105.5t159-38.5q43 0 86 12.5t69.5 26 72.5 39.5q9 5 14 8 55 30 75.5 58t21 74-13.5 118q-35-38-83-59.5t-98-21.5q-44 0-77 15t-55.5 49.5-36.5 77.5-21.5 111.5-10 139.5-2.5 173q0 15-1 42.5t-1.5 44 2 37 8.5 34.5q60-2 170 8t148 9q-2 13-8 83.5t-17 108.5q-236-5-334 0-11 66-13.5 173t-11.5 170q-41-3-113 2.5t-88-2.5q2-39 2-69.5t-.5-52.5-6-44l-8.5-34-14.5-33.5-17-31-22.5-36.5q-63-103-213-96 1-7 0-77t8-88z"/><glyph unicode="" horiz-adv-x="2048" d="M1005 0q-210 0-379 48t-287.5 135.5-198 213-116.5 277.5-37 333q0 137 15 253.5t49 224 88 193 134.5 156 185 117.5 243 72.5 305.5 25.5q177 0 323-28.5t254-79 190.5-126.5 136.5-165 88-200.5 48-227.5 14-251q0-186-34.5-334t-113-269-200.5-201-300-123.5-408-43.5zm962 1002q0 478-248.5 721t-705.5 243q-191 0-344.5-45t-261.5-127-181-200.5-107-262.5-35-316q-1-213 61.5-381t187.5-288 320.5-183.5 452.5-63.5q189 0 335.5 42t245 118.5 162 190 91 249 27.5 303.5zm-229-55q1 10 7.5 86.5t10 135.5 2 143.5-11.5 146.5q41-26 88-170t47-327q0-103-18-201t-67.5-198-124.5-157q2 19 31.5 229t35.5 312zm-1445 438v28q87 198 289 324.5t445 126.5q121 0 236-32t192.5-78 128.5-91.5 64-79.5q-60-11-97.5-49.5t-37.5-93.5q0-75 45.5-121t106.5-46q-18-427-45-684-33 57-100.5 172.5t-107 184-91 164.5-88.5 175q10 1 67 2.5t75 5.5q5 54 3 95-341 0-500-3 4-16 9-47.5t8-41.5q116-20 187-9 11-21 45.5-99.5t57.5-119.5q-21-40-151-306t-204-386q-57 117-123 296t-103 262q-29 64-69 179t-57 160q147 6 222 12 2 13-3.5 46t-5.5 36q-51-1-118.5 2t-155 8.5-124.5 7.5zm-25-127q117-232 181-377 4-10 129-290.5t155-353.5q-262 73-386 261.5t-124 504.5q0 172 45 255zm970-278q6-11 117.5-189.5t186-302 78.5-142.5q-86-89-219.5-138.5t-283.5-49.5q-115 0-231 32 14 33 39 95.5t43.5 106 44.5 94.5q30 61 101.5 234t123.5 260z"/><glyph unicode="" horiz-adv-x="2048" d="M141 1721q0 22 12 39.5t37.5 29.5 52 21 70 14 75.5 8.5 85.5 4 83 1 83.5 0 73-.5q271 0 560-15 76-3 139-53t72-117q6-45 6-142t5-160q99-16 181-21t218-1q18-221 14-513t-26-381q-12-48-29.5-82.5t-47-64.5-75-48-108.5-23q-81-7-400-7-275 0-565.5 5t-327.5 10q-27 4-45 10t-41 23.5-38 45.5-28 79-19 121q-7 89-11.5 231t-5.5 304-1 287 .5 257.5.5 137.5zm404-227q-23 1-39.5-13.5t-21.5-37-2.5-45 18.5-39.5 40-19q162-11 429-11 107 0 139 5 30 6 41.5 46t-5 77.5-53.5 37.5q-22 0-163-1.5t-225.5-2-157.5 2.5zm74-626q-33 0-46-41.5t7-84 68-45.5q204-12 654-12 33 0 51.5 24.5t19 55-17 58.5-47.5 33q-69 12-689 12z"/><glyph unicode="" horiz-adv-x="2048" d="M1223 954q190 314 272 580-30 5-52-3t-33-21.5-27-27-35-19-57 2.5q-3 56 14.5 101.5t49 75.5 73.5 51 87.5 30 93.5 9q115 0 175-50t60-142q0-87-45-213t-122-266.5-159-270.5-176-262q-14-20-34.5-54t-35.5-57-35.5-48-45.5-41-54-22q-56 38-136.5 166t-140.5 250-126 263-74 156q-12 24-36 77t-39.5 84.5-45.5 69-66 59.5q-44 0-73-11.5t-44-28-47.5-45.5-73.5-52q-31 56-31 120 0 78 36.5 143t91.5 103.5 114 59 111 20.5q66 0 130.5-29t117.5-73.5 107.5-114.5 94.5-133.5 84-150.5 71-147 61-139z"/><glyph unicode="" horiz-adv-x="2048" d="M1578 517q-154 0-274 71t-184 191.5-64 268.5q0 134 74 246.5t192.5 174.5 251.5 62q127 0 239.5-74t179-197.5 66.5-263.5q0-130-59-238.5t-170-174.5-252-66zm-1152 21q-200 0-318.5 133.5t-118.5 365.5q0 122 66.5 231t181 175 246.5 66q130 0 227.5-74t146-191 48.5-256q0-89-28.5-167.5t-85-143-150.5-102-215-37.5zm731 470q0-189 105-290.5t301-101.5q194 0 307 97t113 271q0 190-130.5 314.5t-329.5 124.5q-87 0-158.5-36.5t-116-96.5-68-133-23.5-149z"/><glyph unicode="" horiz-adv-x="2048" d="M697 1984q35-25 182.5-120t160.5-104q101 61 230 172l12 11q12 11 19 17l21 18 24.5 19.5 23 16 23.5 12.5 19 4q43 2 97.5-28.5t125.5-86 88-66.5q6-4 32-20.5t30.5-19.5 26-17 26.5-17.5 22.5-15.5 24.5-17.5 22-16.5 25.5-20 24.5-20.5 28-23.5q-36-42-147.5-154t-159.5-178q29-20 120-82.5t153-106.5 120-88q1-17-7.5-29.5t-28-29-26.5-23.5q-53-55-165-144-35-29-104-78.5t-102-75.5q-10-8-35.5-30t-38.5-31-34.5-22-42-17-44.5-3q-47 31-186.5 139.5t-222.5 151.5q-60-36-127-78.5t-161.5-105-123.5-81.5q-30 16-278.5 200t-334.5 241q71 65 332 274-24 21-364 313 47 48 127 112.5t196.5 151.5 140.5 106q42 33 75 44.5t78 0 103-53.5zm905-655q-61 61-216 167t-232 154q-36 22-74.5 27t-67.5 0-67-26-57.5-34.5-56.5-43.5-47-37q-29-22-100-69t-119.5-83.5-68.5-63.5q192-179 544-383 312 226 562 392zm-1271-812q-6 31-13.5 101.5t-14.5 101.5q77-40 165-108t141-95q13 5 26 10.5t27 13.5 23.5 13 26.5 15.5 23.5 14 25.5 16.5 23 16 26.5 18 24.5 17q32 22 95 69.5t100 72.5q307-252 423-338 32 24 101.5 71t104.5 73q17 13 62.5 49t77.5 60 58 40l3-130q-25-30-102-86t-89-66q-205-178-629-461-274 187-297 203-51 36-150.5 111.5t-175.5 134-86 63.5z"/><glyph unicode="" horiz-adv-x="2048" d="M1080 120q-205 0-376 71.5t-284.5 195.5-176 290-62.5 355q0 158 46 301t125 249.5 181 185.5 216.5 119 228.5 40q183 0 347.5-74t283.5-199.5 188.5-300 69.5-367.5q0-129-28.5-251t-91-234.5-152.5-196.5-222.5-134-292.5-50zm29 1162q130 68 226 145t158 180q-84 90-213.5 152.5t-267.5 62.5q-80 0-155-23 143-306 252-517zm-754-104q117-54 316-40.5t290 84.5q-30 65-103 245.5t-119 272.5q-311-152-384-562zm798 15q7-32 31-97t33-122q286 104 513 30 7 146-43 277.5t-134 221.5q-22-22-67.5-71t-73.5-76.5-71-63.5-89-60-99-39zm-680-651q23 30 49 58t59 55 59 48 68.5 47 67 41 74 41 70.5 37 76.5 38.5 71.5 35.5q-36 123-48 161-65-21-121-36t-128-29-138-20-143-4-150 15q-5-335 133-488zm887-222q306 191 360 556-84 56-248.5 47t-229.5-70q33-78 60.5-267.5t57.5-265.5zm-562 341q-56-43-148-127.5t-88-109.5q3-24 78.5-79.5t129.5-79.5q88-39 184-39 88 0 199 35 6 38 8.5 78t-1.5 87-6.5 79-12.5 87.5-14 76.5-17.5 82.5-15.5 71.5q-162-62-296-162z"/><glyph unicode="" horiz-adv-x="2048" d="M1323 1069q-45 6-68 37t-23 73q0 48 26 86.5t65 38.5q33 0 52-23.5t19-61.5q0-46-22-92t-49-58zm-544 206h11q47 0 70.5-33t23.5-80q0-53-23.5-84t-58.5-31q-37 0-56.5 30.5t-19.5 75.5q0 38 14 71.5t39 50.5zm300-216q-39-3-58.5 6t-16.5 41q14 15 75 28 9-10 11.5-19.5t1.5-14.5-6-19-7-22zm84-28q-2-33-26.5-49t-58-15-66 8-55.5 19q-2 11 4 23.5t6 13.5q13 9 16.5 6.5t12-12.5 17.5-12q26-5 77 6.5t73 11.5zm-636 350q-31-315 37-406 25-33 98-47.5t142-12.5 161 7.5 114 5.5q14 0 78.5-5t112.5-5.5 108 13 94 44.5q47 42 72 151.5t16 225.5q-2 33-23.5 50.5t-58 20-81-1.5-99.5-15-106.5-21-108-18-99.5-8q-44 0-110 11t-122 23-108 20-83 1-34-33zm-582-384q-1 11 40 18.5t101.5 10 128.5 4 122-.5l-21 101q-12 0-66 2.5t-69 1.5q-14 0-36.5-1t-38-1.5-35.5-1-34-.5h-30l-27 .5-20 1.5-14 2.5-6 3.5q-2 7 12.5 12t40.5 8 59 5 70.5 3 71 2 65 2.5 48.5 3.5q-10 92 0 196t51 195q25 56 60.5 94t89.5 75q-17 92 18 281 28-7 54.5-19.5t45-23 44-32 36-31.5 38-37 35.5-35q144 62 322 62 149 0 278-43 68 79 119.5 114.5t133.5 53.5q22-27 32.5-59t11.5-62.5 1.5-67 1.5-73.5q52-64 79.5-161.5t27.5-198.5-17-206q132 2 234-5t103-21q1-8-21.5-10t-74-2-90.5-3q-19-1-75.5-1.5t-84.5-2.5q-3-9-11-47.5t-10-42.5q47-4 179-4 20 0 56 .5t54.5.5 40-1 30.5-5 9-10-14.5-10-37-5-49-1.5-50 0-41.5-.5q-56-1-191-12-107-158-290-207 38-30 65-82.5t40-116.5 19.5-117 10-112.5 5.5-75.5q4-30 21.5-50t36-27 33.5-21.5 15-36.5q0-15-17-26t-45-11q-39 0-82.5 14t-64.5 35q-34 33-52.5 106t-30.5 163-24 127q-24-69-4-365 2-31 27-65t44-56 12-32q-9-13-37.5-23t-57.5-10q-57 0-110.5 59t-65.5 124q-11 68-7.5 127.5t1 131.5-21.5 116q-3-33-6-101t-6-110.5-13-96.5-26-92q-22-51-79-95t-100-44q-18 0-29 8t-11 17q0 8 25.5 49t28.5 81q3 38-2.5 170t2.5 195q-46-77-56-187-6-68-7-140-1-67-62-110.5t-181-43.5q-60 0-69 50 6 19 26 32t40.5 18.5 38.5 17 20 27.5q3 10 2 46.5t-1.5 57.5-3 56-2.5 43q-16 1-84.5 2.5t-101 3-86.5 6-97 11.5q-42 7-87 41t-81 79.5-60 82.5-38 66q17 24 54.5 27t48.5-8q36-22 84-61.5t88-65.5 83-37q32-8 79.5-9.5t113 .5 95.5 1q0 2 .5 29t1 35 2.5 31.5 5 35 8 29 12.5 29 17.5 20.5q-293 41-384 206-85 4-174 0t-158.5-2-70.5 15z"/><glyph unicode="" horiz-adv-x="2048" d="M850 1272q67-12 125-12 141 0 197.5 47t56.5 149q0 36-9 66-7 24-30 42.5t-50.5 29-73 19-79.5 12.5-88 8q-3-71-25-193t-24-168zm-37-343q-23-98-40.5-194t-37-215-33.5-196q-114-14-198-14-175 0-259 64 81 603 321 1642 160 5 497.5-41t391.5-70q99-46 149-153t50-240-42-238.5-109.5-171-159.5-109-186-60.5-195-17q-78 0-149 13zm926 605q3 0 10.5-8.5t18.5-28 20.5-47 13-71-.5-95.5-23-124-52-152q-29-69-68-124t-80-91-91.5-62.5-95.5-40.5-99.5-24-95.5-13.5-92-9-81-10.5q-17-136-58-322t-53-258q-86-21-194-21-166 0-276 45-16 33-23 48.5t-13.5 43.5-5.5 55q170-39 363-23 31 90 57.5 201.5t40 186.5 38.5 229q66-6 127-6 176 0 311.5 53t221.5 149.5 131.5 227.5 48.5 292z"/><glyph unicode="" horiz-adv-x="2048" d="M539 660q0-38 43-89t111-98 166-79.5 195-32.5q185 0 278.5 83t93.5 239q0 75-29.5 135t-86.5 91q-29 16-141 65.5t-214 102-156 99.5q-47 41-47 122 0 44 16 87t46.5 80.5 82 60.5 114.5 23q74 0 131.5-19t89-47.5 57-62 40-62 34-47.5 41.5-19q31 0 48 18t17 49q0 26-15.5 67t-51 91-84.5 93-126 72-166 29q-126 0-233-54t-168-145-61-195q0-157 160-294 58-50 176.5-104.5t214.5-84.5q53-17 86-68.5t33-107.5q0-60-34-87.5t-120-27.5q-81 0-171.5 22t-129.5 52q-29 22-57 59t-49 58.5-47 21.5q-38 0-62.5-29t-24.5-67zm647 1316q40 7 75 7 82 0 170-41.5t165.5-111 147.5-163 120.5-194 80-207.5 29.5-200q0-79-15.5-151t-30.5-105l-16-33q37-87 37-189 0-104-38.5-207t-105.5-185-166.5-133-212.5-51q-100 0-215 37-130-47-269-47-174 0-333 69.5t-277 189-188 289.5-70 362q0 97 17 201t30.5 167 9.5 80q-18 65-18 133 0 70 19 141.5t68 147 122 133 191.5 94.5 265.5 37q120 0 231.5-20.5t175.5-49.5z"/><glyph unicode="" horiz-adv-x="2048" d="M1498 1707q10 0 39 3 0 7 .5 41.5t-.5 51.5q11-13 30.5-46t26.5-42q10 13 29.5 43t24.5 37q3-28 3-94 3 0 16.5-1t19.5 0q-8 135-16 186-9-17-20.5-32.5t-28.5-36.5-28-37q-53 71-92 108 5-76-4-181zm-35 53q5 24 3 86.5t0 90.5h35q13-10 31-31t36-44 23-28q14 12 25 26t23 33.5 20 29.5q22-1 35 2 19-115 25-256-448 19-842-74 98-3 223.5 10t218 26.5 204.5 13 204-24.5q16 213 0 338-81 53-291 53-64 0-133.5-4.5t-119.5-10.5l-50-5q-100-5-223.5-22t-184.5-29-202-40q-5-22-21.5-59.5t-26-70-2.5-60.5q269 63 641 63 162 0 349-13zm-1064-198q-95 40-157 40-55 0-89.5-37t-34.5-80q0-14 1-22 128 90 280 99zm33-157q-26 17-67.5 19.5t-75-3.5-63.5-16q-39-65-.5-129.5t116.5-67.5q3 23 28 47t29 43q-14-1-19.5 5.5t-4.5 19.5q6 17 28.5 41t28.5 41zm25-758q-1-3-12.5-26.5t-14.5-31-11-26.5-12.5-34-7.5-31q15-2 36 5t38 4q3-22-1-61t1-46q12 0 29.5 10t36.5 6q5-12 23.5-51.5t28-68.5 14.5-61 51.5-61 118-60 102.5-53q-21 72-24 108-8 9-11.5 2t-14.5-16-24-3q-7 15-8.5 43.5t.5 53.5 0 52q-6 10-8.5 4.5t-12-12-20.5-1.5q-2 6-7.5 21t-8 24.5-1.5 22.5 9 23q-16 1-32-13.5t-34-11.5q-11 355 239 421-78 96-78 222 0 110 61 171.5t161 61.5q61 0 117.5-25t93-55 87.5-57 102-30q31 34 93 34 28 0 55-9 40 67 37.5 164.5t-45.5 157.5q-39 8-150 25.5t-172 31.5q-25 6-80 30t-84 28q-23 3-75.5-10t-73.5-15q-11 0-34.5 5.5t-31.5 3.5q-18-4-51-29t-40-29q-13-7-35-16.5t-34.5-16-26.5-16.5-20.5-24.5-6.5-33.5q-63-25-74-75 14-13 10-33.5t-15-36.5-21-40.5-7-45.5q19 10 28 1t13-34q-48-11-69-52.5t3-87.5q-71-32-132-124 15-10 16-25.5t-8-33.5-20-36-20.5-39.5-8.5-38.5q13 0 28.5 6.5t25.5 6.5 20-13zm552 412v33q81 17 122 17 81 0 117-52-108 10-151 10-52 0-88-8zm139-151q0 35 20 61.5t44 26.5q18 0 29.5-19.5t11.5-53.5q0-37-12.5-65.5t-39.5-28.5q-20 0-36.5 24t-16.5 55zm290-236q-12 15-5.5 41t22.5 33q26-1 25-30-2-28-22-41-10-5-20-3zm-659-223q3-23-4-54.5t-5-52.5q4 1 14.5 4t16 4 13.5-.5 14-7.5q1-30 0-53t-4-47.5-4-39.5q15 0 33.5 14.5t40.5 9.5q2-18-2-42.5t-5.5-37 7.5-35.5q4-9 20-3t29 3q9-59 50-82 346 51 486 263-6 1-68 12t-86 16-72 15.5-79.5 22-56.5 25.5q-8 4-24.5 8t-22.5 10.5-3 22.5q11-4 59.5-20.5t80-26.5 77.5-23 87-19.5 75-6.5q86 0 116 47-247-6-520 123-7 4-33.5 14.5t-40 18-25 23-8.5 35.5q400-165 693-165 4 14 14 43t15 53.5 4 52.5q-19 13-62.5 57t-77.5 58q27 24 36.5 33.5t19 31 10.5 51.5q-9 27-26.5 36.5t-41 12.5-34.5 9q7 40 13.5 64.5t19 56 34 50.5 51.5 26q-20 13-42 16t-32-8q-43-39-93-39-40 0-87.5 26t-85.5 56.5-91 56.5-102 26q-30 0-60-7t-62.5-23.5-52.5-50-20-79.5q0-55 19-103t51-106 48-103q-10-9-22-11t-20.5.5-25 9.5-23.5 9q-91-29-142-116t-39-197q17 34 58 33zm-371 1212q20 90 90 289 294 64 610 90 5 0 65 5.5t111.5 10 120 8.5 112.5 4q153 0 251-77 8-58 9.5-119t-.5-137-1-123q50-10 88-21t83-30 73.5-48 36.5-66q7-24 3.5-73.5t-20.5-83.5q-5-10-48-50t-59-49q-32-19-77.5-30t-105-20-89.5-16q-11-10-14.5-45t-10.5-46q-8-16-39.5-23.5t-39.5-11.5q20-20 20-53 0-34-20-69 31-6 46.5-28t15.5-53q0-58-38-96 18-21 49-46.5t43-44.5 12-51q0-9-8-84 3-13 30.5-21t27.5-29q0-72-91-57-104-56-165-132-79-101-226.5-177t-320.5-76q-45 0-114 10.5t-160 33-186.5 71-162.5 113.5q-110 129-184.5 304.5t-74.5 351.5q0 131 44 243-52 53-79.5 107t-27.5 125q0 142 88 240.5t219 98.5q56 0 114-19z"/><glyph unicode="" horiz-adv-x="2048" d="M1788 1131q-10-251-63.5-429.5t-161.5-302.5-278-183-411-59q-188 0-340 49t-252.5 131.5-167.5 196-96.5 237.5-29.5 261q0 96 11.5 175.5t38.5 151.5 47.5 115.5 60.5 116.5q8 15 12 22 41 76 142 141.5t214.5 101 205.5 35.5q42 0 79.5-3t61-5.5 60.5-11 48.5-12 55.5-17 55-16.5q-3-79-3-298t-10-307q-18 20-29 30.5t-34.5 27-54.5 24.5-70 8q-80 0-157-39.5t-129.5-114.5-52.5-164q0-126 86-221.5t210-95.5q204 0 310.5 74.5t126.5 200.5q15 90-1 242-3 33-14 118.5t-14.5 131-6 113 7 120.5 28.5 99l2 1q19 10 57.5-19.5t102-78 122.5-70.5q19-7 59.5-22.5t59.5-22.5 51-19 50.5-17.5 42-11.5 40.5-8.5 31-1.5q34 1 80.5 14t74.5 11q42-164-34-271t-224-128z"/><glyph unicode="" horiz-adv-x="2048" d="M1923 1193q-46 5-119.5 1t-120.5-1q-9 11-22.5 72t-28.5 71q-24 6-139-9-24-19-34-66.5t.5-91 38.5-51.5q50-14 122-27t124-22.5 102-23 77-35 29-52.5q1-21 7-68t11-90 6-95-5-91.5-25.5-70-52.5-39.5q-56-15-251.5-16t-255.5 7q-80 9-151 51t-121 99.5-100 131-87.5 140.5-83.5 133-87 103q-97 12-207-3.5t-156-63.5q-5-31-6-58.5t1.5-49 10-46 15-43 20.5-45.5q53-29 115-39t163.5-11 136.5-4q25-42 27.5-120.5t-13.5-133.5q-131-31-252-31-116 0-211 28.5t-170.5 87.5-117.5 160-42 236q0 95 27.5 173.5t74.5 130 103 89.5 119.5 58.5 116.5 29.5 101 9q122 0 225.5-47.5t164.5-140.5q90-139 143-260 27-63 81.5-153.5t103.5-141.5q35-37 110.5-61.5t145.5-24.5q73 0 105 28 31 33 24.5 81.5t-37.5 94.5-64 56q-22 7-83.5 11t-118.5 16.5-91 42.5q-37 33-56.5 104t-19.5 153q0 84 19.5 150t54.5 86q48 27 127 43t163 16q80 0 134.5-14.5t89.5-40.5 54.5-73 27-101.5 8.5-137.5z"/><glyph unicode="" horiz-adv-x="2048" d="M14 1040q0 224 64.5 400.5t195 304.5 338.5 196 484 68q164 0 304-38.5t258-122 201-208.5 129.5-306 46.5-405q0-420-268.5-654.5t-744.5-234.5q-166 0-309.5 31t-274 105-223 186-147 285.5-54.5 392.5zm997 809q-407 0-636-209.5t-229-613.5q0-872 914-872 122 0 236 27.5t224.5 93.5 191.5 165 131 253.5 50 346.5q0 208-62 364t-179 253-277 144.5-364 47.5zm-330-970q-5-233-8-270l-134 11q0 25 2 215.5t2 352.5-4 218q44 6 95 6 54 0 105.5-7.5t103-26 89.5-47 61.5-73 23.5-100.5q0-90-19.5-145t-73.5-82-95.5-34.5-138.5-16.5q-6-1-9-1zm3 125q34-2 50-2 88 0 131.5 32.5t43.5 108.5q0 80-49 121.5t-136 41.5q-22 0-48-3v-128l.5-50 2.5-59 5-62zm669 402q95 0 147.5-60.5t48.5-187.5q-12 1-38.5-1t-46.5-5l-20-2q-5 154-89 154-61 0-78.5-31.5t-17.5-114.5q0-27 20.5-52t51-43.5 66-42.5 66.5-48.5 51.5-63 20.5-83.5q0-27-4.5-55t-17.5-60-33.5-56-54.5-40-78-16q-28 0-49.5 1t-44 4.5-39 9-32.5 14.5-26.5 22-18.5 30.5-11.5 40.5-3.5 52 5 64q69 2 103-8-5-39 15.5-78t71.5-39q58 0 77.5 22t19.5 96q0 25-15.5 47.5t-40 40.5-54.5 37-59.5 40-54 44.5-40 56-15.5 69.5q0 122 61.5 182t156.5 60z"/><glyph unicode="" horiz-adv-x="2048" d="M73 1070q0 137 36.5 263t101 226.5 152 183.5 190 138 215 85.5 226.5 30.5q113 0 231-33.5t226-94 204-149 166-192.5 111-230 41-256q0-115-13-218t-44.5-204.5-80-185.5-123-156-170-121.5-224.5-77.5-284-28q-158 0-292 32t-231 87.5-173.5 134.5-125.5 167-81 191.5-45 202.5-13 204zm900 799q-117 0-227.5-32t-207.5-97.5-169.5-157.5-114.5-220.5-42-277.5q0-134 29-262t92-245 153.5-205 222-140 287.5-52q131 0 247 28t204 76.5 160.5 115.5 122 143.5 83.5 161 49.5 168 15.5 165.5q0 146-51.5 278t-140.5 231.5-204.5 173-246.5 111-262 37.5zm-397-1269q16 116 70.5 434.5t86.5 450.5q9 0 77.5-1.5t78.5-1.5q77-201 117.5-398t79.5-507q-19 1-35 .5t-36 0-35 2.5q-11 40-21 112t-16 102q-33 3-108 4t-110 6q-2-29-6-55t-8-44.5-12.5-56.5-14.5-70zm646-22q-14 94-27 495.5t-13 402.5q10 0 46-1t45-1q37-45 51-347.5t6-543.5zm-444 682q-6-60-20-169t-20-158q29 0 99-5.5t98-5.5q-11 41-37 163.5t-34 154.5q-21 11-86 20z"/><glyph unicode="" horiz-adv-x="2048" d="M1144 2002q86 0 184-35t194.5-97 185.5-155 157-201.5 108.5-244 40.5-275.5q0-58-16-134.5t-52-167-86.5-180.5-126.5-175-165-149.5-208-103.5-251-39q-242 0-440 64t-339 186-218.5 307.5-77.5 418.5q0 168 45.5 316.5t137.5 270 223.5 209.5 311 136.5 392.5 48.5zm-71-149q-122 0-244-33t-239-106.5-207-178.5-145-261.5-55-342.5q0-70 10.5-138.5t39.5-146 73-145 117.5-130 167-107.5 227-71.5 292.5-26.5q127 0 235 35t182.5 91 133.5 132.5 94 154.5 57.5 161.5 31 148.5 8.5 120q0 178-62.5 335.5t-167.5 268.5-248.5 175.5-300.5 64.5zm498-892q0-59-13-108.5t-33-85.5-53.5-65-64-47.5-76-32.5-77.5-21-81-11.5-74-5-68.5-1.5-53.5-1q10 557-8 838 286 36 444-89t158-370zm-910 445q32 6 43 5.5t30.5-3.5 33.5-3q26-613 17-785-74 0-132-13 0 546 8 799zm431-110q4-50 5.5-104t1.5-93-2.5-103-4-94-6-110-6.5-108q72 5 134.5 23.5t117.5 52.5 87 92.5 32 134.5q0 143-95 226t-264 83z"/><glyph unicode="" horiz-adv-x="2048" d="M16 1063q0 78 15.5 164t52.5 182.5 91.5 186 139.5 172.5 189 144 247 97.5 308 36.5q161 0 302-45.5t246-126 187.5-188.5 134-235 78-262.5 26.5-274.5q0-66-9.5-136t-38.5-162-75-174.5-127.5-165-187.5-141.5-263-96-346-37q-162 0-298.5 34.5t-234.5 93.5-175 142.5-125.5 176-80 200-44 208-12.5 206.5zm990 838q-129 0-253-47.5t-222-129-172.5-185-115-221-40.5-230.5q0-159 19-287.5t55.5-226 93.5-170 128-121.5 165.5-79 198.5-42.5 234-12.5q112 0 213 29t177 77.5 140 112.5 107.5 134 74 143 44.5 137.5 14 118.5q0 95-10 186t-36.5 192-67.5 189-109 169-155.5 138.5-211 91.5-271.5 34zm382-885q15-41 57.5-165t76.5-205q-27-6-65.5-8t-68.5-7q-12 48-55 177t-49 176q-48-26-124-47 0-32 4-142.5t3-159.5q-12 0-39-.5t-49-.5-38 1q-8 368-8 751 88 13 152 14t131.5-17.5 117.5-60.5q43-36 55-108t-11-119q-12-28-34.5-47.5t-39.5-25.5zm-809-349q-25 449-6 716 11 0 64-4.5t64-4.5q-4-92-1-299t-5-280q30-2 107 1t129 1q7-38 6-55t-5-44.5-4-45.5q-70-6-173.5-2t-175.5 17zm567 628q-5-141-3-247 14 3 44.5 8t46 8 40 9.5 37 15 26.5 21 19.5 30.5 5.5 42q-1 54-30 82t-76 32-110-1z"/><glyph unicode="" horiz-adv-x="2048" d="M61 1048q0 205 68.5 383.5t188.5 305.5 289 199.5 363 72.5q149 0 295-43.5t276-131.5 230-209.5 158.5-289 58.5-357.5q0-465-239-702t-713-237q-153 0-290.5 42t-243 115-190 171-139 210.5-83.5 232.5-29 238zm1771-48q0 136-37 258t-100.5 214-147 166-178 120.5-191.5 71-190 24.5q-138 0-276-72t-243-188.5-170.5-275.5-65.5-323q0-167 55-312t154.5-251 248-166.5 327.5-60.5q393 0 603.5 207.5t210.5 587.5zm-564-387q-98 0-159 16-4 118-9.5 433.5t-6.5 335.5q74-8 137-6 21-529 20-655 14-5 116.5-1.5t116.5 3.5q1-13 4-34t3-29-3-40q-88-23-219-23zm-247 791l4-104q-27-9-62.5-9.5t-99 3-102.5 3.5q-1-21-5-99.5t-5-125.5q124 11 246-5 11-59 4-101-198-9-255-9-5-23-3.5-165t.5-175q-4 0-31.5 1t-47 3.5-23.5 7.5q1 44-6 171.5t-13.5 243-4.5 225.5 18 143q45-2 181.5-2t204.5-6z"/><glyph unicode="" horiz-adv-x="2048" d="M83 1062q0 119 11.5 220.5t41.5 202.5 78 180.5 123.5 149.5 175 116 236.5 72.5 304 26.5q197 0 354-52.5t260.5-141.5 172.5-214 98.5-263.5 29.5-295.5q0-136-37-279t-115.5-281-188-246-268.5-174.5-342-66.5q-130 0-253.5 41.5t-225.5 114.5-187.5 173-144 215.5-91 244.5-32.5 257zm1753 21q0 179-68 333.5t-182.5 259.5-267.5 165-322 60q-139 0-253.5-24.5t-213-80.5-166-142-105.5-214.5-38-292.5q0-114 24-231t69.5-227.5 115.5-207 156.5-169 198.5-114 236-41.5q172 0 310.5 49.5t231.5 135 155.5 204.5 90.5 252.5 28 284.5zm-448-107q22 39 38.5 188t35.5 203q12 2 22.5 2.5t17.5.5 21-1 24-2q-38-310-88-539-15 0-92-7-26 42-45.5 82t-39.5 88-33 75q-11-58-53-239-6-1-91 3-26 47-58 148.5t-69 241.5-40 150q9 0 50 1t50 1q20-42 49-177.5t54-179.5q35 119 45 264 61 4 80-1 13-28 50.5-141.5t71.5-160.5zm-860 398q209 27 328 3 1-17 .5-25.5t-2.5-22.5-2-21q-25-4-57-5t-84.5-1h-68.5q-3-45 1-113.5t4-90.5q45-1 100-1h96q-1-9 0-39t-1-46q-37-5-193-2-2-22-4-94t-11-120q-32 1-102-2-3 94-3 272t-1 308z"/><glyph unicode="" horiz-adv-x="2048" d="M285 1785q57 68 168 102.5t245 34.5q131 0 253-32.5t193-89.5q-23-69-63-215.5t-78-249-90-182.5q-134 106-334 106-189 0-385-92-9 88 4 185t44.5 234 42.5 199zm964-46q38-7 77-29t73-47 71-49.5 86.5-40.5 104.5-16q86 0 192 62 20 12 59.5 51.5t75.5 53.5q13-23 18.5-50.5t2-66-7-61-14.5-73.5-14-65q-1-8-7-40t-8.5-43.5-8.5-41-10-44.5-11-39.5-13-40.5-14.5-34.5-17.5-33.5q-51-81-170.5-128t-250.5-47q-117 0-209 41.5t-186 118.5q8 104 48 219t81.5 230.5 52.5 213.5zm-211-814q28-17 101-68.5t120.5-81.5 123-57.5 145.5-27.5q94 0 164 37t191 138q11-79-2-163t-34.5-142-59-150-55.5-148q-76-68-156.5-102t-190.5-34q-82 0-207 55.5t-217 128.5-88 118q11 113 58 257t107 240zm-151 32q-4-15-17-69t-17.5-71.5-16.5-63.5-18.5-67.5-18-60-21.5-63-22.5-55.5-26.5-58q-19 5-95 44.5t-123 39.5q-105 0-203.5-41t-264.5-155q-10 84-1 168.5t38.5 225 38.5 194.5q96 102 174.5 142t199.5 40q114 0 222.5-40.5t171.5-109.5z"/><glyph unicode="" horiz-adv-x="2048" d="M1237 1692q-5 72-26 123t-43 74.5-64 61-66 66.5q37 0 106.5.5t120.5 1 124.5-1.5 128.5-5.5 121.5-12.5 115.5-21.5 98.5-33.5 82-47.5 54.5-64 27-83.5q12-121 26.5-512.5t7-793-56.5-406.5q-48-5-223.5-6.5t-388-1-236.5.5q20 37 66.5 105t76 123.5 39.5 108.5q19 94-3 182.5t-88 153.5q-23 22-67.5 51t-84 55.5-78 60.5-61.5 80-22 100q1 66 37.5 130.5t77 102 93.5 81 65 55.5q41 42 46.5 97.5t-6.5 175.5zm-543-324q-82 0-149 60t-100 141.5-33 160.5q0 119 68.5 188.5t162.5 69.5q114 0 188.5-105t74.5-260q0-106-59-180.5t-153-74.5zm-685-74q-1 36-6 101t-7 109.5-1 104.5 11.5 104.5 30.5 91 57 82.5 89 61q-47-50-66-146t-15.5-180.5 18.5-157.5q9-46 54-99.5t110-99 151-77.5 169-36q-16-71-21.5-110.5t4-88 42.5-85.5q-36-3-83-3t-68-3-66.5-20-112.5-54q-74-40-135-96.5t-138-148.5q0 143-2.5 268.5t-7.5 274-7 208.5zm614-557q132-29 243-106t172.5-174.5 61.5-189.5q0-36-10-68t-37-63.5-69.5-53.5-113-36-162.5-14q-157 0-270 20t-180.5 59-99 91.5-31.5 121.5q0 30 10 59t26 54.5 43 52 53 47.5 65 45.5 69.5 42 76.5 40 76 37 77 35.5zm1308 353q-7 71-61 128.5t-125.5 90.5-156 55-145.5 30-101 8q-31 0-62.5-15t-47.5-28.5-46.5-45-35.5-36.5q-131-127-140-172-8-54-6-89t21-62.5 41.5-44 55-33 61.5-29 62-32.5 55-44q47-50 91-120.5t51-129.5q6-55-12-130t-38-124.5-62-146.5q72-8 266.5-2.5t238.5 4.5q38-1 64 18t37.5 49 16.5 68 4.5 74.5-2.5 70.5q-1 7-1 10-2 53-7.5 319t-15.5 359z"/><glyph unicode="" horiz-adv-x="2048" d="M837 1910q7-64 5.5-91.5t-18.5-86.5q283-11 391-25 240-32 375-128 113-82 193.5-261.5t80.5-376.5q0-108-35.5-224.5t-105-226-162.5-196.5-219-140-263-53q-153 0-292.5 41.5t-248 117-189 176.5-123 225-42.5 258q0 253 105.5 435.5t318.5 275.5q-142 2-179 63-3 19-3 38 0 102 75 159t180 57q86 0 156-37zm-319-204h64q-4 24-4 34 0 47 28.5 69t72.5 22q46 0 94-23-16 59-105 59-62 0-113-31.5t-51-80.5q0-25 14-49zm153-51q9 17 44.5 28.5t45.5 22.5q-7 58-51 58-24 0-44-19t-20-43q0-26 25-47zm433-11q-153 0-279-30.5t-209.5-79-147-115-98-131-56.5-135.5-28-120-6-92q0-231 118.5-394t374.5-295q103-53 230-53 148 0 294 66.5t251 168 170.5 226.5 65.5 239q0 113-48.5 265t-117.5 236q-69 85-230.5 164.5t-283.5 79.5zm-110-89q188 0 348-66t222-166q36-56 59.5-149.5t23.5-185.5q0-93-25-186.5t-75.5-179.5-121-153-169.5-106.5-212-39.5q-125 0-238.5 46.5t-200 130.5-138 211.5-51.5 279.5q0 154 96 307t198 204q108 53 284 53zm-297-181q-94-65-142.5-181t-48.5-249q0-127 40.5-229t110.5-166 159.5-97.5 191.5-33.5q38 0 81.5 6.5t97.5 24 104.5 43.5 99 69.5 84.5 97 58 130.5 22 167q0 108-28 204.5t-78 147.5q-11 11-22.5 37t-15.5 29q-58 47-150.5 71t-194.5 24q-235 0-369-95zm299-385q68 102 179.5 206.5t133.5 102.5q-7-17-28-69t-30-73-28-64.5-31.5-70-31-61.5-36.5-65q-108-184-274-324-17 26 42.5 189t103.5 229zm-133 92q4 33 .5 113.5t-1.5 101.5q34-33 80.5-98t73.5-91q-44 8-80.5-18t-54.5-67.5-17-92 27-88.5q-35 0-239-6 108 93 154 120-1 3-6 27t-15.5 39-32.5 22q28 5 50 12.5t39.5 15.5 21.5 10zm383-21q75 11 126 11-33-23-80-66t-111-82q40 105 65 137zm-243-132q-9-23-33.5-83t-43-107.5-21.5-67.5q11 25 41 63.5t75 89.5 55 63q-58 0-73 42zm38-255q22 21 57.5 70.5t57.5 69.5q14-48 26.5-125.5t18.5-108.5q-27 16-54 33.5t-39 25-29 17-38 18.5z"/><glyph unicode="" horiz-adv-x="2048" d="M523 1883q177 84 581 84 176 0 306-43t248-146q148-129 255.5-351t107.5-445q0-127-54-258t-137.5-234-176-182-178.5-120q-220-106-483-106-195 0-370 68t-307.5 190.5-210 308-77.5 406.5q0 150 40.5 285t110 238 157 180 188.5 125zm300 0q-127-24-241.5-82t-210.5-149.5-153-229-57-302.5q0-177 42.5-327t117-254 171.5-169 208-84q-33 29-85 118t-79 149q49 19 101.5 58t113 92.5 86.5 73.5q-105 52-152 144t-18 206q2 7 7 29t8 31.5 9.5 26.5 16.5 30 24 26q-149 178 91 613zm1030-535q-36 137-162 258.5t-287.5 190-307.5 68.5q-149 0-227.5-94.5t-78.5-268.5q12-101 42-136 146 26 263.5-8t185.5-128 64-234q51 16 100.5 18.5t89-2.5 83.5-24.5 73-35.5 69.5-48 61-50 57.5-53q35 60 40 142t-11 168.5-55 236.5zm-600-260q-11 88-78.5 134.5t-159.5 46.5q-74 0-140-30.5t-104-85.5q-15-76-2-130t52-88 88.5-50 108.5-16q109 0 196 49 47 113 39 170zm-122-844q93 0 181 22t154.5 58 124.5 81 98 90.5 69 87.5 42.5 71 13.5 42q0 48-23.5 84.5t-63 57.5-91 35-107 17.5-111 6-104.5-.5q-20-71-87.5-116.5t-156.5-45.5q-28 0-59 3t-47 7l-17 3q-21-17-53.5-49t-55-56-56.5-61.5-37-40.5q28-63 60-111t77.5-92.5 108.5-68.5 140-24z"/><glyph unicode="" horiz-adv-x="2048" d="M1791 1623q18 21 21.5 33t3.5 39q217-102 132-610 11-12 20 13 14 37 21 43 5 5 10 5 23-76 23-153 0-65-17-140.5t-54.5-160.5-91-166.5-133.5-156-176-130.5-223-89.5-270-33.5q-221 0-418 81t-348 219q-148 171-201 308.5t-22 269.5q5 22-16.5 27.5t-23.5 12.5q-4 18-1.5 44t3.5 39 7 35.5 9.5 32.5 11 31.5 10.5 31.5q-2 13-8.5 23.5t-17 21-14.5 16.5q2 250 152 284-2-117 10-162 40 31 83.5 112.5t69.5 110.5q18 21 72.5 60.5t69.5 51.5q95 78 251 122t334 44q175 0 292.5-25t148.5-60q55 1 94.5-10.5t64.5-37 41-50.5 38-63 42-63zm-1438-111q76 11 152 0 17 33 54 60.5t82.5 37 87.5-16.5q-39-59-60-111t-22-122q26-2 63-7t53-6 40 1 49 11q5-41-4.5-74t-33-56.5-50.5-40-66-32.5q-10-17-11.5-35.5t2.5-32.5 8-27 5.5-18.5-4.5-8.5q-30 12-68 18t-77 0-58-28q-1-8-1-24 0-128 170-128 60 0 179 19.5t140 21.5q26 2 64-24t54-63-21-78q-41 27-106 31.5t-125.5-7-119.5-32.5q13-46 71.5-75t131.5-37q230-27 315 0 72 22 119 62t104 111q10-1 21.5-17t29.5-14q36 37 46.5 66t14.5 87q-4 19-5.5 43t11 45.5 35.5 22.5q14-7 22-47t29-44q11 38 11 85.5t-4 78.5-14.5 87.5-13.5 73.5q-2 15 19 18.5t22 12.5q-14 28-61 80.5t-61 91.5q6 12 25.5 3.5t25.5 7.5q-30 76-89.5 160t-85.5 105q-7 6-14.5 10t-20.5 6.5-21 4-30 4-34 4.5q3 12 17.5 18t29 7 25.5 9.5 9 26.5q-167 44-338 44-165 0-308-39.5t-253.5-124.5-156.5-205z"/><glyph unicode="" horiz-adv-x="2048" d="M1028-14q-186 0-343.5 49.5t-273 140-196.5 216.5-121.5 281.5-40.5 332.5q0 179 39 336.5t121 290 200.5 228 285.5 149 368 53.5q181 0 333-55.5t261-154 184.5-234 112.5-296.5 37-340q0-161-45.5-311.5t-131.5-274-203-216-268-144-319-51.5zm835 1034q0 405-209 629.5t-564 224.5q-248 0-450-102t-321.5-292-119.5-433q0-178 60.5-341.5t166-286 258.5-195.5 328-73q181 0 336.5 59t270 167.5 179.5 274 65 368.5zm-623 513q19-38 59-147t74-207 80-233.5 53-157.5q-41-32-147-55-1 12-42 150.5t-93.5 318.5-74.5 263q-38 151 11 151 17 0 39.5-23t40.5-60zm-366-25q6 20 12.5 35t15 29.5 10.5 18.5q6 9 38 9t61-8.5 29-21.5v-2q-13-61-26-97-92 40-140 37zm-63-159q13 30 26.5 65.5t23.5 58.5q22 2 29 2 45 0 113-35-28-102-36-123-66 34-129 34-9 0-27-2zm-17-32q6 0 17 .5t16 .5q80 0 125-33-45-183-199-611-96 28-191 41 13 37 58 162t61.5 170 49 125.5 63.5 144.5zm-414-334q3 87 3 256 61-5 169.5-5t124.5-1q-43-149-92-250-114-3-205 0zm1108 23q-17 45-40 116.5t-36 110.5q106 7 269 0 2-50 4-134t2-93q-62-7-199 0zm-251-23q-206-8-320-4 37 128 66 244 19 0 91-1.5t90-1.5q34-77 73-237zm186-491q-9 31-15 62.5t-12 72-11 65.5q63 22 132 52 11-21 25-46.5t27.5-50.5 32.5-65q-11-42-65-70t-114-20zm-840-6q-2 8-8.5 35t-8.5 37.5-5.5 32-4.5 41.5-1 44q27 0 58-6.5t53-13.5 69-24q-18-42-53.5-74.5t-98.5-71.5z"/><glyph unicode="" horiz-adv-x="2048" d="M1401 2005q1-15 1-48 0-83-13.5-162t-42-152-80.5-117.5-120-44.5q-40 0-81 14-14 57-14 121 0 104 40.5 190.5t121 141 188.5 57.5zm-250-792q28 78 122.5 130t205.5 52q88 0 166-36.5t132-112.5q-89-49-126-81-171-153-173-495 0-194 308-268-2-103-29.5-174t-80.5-109.5-118.5-55-155.5-16.5q-76 0-132.5 22t-81.5 47-63 71.5-61 67.5q-7-13-20.5-42.5t-21.5-44.5-22.5-38.5-28.5-35.5-34-26-45.5-19.5-56.5-5.5q-110 0-214 56.5t-183.5 154.5-127.5 240.5-48 303.5q0 295 123.5 455t346.5 160q298 0 419-200z"/><glyph unicode="🌄" horiz-adv-x="2048" d="M1878 1880q26-51 30-386.5t-5.5-697-24.5-631.5q-84-10-173-14.5t-151-4.5-168 1-172 0q-40-1-121.5 11.5t-121.5 12.5q-86 1-249-7.5t-289-6.5-228 26q-25 147-31.5 349t-7 428.5-10.5 365.5q-25 336-12 535 423 41 926 41 363 0 808-22zm-1527-179q-6-198 14-692t20-639q214 6 705.5-9t617.5-17q-1 200-4.5 658t-4.5 682q-355 20-876 20-43 0-472-3zm807-350q0 71 47.5 113t114.5 42q55 0 111.5-47.5t56.5-122.5q0-63-44.5-105t-122.5-42q-75 0-119 42t-44 120zm-171-480q27 6 47.5 24.5t31 37 27.5 33.5 39 15q43 0 92-57t87.5-139 65.5-152 40-118q-198-21-405-21-238 0-491 30 7 33 21 107.5t21.5 110 21.5 97.5 27.5 100 33 86.5 43.5 87.5 54 74q32-13 60-34.5t47-42.5 41-56 33.5-57 32-64.5 30.5-61.5z"/><glyph unicode="🌈" horiz-adv-x="2048" d="M1946 571q-12 139-61 270.5t-109 221.5-126.5 163-111 108.5-64.5 44.5q-106 49-208 75t-249 26q-92 0-182-16t-180-50.5-169-85.5-147.5-125.5-117-166-75.5-211-26-256.5q3 0 43.5-2.5t68.5-3.5 68-1 65 3q12 119 53.5 258t100.5 217q55 74 208.5 120.5t309.5 46.5q145 0 253-27.5t210-100.5q35-25 62.5-55t46-56 33.5-68 23-69 15.5-81.5 10.5-84 9-96.5q16 0 58.5-2t68.5-2.5 60.5.5 58.5 6zm64-62q-184-10-378-6-62 374-103 427-62 81-202 136.5t-288 56.5q-166 1-311-72t-200-180q-66-129-95-390-210-7-392-2-12 212 33 391t137 307 223.5 217.5 291.5 133 343 43.5q172 0 319-54.5t254.5-151 187-230 123.5-291 57-335.5zm-960 469q101-3 179-44t124.5-109.5 71-148.5 28.5-171q-39-6-113.5-7.5t-102.5-3.5q-1 44-9.5 82.5t-28.5 76.5-60 60-96 22q-44 0-74.5-19.5t-44.5-52-20.5-61.5-9.5-60.5-4-36.5q-196-6-248-11 8 108 33.5 194t72.5 154 123.5 103.5 178.5 32.5z"/><glyph unicode="🌊" horiz-adv-x="2048" d="M1231 457q76 11 119.5 111t43.5 220q0 254-131 390t-343 131q8 55 111 55 75 0 168.5-26.5t126.5-51.5q48-37 98-121.5t69-166.5q62-275-65-525 60 20 102.5 63.5t63.5 101.5 30 115.5 9 121.5q0 192-51 314t-154 218q67 16 141-48.5t101-143.5q33-98 46-233t2-273q168 398-77 698-90 74-219 114t-268 40q-95 0-183.5-18.5t-168-58-138.5-96.5-93.5-139.5-34.5-180.5q0-34 2-52 106 204 300 211 233 8 342.5-195t50.5-575zm-1057-87q-2 10-2 15 0 40 51 69.5t130 44.5 153 21.5 140 6.5q95 0 204-24.5t142-24.5q77 0 117.5 59t40.5 172q0 104-31.5 194.5t-99 151-159.5 60.5q-31 0-59-5t-52.5-17.5-43.5-23-39.5-32.5-33-35-31-42-26-41-26-44-23.5-41q-93 79-93 249 0 168 100 307.5t261 216.5 344 77q171 0 325.5-66t264.5-190 142-283q6-32 6-90 0-189-34.5-325t-99.5-215-150.5-115.5-195.5-36.5q-166 0-446 18.5t-407 18.5q-205 0-369-30z"/><glyph unicode="🌎" horiz-adv-x="2048" d="M1568 1937q70 0 102-48.5t26.5-116-35-140.5-75.5-122q131-164 131-372 0-161-77.5-304.5t-218.5-233.5-310-90q-1-48-1.5-59.5t4.5-53.5 6-56q367-37 367-123 0-49-112.5-78t-297.5-29q-461 0-461 81 0 45 112 92t234 66q3 66-9 154-51 1-119 15t-84 40q-53-55-124.5-91t-140.5-36q-73 0-111.5 28t-42.5 71.5 12.5 96.5 46 103 65.5 91q-78 140-78 304 0 135 53.5 267t142 232 210 161.5 249.5 61.5q141 0 275-76 15 12 55.5 48.5t66.5 57.5 65 40 74 19zm-188-213q16-7 29.5-14.5t26-17 20.5-16.5 19-19 16-18.5 17-21.5 17-21q17 33 29.5 59t24 54.5 16 49.5 4.5 38.5-9.5 26.5-28.5 9q-56 0-181-109zm-640-184q-54-47-89.5-158.5t-40.5-230.5 34.5-224.5 122.5-137.5q78 94 198 210t233 228.5 191 216.5q-37 86-140 132t-227 46q-179 0-282-82zm356-864q90 0 167.5 31t131 82.5 88 121 44 144.5-6.5 154-59 148q-83-107-282-326t-281-324q105-31 198-31zm-604 67q-23-38-37-75.5t-17-68.5 11-50.5 45-19.5q39 0 83.5 33t59.5 70q-26 3-69 38.5t-76 72.5z"/><glyph unicode="🌟" horiz-adv-x="2048" d="M1782 1306q0-59-27.5-124t-62-114-77-115-63.5-115q15-96 82-261t80-269q-50-19-105.5-19.5t-103 12-102 36.5-96.5 47-93.5 50.5-84.5 42.5q-55-26-112.5-67t-105.5-81-99-80-111.5-75-124.5-55q-29 54-32.5 114.5t11 111 31 107.5 27 104.5-.5 102.5q-9 38-36.5 62.5t-71.5 48.5-67 43q-73 61-139 147.5t-96 156.5q20 40 53.5 71.5t69 50.5 87.5 36 92 25.5 101 22 97 22.5q7 36 22.5 124.5t25.5 134.5 27.5 114 40.5 118.5 52 92.5q75-38 139.5-106t104-133 94.5-149.5 103-136.5q51-23 152-29.5t189.5-18 129.5-50.5zm-1083-961q45 30 115 85t118.5 93 118 72.5 134.5 43.5q34-31 82.5-57.5t111-54.5 95.5-47q-10 59-48 140.5t-41 125.5q-3 52 18.5 101t56 91 70.5 83 70 91 48 100q-52 14-187.5 11t-221.5 20q-18 34-64.5 83t-61.5 69q-29 40-64.5 111.5t-71 129.5-81.5 95q-6-97-40-251t-42-222q-35-35-90.5-64.5t-97-44-119.5-38-110-34.5q64-74 212.5-183t201.5-160q-56-47-85-169.5t-27-219.5zm706 1299q8 19 14.5 31t16 24.5 18.5 17.5 21.5 3.5 26.5-11.5q1-41-15-74.5t-34-50-51-40.5q-12 16-14 33t2 29 15 38zm-1053 8q17-11 47.5-21.5t53-19 44-23.5 29.5-41.5 0-64.5q-41 12-66.5 22.5t-53.5 29.5-41.5 48.5-12.5 69.5zm1333-785q31-1 49-8t46-26q6-3 24-10.5t25.5-12 13.5-17.5 2-31q-19-9-47.5-4t-55 16-44 36.5-13.5 56.5zm-1221-202q14-22 15.5-36t-9-24.5-25-18.5-39-25.5-45.5-39.5q-11 23-31 47 10 11 30.5 37t28.5 33 28 16 47 11zm644-319q8 0 25-.5t25-.5q1-17 18-69.5t9-95.5q-19 2-32.5 10.5t-20.5 18.5-12 30-6.5 32.5-3 38.5-2.5 36z"/><glyph unicode="🌲" horiz-adv-x="2048" d="M880 76q22 249 11 496-44 3-118.5-4t-126-3-89.5 30q3 20 13.5 43t18 35 27 40 22.5 32q119 180 219 438-25 23-60 29.5t-78.5 7.5-69.5 9q1 28 14 54.5t35.5 58 31.5 48.5q43 80 100 264t96 266q-3 49 23 115 40-21 71-55.5t52.5-79.5 36.5-87 34.5-99 35.5-94q26-58 113.5-182.5t117.5-197.5q-16-21-86-24.5t-87-21.5q9-50 40.5-106.5t68-106.5 71.5-104 56-118.5 17-129.5q-137-23-334-23-14-105-10.5-176t10-192 .5-208q-96-17-143-17-105 0-133 63z"/><glyph unicode="🌳" horiz-adv-x="2048" d="M1128 595l-48-9q11-98 8-154-3-50 15.5-132.5t18.5-123.5q0-55-12-81t-45-26q-18 0-30.5 2t-20 8.5-11 12-4.5 19.5-.5 24 2 32.5l2.5 37.5q1 34-4 179.5t-5 192.5q-69 0-129.5 7t-128 26.5-122 51-105.5 84.5-86 123-55.5 171-20.5 224q0 271 109 437 61 93 200 186t258 93q123 0 230-30t186-81 143-120.5 105.5-147.5 70-164 40.5-166 12-158q0-104-33.5-189t-88.5-141.5-131-97.5-154.5-61.5-165.5-28.5zm-163 113l166 9q141 22 254.5 86.5t167.5 158.5q11 19 16.5 66t5 113.5-15 144-40.5 156.5-75 152-114 130-162 91-215 34q-86 0-167-31.5t-139-81-99-103.5-61-106q-33-85-45-177t-2-182.5 48.5-171.5 99.5-144 158.5-101.5 218.5-42.5zm56 27q-11 0-34 10-6 115-25 174-155 6-256 103.5t-95 232.5q29-18 58.5-54t53.5-70 54.5-65.5 76-48 102.5-9.5q2 70-26 114.5t-100 74.5q-10 15-36 48t-39 53.5-29.5 53.5-23 70.5-3.5 81.5q36-11 60.5-47.5t46.5-90.5 39-78q50-70 101-44 12 33-4.5 142.5t-8.5 161.5q35-3 57-28.5t31-66 13-81 8.5-88.5 11.5-74q34 2 57.5 21.5t36 53 20 65.5 14.5 74.5 14 64.5q22-5 38-21t23-37.5 9.5-39 2.5-33.5q0-36-19.5-71.5t-48-65.5-57-59.5-50-64-23.5-69.5q227 61 257 227 44-64 35-119.5t-60-102-111-76.5-119-44q1-19 1-168-20-10-53-10z"/><glyph unicode="🍂" horiz-adv-x="2048" d="M1677 1520q-129 40-277 53.5t-294-9.5q-65-13-132.5-47.5t-133.5-73.5-114-55q-45-56-120-133.5t-133.5-140.5-120-140.5-105.5-167.5-65-187q-30-134 15-396 6 26 16 80t15.5 78 21 64.5 38.5 79.5q28 49 66.5 97t92.5 107 73 81q-41 11-85.5 5.5t-63.5-13-39 .5q50 43 85.5 59t79 17 112.5-3q26 30 73 62.5t79 49 101 50.5q11 5 16 8-17 9-34 16t-38 12.5-34 9.5-39.5 8-37 6-43.5 6.5-43 5.5q29 17 78.5 15t98.5-13 105-17.5 98 1.5q27 25 110.5 48.5t109.5 53.5q-108 46-175 55t-156-5q-8 9 13.5 25.5t65.5 27.5 89 4q69-10 116.5-28.5t134.5-63.5q6 3 32.5 16t45 22.5 44.5 23.5 48.5 28 39.5 28q-27 12-76 17.5t-92.5 9-85.5 12.5-66 35.5-22 70.5q32-22 92.5-33.5t117.5-14.5 117-15.5 91-35.5q37 30 51 44t26.5 38.5 16.5 60.5zm-1415-1278q35 61 75.5 104t78 66 87.5 36 89.5 16 98.5 3q79 0 253.5-17t270.5-17q112 0 206 31.5t159 86 114.5 123 77.5 147.5 41.5 153.5 13.5 146.5q0 167-63 311-55-50-147-108 8-14 21-37.5t37.5-84 30.5-106.5q13-96-11-212.5t-91-168.5q23 86 32 270 3 68-11 126.5t-69 158.5q-29-26-66-47.5t-96-51-82-41.5q30-26 43-107 12-143-18.5-267.5t-98.5-186.5q18 89 26 177.5t3 183-27 169.5q-178-64-239-93-13-6-26-13 0-22 9.5-87t8.5-104q-2-78-11-106-19-56-95-112 69 203 29 380-12-4-41.5-13.5t-39-13-33-13-34.5-16-30.5-18-33-24-31-30-35.5-38.5q2-5 6-14.5t9.5-37 5-54-12.5-61-37-62.5q16 111-29 176-113-72-197-205.5t-121-297.5zm1707 1702q-11-288-131-454 87-185 87-411 0-77-9.5-137.5t-33.5-115.5-43-88-60-96q-21-32-30-45t-34.5-45.5-43.5-48-53.5-42.5-69-41.5-85-33.5-107-28-129-16-157.5-7q-74 0-212 21t-208 21q-74 0-132-16t-93-40-64-60.5-44-68-35.5-72-37.5-63.5q-14 5-26.5 13.5t-22.5 17-20 23.5-16.5 24.5-14.5 29-12 28.5-11 31-8.5 28-7.5 29-7 25q-32 106-11.5 279t84.5 291q17 32 48.5 74t56.5 71 74.5 84.5 68.5 77.5q74 86 141.5 151t157.5 132 182.5 110 211 70 247.5 27q74 0 131-8.5t87-19.5 72-22.5 86-15.5q25 27 41.5 94t24.5 129.5 29 111.5 55 49 84-47z"/><glyph unicode="🍏" horiz-adv-x="2048" d="M1116 1856q26-2 59.5-15t46.5-15q-59-76-81-149-11-37-18-72.5t-10-57.5-7-66-7-73q89 58 210 58 229 0 360.5-139.5t131.5-409.5q0-86-28.5-175t-69.5-158.5-91-132.5-87.5-100-65.5-57q-138-102-402-102-136 0-258 31t-192 87q-104 83-188 230.5t-128 306.5-44 296q0 171 112 265t280 94q164 0 317-88 14 48 33 111.5t30 104 20 89.5q14 19 25.5 38t17.5 30.5 17 34 17 34.5zm-83-776q0 71-25 126t-64 87.5-95 53.5-111 28.5-118 7.5q-58 0-99-14.5t-72.5-51-47-103-15.5-165.5q0-121 22.5-228.5t59-185 85.5-141 99-103 103-64.5q102-48 270-48 93 0 188.5 17.5t130.5 46.5q145 120 235.5 300.5t90.5 350.5q0 192-87 279t-259 87q-114 0-151-43-21-23-36-61.5t-22.5-70-28-61.5-53.5-44z"/><glyph unicode="🍔" horiz-adv-x="2048" d="M310 1423q-4-13-9-38t-9.5-40.5-13-32.5-24.5-25-39-7q12 127 90.5 224.5t203 154 271.5 84.5 311 28q294 0 537-79 42-25 85-88.5t51.5-128.5-57.5-100q-27 19-42.5 63.5t-30 91-38.5 67.5q-192 74-477 74-322 0-494-54t-315-194zm968-191q51-6 91 6.5t68 33 56 40.5 70 30 96 1q65-112 254-174-25-51-75.5-59.5t-100 15-90.5 63-51 76.5q-29-13-96.5-53.5t-122.5-60-114-13.5q-31 3-93.5 47t-97.5 48q-36 4-88.5-15t-98.5-43.5-105-46-105-22.5q-60-1-156 33t-130 31q-31-4-58-20t-47.5-36-41.5-40-48.5-33.5-58.5-13.5q-9 51 63.5 128.5t143.5 93.5q61 14 116-1t108.5-38 92.5-25q46-2 95.5 13t92.5 36.5 86.5 42 92 32 94.5 4.5q33-6 86-40t72-40zm556-270q37-180-18-218 20-77 20-142 0-124-76-194t-212-70q-50 0-201 11.5t-237 11.5q-48 0-162-21t-252.5-42-244.5-21q-46 0-77 3t-60.5 11.5-48 26-35.5 43.5-28 66.5-19.5 92.5-15.5 125q40-3 62.5-30.5t29-60 15.5-78 20-69.5q53-12 119-12 95 0 348.5 37.5t342.5 37.5q68 0 184-6t172-6q62 0 106 6t83.5 21.5 60 46.5 20.5 78q0 49-23 114-65 19-160.5 21.5t-182.5-5.5-219-19-232-13q-54-3-175.5-12.5t-201-14.5-177-3.5-160.5 14.5q-31 43-43 93.5t5.5 104.5 69.5 88q23 15 80 27.5t137 20.5 149.5 13.5 154.5 10.5 114 7q82 7 253.5 10.5t206.5 5.5q131 5 237 5t180.5-28 90.5-88z"/><glyph unicode="🍞" horiz-adv-x="2048" d="M1724 1409q106-89 155.5-282.5t49.5-440.5q0-259-49-504-291-71-757-71-273 0-860 33-8 72-38.5 217.5t-54 289.5-23.5 259q0 249 116 374-7 30-32 63t-49.5 57.5-44 66.5-19.5 92q0 41 12.5 82.5t42.5 89.5 48 73.5 60 80.5q91 15 218 15 25 0 232.5-5.5t351.5-5.5q72 0 217 22t210 22q134 0 217.5-73.5t83.5-230.5q0-151-87-224zm-804 327q-115 59-365 59-127 0-223-13-10-35-35.5-64.5t-46-57-22.5-63.5q-1-38 19-71t50-57 60-46.5 51-50 21-57.5q0-28-17.5-52t-43-49-51-59-43-98-17.5-150q0-109 36-304t83-350q354-28 682-28 441 0 756 49 1 76 9 246.5t8 255.5q0 130-14.5 226.5t-36.5 147.5-51 88-54.5 53-50.5 37.5-36 44.5q4 25 23 46t39.5 34 41 36 28.5 51q24 91-43 211-159 49-343 49-214 0-414-64zm452-94q-2 14 1.5 23.5t9.5 18.5 8 15q52 3 40-62-18 1-59 5zm-798 17q2-10 2-15 0-19-10.5-29t-25.5-10q-16 0-28.5 11t-12.5 29v5q22 13 46 13 14 0 29-4zm101-37q-1 18 22 23t25 17q30-12 26-46-16-13-38-11.5t-35 17.5zm842-21q-2 14 1.5 23.5t9.5 18.5 8 15q13 2 24.5-7.5t18.5-10.5q3-51-62-39zm-342-18q0 12 10 27.5t9 30.5q16 1 33-12.5t40-8.5q1-9-.5-15.5t-4.5-11-6.5-7.5-10.5-4.5-12-2-13.5-.5-14 .5-15.5 2-15 1.5zm-207 1q-13-11-34-11t-37 10.5-16 29.5q0 1 .5 3t.5 4q14 12 41 12 47 0 47-34 0-9-2-14zm-622 4q30 18 75 9 4-39-16.5-50t-61.5-3q1 7 2 22t1 22zm1206-109q-1 32 10 46.5t39 9.5q1-31-10.5-46t-38.5-10zm-840 51q12-1 36.5-3t36.5-3q2-8 2-10 0-15-13.5-24t-30.5-9q-36 0-36 29 0 10 5 20zm-167-46q10-1 29.5-2.5t29.5-2.5q1-3 1-9 0-15-11.5-24t-25.5-9q-28 0-28 26 0 8 5 21zm381-59q11 24 40.5 33.5t49.5-11.5q-17-23-18-43-45-3-72 21zm541 18q3-18-5.5-24.5t-21.5-10-16-13.5q-7 3-17 14.5t-19 14.5q9 23 34 31t45-12zm-216-29q2-10 2-15 0-18-10.5-28.5t-24.5-10.5q-28 0-28 31 0 8 1 13 1 0 3.5-.5t3.5-.5q8 0 21 6t22 6q6 0 10-1zm-437-99q0-1 .5-4t.5-4q0-34-41-34-34 0-51 19 5 17 21 28.5t34 11.5q22 0 36-17zm-244-85q-9 10-8.5 19.5t5.5 16 13 17.5 11 20q18 2 36.5-8.5t20.5-11.5q-9-63-78-53zm414-3q-4 27 11 41t35 13 32-15q2-32-22-39.5t-56 .5zm500-53q-14 0-23 4t-13 8-3 14 2.5 14.5 6.5 18 6 17.5q31-1 37.5-31.5t-13.5-44.5zm-179-16q2-8 2-11 0-14-14.5-23.5t-31.5-9.5q-32 0-32 25 0 6 1 10 18 12 46 12 12 0 29-3zm305-68q-3 18 5 25.5t18 13 11 17.5q22-3 26-25.5t-2-49.5q-18-2-37 8t-21 11zm-752 29q0-1 .5-4t.5-4q0-34-41-34-34 0-51 19 5 17 21 28.5t34 11.5q22 0 36-17zm-272-68q15 14 45 11.5t43-18.5q-17-21-18-43-12 1-37 3t-37 3q0 7 2 22t2 22zm-195-29q9 27 39 37t52-14q4-26-14.5-36t-42-5-34.5 18zm652 8q16 13 38 11.5t36-16.5q2-32-21.5-39.5t-55.5.5q2 30 3 44zm419-136q-13 16-11.5 38.5t17.5 35.5q30-2 44-4 0-19-2-30.5t-6.5-23.5-15-16-26.5 0zm-650 21q15 14 45 11.5t43-18.5q-26-52-91-37 1 8 2 22.5t1 21.5zm425-63q-11 18-9 38t23 31 50 1q9-72-64-70zm456-35q-24-5-28.5 12.5t4 37.5 15.5 25q14 2 22.5-16t5-37.5-18.5-21.5zm-664 37q12-1 37-3t37-3q1-3 1-10 0-15-13.5-24.5t-30.5-9.5q-15 0-25.5 7.5t-10.5 21.5q0 11 5 21zm-420-71q-4 21 6.5 28.5t25 11.5 17.5 15q9-3 20-16.5t22-16.5q-9-27-39-36.5t-52 14.5zm-193-15q0 25 13 34.5t42 12.5 37 5q-17-17-19-57-26 1-73 5zm1101-115q-24-3-34 12t-6 34.5 17 29.5q24 3 34-12t6-34.5-17-29.5zm-205 31q2-8 2-10 0-21-36-21-17 0-30 6.5t-13 17.5q0 7 4 12 4 4 19.5 9t28.5 5q25 0 25-19zm394-75q-28 4-27 39t19 50q1-1 7-4.5t7-4.5 6.5-5 6.5-5.5 5.5-6.5 4-7 3-8 1.5-10-1-11q-27-12-32-27zm-781 46q-1-23-16.5-36.5t-34.5-13.5q-17 0-26 11 2 30 3 44 35 5 38 5t36-10zm-283-23q46 3 72-20 0-2 .5-5t.5-4q0-33-40-33-34 0-51 19 17 21 18 43zm487-23q-1-23-18.5-37t-39.5-14q-21 0-34 14 8 48 50 48 20 0 42-11zm-682-6q16 14 45.5 12t43.5-19q-6-10-9.5-15t-11.5-12.5-14-9-18-4-24 2.5q-14 24-12 45zm1256-231q-11 12-12 24.5t4 22.5 10.5 25.5 5.5 30.5q29 2 38-35 10-37-9-59-14-15-37-9zm-176 29q-9 10-10.5 19t2 15 8 17 6.5 22q32 5 40-25 7-28-13-44-13-11-33-4zm-681-7q22 44 91 38-4-25 13-31-16-34-77-38 0 1-1.5 4l-2 4-2 3.5-2 4-2 3.5-3 3-3 3-3 3-4 1.5-4.5 1.5zm224 27q10 1 30.5 6t33.5 3 24-16q-6-38-35-46t-57 9q1 8 2.5 22.5t1.5 21.5zm-599-86q0 79 79 67 5-35 5-37t-11-36q-12 1-36.5 3t-36.5 3zm191-15q-3 45 21 72 14 2 23.5-1.5t18.5-9.5 15-8q-9-64-78-53zm640 39q-15 17-11.5 60t20.5 58q16-2 44-4 1-12 5.5-32t5.5-32-4-40q-12 2-29-5.5t-31-4.5z"/><glyph unicode="🍟" horiz-adv-x="2048" d="M1373 1951q-127 12-158 2-3-20-8-68t-10-69q26-87 121-484 2-7 6.5-9.5t13-4 12.5-2.5q-1-15 5-86t12-105q14 19 29.5 49t17.5 34q-11 398-41 743zm53 30q0-14 8-158.5t4-238.5q18-8 71-13.5t81-20.5q-5-46-28.5-285.5t-33.5-323-33.5-266-50-323.5-60.5-287q-294-21-392-21-152 0-311 26-19 50-36.5 113t-27.5 107.5-27.5 126.5-25.5 119q-7 33-43 293t-50 371q-1 11-5.5 36t-5.5 39-1 34.5 6 39 18 37.5q51 26 151 47 1 38-4.5 101.5t-6.5 96.5q13 10 52.5 13t51.5 10q10 27-1.5 91.5t-9.5 95.5q122 77 244 46 3-9 14.5-35.5t16-47 4.5-45.5q27 10 73.5 15.5t55.5 8.5q10 32 18 105.5t16 103.5q2 0 27 3.5t36.5 4.5 38 3.5 44 1.5 41-2.5 43.5-7.5 38-14zm-454-1002q2 127-21 330t-26 241q12 16 69 31-32 164-77 269-13 2-36-3t-40.5-11-43-16-30.5-12q0-22 2.5-69t2.5-68q6-6 30 0t28-3q35-55 55.5-151t26.5-185.5 20.5-191 39.5-161.5zm51 737q3-14 9-41.5t9-47 5-48.5q1 0 34-2t52-5.5 28-11.5q13-82 33-232 15-2 38.5-2t44.5-1q-36 145-48 188-13 47-30.5 121t-29.5 111q-25-6-76.5-15.5t-68.5-13.5zm-349-119q4-41 12.5-129.5t12-132 8.5-112 6.5-127 .5-119.5q12-10 46.5-14.5t82-6.5 58.5-3q-9 144-60.5 392t-71.5 265q-9 0-47-6.5t-48-6.5zm296-76q2-30 17.5-162.5t25.5-245 6-146.5q35-15 85-21.5t82 5.5q-7 63-69 578-15 11-71 10.5t-76-18.5zm472 15q3-26 2.5-131.5t7.5-143.5q2 4 27 36.5t34 56.5q20 54 28 158-27 22-99 24zm-810-174q-7-1-28.5-3t-33-3.5-25.5-7.5-21-15q8-18 27-62t30.5-69 31-59 38.5-60q0 56-3 95.5t-8 88-8 95.5zm562-70q9-84 42-346 17 10 48.5 55.5t44.5 59.5q-5 50-10.5 135.5t-5.5 89.5q-47 13-119 6zm-604-579q11-14 30-40.5t25-34 27.5-22.5 43.5-18.5 65.5-9.5 100.5-7 143-1q149 0 255 27.5t154 100.5q18 57 34.5 201.5t20.5 257.5q-205-290-237-290-13 0-84.5-1.5t-143-2-149.5 0-131.5 6-61.5 15.5q-35 43-82.5 124.5t-70.5 110.5q11-73 29.5-205.5t31.5-211.5zm124-585q117-22 283-22 163 0 348 22 6 47 24.5 127.5t21.5 94.5q-196-26-376-26-185 0-346 26 14-92 45-222z"/><glyph unicode="🍴" horiz-adv-x="2048" d="M1577 177q-11 68-15 139t-5.5 174.5-3.5 144.5q-3 100-12 205-3 42-.5 77t1 74.5-12.5 64.5q-12 29-40.5 54.5t-57 41.5-56.5 39-39 46q-26 58-32 149.5t5.5 180.5 41.5 165.5 70 106.5q67 50 217 50 172 0 292.5-121.5t120.5-294.5q0-85-36-169t-101-139q-20-81-16.5-193t17-208 16.5-212.5-17-205.5q-3-12-6-17t-8.5-9-9.5-10q-7-10-22-35t-25.5-39.5-30-32-42.5-26.5q-36-2-104 4t-89-4zm-1159 757q42-236 50-326 25-295-99-433-52-16-93-16-49 0-84.5 31.5t-56.5 95-34.5 140-22 187.5-15 215.5-17.5 245-26 257.5q-72 532 67 532 21 0 37.5-6.5t32-23.5 26.5-31.5 31-45.5 35-52q3-5 50.5-68.5t72-97 69-101 69-111.5 44.5-94 20-82q0-26-8.5-50t-29.5-50-33-39-45.5-42-39.5-35zm1388-552q4 115-4 249.5t-18 219-13 180.5 11 134q12 43 73.5 103t70.5 89q17 52 17 115 0 90-33 163.5t-102 120-163 46.5q-82 0-139-50.5t-82-129.5-25-178q0-127 58-195 19-23 55-37t66.5-34 46.5-61q9-24 11-58.5t0-65.5 1-69q35-431 24-662 35-15 60-11t41 14 25.5 31.5 13.5 41.5 5 44zm-1701 1166q17-147 29.5-396.5t32-467 58.5-389.5q16-50 56-50 27 0 49 22 44 56 56.5 147t3.5 175.5-21 207.5-11 204q8 10 41.5 39t56.5 58 23 55q0 10-89.5 160t-100.5 189q-22 49-86 129t-110 109q-8-25-8.5-52t3-46 9.5-48 8-46zm1580 110q7-22-1.5-41.5t-23.5-33-29.5-32.5-17.5-37q-10-80 60-145 17 2 38 15t35.5 23 38 13 45.5-14q-14-61-60-95t-102-34q-72 0-118 67t-46 151q0 72 34.5 120t102.5 48q17 0 44-5zm-806 66q10-201 9-526.5t1-518.5q-24-22-41.5-29.5t-43-13.5-52.5-19q-30-78-14.5-195.5t56.5-178.5q-6 64-2 116.5t18 89.5 48 59 89 26q20-6 39-46t36.5-83 32.5-53q5 18 14.5 72.5t21 97.5 28.5 58q25 8 45.5 8.5t34.5-4.5 25-17 17.5-26 11-36 7-41 4.5-46q15-37 30-142 55 70 52 158t-35.5 163.5-70.5 103.5q-27 1-83 33.5t-89 31.5q-10 37-15 179.5t-10 164.5q2 100 1 179.5t-10 148.5-30.5 141-59.5 156q-6 0-32.5-5.5t-32.5-5.5zm240-891q22-17 50-28.5t72-25 59-18.5q36-45 64-134t37-183-27-168-120-84q-18 33-24.5 81.5t-6 87.5-12.5 80-43 67q-31-24-42.5-64t-11-78-15-88.5-52.5-91.5q-34 23-51 73.5t-30 110.5-32 89q-32-15-49-46.5t-22.5-66.5-12.5-70-29-65-62-44q-29 35-54 97t-35.5 134.5-3 139 49 115.5 114.5 60q2 572-39 947v19q0 136 97 136 82 0 136.5-107t69.5-292q5-57 9-274t16-309z"/><glyph unicode="🎁" horiz-adv-x="2048" d="M1137 1617q30 1 79.5 12t74.5 28q33 23 65 92t23 81q-8 11-53.5-6t-80.5-42q-51-37-86.5-92t-21.5-73zm-324 174q-36 34-97 34-87 0-87-83 0-74 27.5-101.5t102.5-27.5q40 0 92 9 5 41-6 94.5t-32 74.5zm284-1512q-49 380-49 966 0 19 1.5 49.5t2 52.5 0 49.5-4.5 46-11.5 35.5-21.5 25.5-33 8.5q-30 0-45.5-18t-16.5-44-1.5-55-.5-52q-6-54 5-149.5t11-112.5q0-64 11-369t5-450q37-6 83 5.5t65 11.5zm-754 753q139-19 255.5-21.5t219.5 5.5q4 34 1 218.5t-1 256.5q-154 2-249.5-5t-192.5-28q-9-62-15-223t-18-203zm1262-33q1 63 2 94.5t-4.5 87.5-9 83-11 80.5-10.5 80.5q-228 71-426 66 2-76-1-256.5t1-218.5q76-7 227.5-10t231.5-7zm-451-195q104-10 239.5-10.5t227.5 13.5q11 51-12 136-139 9-455 9v-148zm-802 156q0-9-2-73.5t2-71.5q38 5 73 6.5t84 2.5 82 2q75 4 239-5l-11 125q-69 4-234.5 9t-232.5 5zm499-698q-4 90 0 169t1.5 171-17.5 152q-29-2-227.5-1.5t-248.5-15.5q13-52 19.5-200.5t30.5-208.5q57-31 128-43t173-15.5 141-7.5zm344 17q110-1 173 1t146.5 13.5 139.5 34.5q4 85-14 217.5t-19 191.5q-51 0-235.5 3.5t-223.5-3.5q-8-101 12-249t21-209zm-917 1212q115 96 327 82-32 38-45.5 96.5t-6.5 113.5 48.5 94.5 112.5 39.5q26 0 50.5-7.5t41-15.5 40-29.5 33-31.5 36-40.5 34.5-39.5q31 28 65 28 47 0 83-44 24 15 58 46.5t59.5 55 64.5 42.5 80 19q38 0 82-16 34-96-9.5-178.5t-121.5-132.5q18-3 87.5-14t116-19.5 107.5-26 98-38.5q6-62 30-269.5t38-367.5 14-271q0-146-43-260t-121-143q-26-10-83.5-13.5t-123.5-3.5h-71q-43-2-131.5-6.5t-166.5-7.5-147-3q-453 0-636 149-66 732 0 1212z"/><glyph unicode="🎒" horiz-adv-x="2048" d="M672 1791q12 6 41 6 21 0 86.5-5.5t100.5-5.5q103 0 132 38-112 8-201 8-161 0-161-34 0-1 2-7zm852-754q-37 243-59 330-52 207-154 293-47 19-108 19t-137-9.5-114-9.5q-36 0-123.5 4.5t-135 .5-87.5-22q-38-17-67-44.5t-46.5-60.5-28-77.5-15-87.5-4-98.5 3-103 6.5-108.5q3-39 4-59 1-21 5.5-96.5t6-100 6-90.5 8-95 9-84 11.5-87 14-75 17.5-77 20.5-65q148-19 314-19 383 0 685 85 8 32 12.5 69t7.5 67 2.5 75.5-.5 71-5 79-6.5 73-10 79.5-10 72.5-11.5 78.5-11 72zm-394 459q61-67 49-213-24-6-72-19t-83-22.5-86-20-81.5-10.5-70.5 6q-3 21-29 95.5t-20 134.5q117 59 262 59 56 0 131-10zm328-1081q-154-63-427-63-88 0-359 14-52 50-87 148t-35.5 197.5 40.5 178.5q103 14 210.5 23t163.5 12 202 7.5 194 6.5q24-42 45.5-87.5t40.5-103.5 28.5-113 6.5-113.5-23-106.5zm-262 409q-48 3-84 1t-104-9-91-8q-118-8-153-18-67-19-60-64 63-12 145-12 52 0 170.5 7t186.5 7q58 0 88-2 7 31 6.5 48.5t-16.5 27.5-33 14-44 7q-7 0-11 1zm524-114q-7-31 4.5-119t12.5-127q0-18-13-64.5t-9.5-76.5 38.5-39q30 54 41.5 135t-6.5 164.5-68 126.5zm-1409-82q-15-30-65-33 11-57 25-174t24-170q18 6 36 2t31.5-12.5 26-7.5 20.5 18q-19 33-28.5 90t-11.5 107.5-16 102-42 77.5zm819 1327q18-13 26.5-39.5t8-57.5-1.5-67q95 4 168.5-20.5t120-67.5 80.5-109 51.5-136 31.5-158 21.5-165.5 20.5-168.5 30-158q7-21 64.5-17.5t67.5-15.5q14-31 23.5-69.5t14.5-78 7.5-85 3-90 .5-92.5v-93q-13-11-20.5-17.5t-21-16-23.5-14.5-25.5-11-30.5-7.5-34.5-1.5-41.5 3q-128-60-322-89t-414-29q-199 0-383 22.5t-306 62.5q-5 28-26 133t-30.5 176-9.5 150q15 17 37.5 27.5t61 22 49.5 15.5q-1 53-5.5 139t-9 156-5.5 158.5 3.5 159.5 19 145.5 40 128.5 68.5 97.5 102 64.5q0 31-5.5 64.5t-5.5 58.5 11 57q207 42 422 42 91 0 167-9z"/><glyph unicode="🎤" horiz-adv-x="2048" d="M811 1829q2 89 64.5 136.5t148.5 47.5q77 0 136-37.5t65-102.5q12-188 10.5-472t-7.5-449q-3-86-15-137t-39-77-59-33.5-88-7.5q-27 0-41 .5t-39 3-39 8.5-33 16-30 27-22 40-16 56-5 74q-4 300 9 907zm-234-784q-1 30 19 45.5t53 17.5 74 0q4-52 2-177.5t-1-179.5q1-56 44-93t107.5-50.5 139.5-12.5 140 15.5 109.5 40 47.5 55.5q8 83 10.5 156t3 140 1.5 97q86-6 115-25 27-17 26-47-1-27-1.5-113t-4-175.5-12.5-170.5q-4-35-28-56.5t-61.5-29.5-75.5-11-83.5-8-72.5-14q-1-22-1-102.5t-5-120.5q18-2 55-4.5t64.5-5 64.5-7.5 63.5-13 51-20.5 37-31.5 12.5-44v-1q0-28-130-46t-298-18q-176 0-307 25t-131 68q0 18 6.5 32t20 24 30 17 39.5 11 44.5 6.5 50 3.5 51 1.5 52.5 1 50 1.5q0 10 2.5 117t-2.5 120q-29 6-85.5 11.5t-100 12-89 19-71 39.5-26.5 68q-1 48 .5 231t-.5 201z"/><glyph unicode="🎧" horiz-adv-x="2048" d="M17 797q-38 241 0 491 40 259 99 344 35 52 172 142.5t221 119.5q97 35 261 54.5t344 19.5q192 0 351.5-22.5t239.5-67.5q79-43 148.5-139t113.5-206.5 70-219 28-189.5q0-23 .5-48t-1.5-51-5-51.5-10.5-48.5-17.5-43-27-34-37.5-22-50-7.5-64.5 10.5q-10 65-19.5 154t-16.5 154-18.5 142-29 135-44 114-69 99-98.5 71q-74 37-231.5 69t-266.5 32q-295 0-508.5-99.5t-287.5-263.5q-24-53-32-118.5t-6.5-128.5 3-127-9-134.5-37.5-130.5q-25 0-57.5-7t-56.5-7-50 14zm1475-606q-6 87-19.5 200t-23.5 201.5-18 190-5.5 209 17.5 214.5q214 70 295 0 142-564 49-999-94-45-192-45-70 0-103 29zm-1213-99q-35 143-35 350.5t23.5 392.5 60.5 355q39-1 50 33 107 12 175-19t120-96q31-190 7-462t-89-521q-81-45-213-45-63 0-99 12zm1770 623q35-100-7-152.5t-157-27.5q-28 39-28.5 97.5t12.5 115.5q87 12 180-33zm-1868-213q-11-1-55.5-10.5t-74-8-50.5 18.5q-15 20-18 59.5t3 75.5 15 61q19 0 64.5 11.5t82.5 5.5q20-22 35-58t17.5-78-19.5-77z"/><glyph unicode="🎮" horiz-adv-x="2048" d="M1553 1492q12 0 78.5.5t98 0 79.5-4 77-11.5q27-66 38-269.5t13.5-429.5 7.5-276q-172-16-349-17-963-9-1436 6-23 248-30 391-15 317-15 558 85 8 243 11.5t231 8.5q143 11 497.5 21.5t466.5 10.5zm-340-77q-67-6-176.5-7.5t-170.5-11.5q-7-41-3-91 223-24 355 0 0 9 2.5 28t1.5 37.5-9 44.5zm8-234q-72-11-183-5.5t-171-15.5q2-18 4-42.5t7-53.5q78-4 115.5-3t111 6.5 116.5 6.5q3 24 3.5 36t-1 32.5-2.5 38.5zm-343-243q-2-52-2.5-69t2.5-69 3-63q246-9 369 7-11 136-19 190-205-4-353 4zm554-165q-26-1-44.5 17.5t-20.5 44.5q-2 23 12.5 41t45.5 26q30 7 49-13.5t21-52.5q2-30-12-46t-51-17zm338 88q3-35-7-54t-42-20q-63 0-70 62-3 19 8 34.5t40 17.5q37 2 53-5t18-35zm-849-44q-1 13 19 23.5t43 8.5q54-3 59-22 2-9-3.5-14.5t-14-8-24.5-4.5q-78-6-79 17zm172 9q-1 4 5 8t17 7 20.5 5 19.5 3q15 2 33-2.5t21-13.5-7-17.5-27-8.5q-29-4-54 2.5t-28 16.5zm-662 287q9-58 8-86.5t0-80.5q-105 5-186-12 5-32 8-71.5t6-66.5q29 0 89.5-5.5t89.5-5.5q-7-15-.5-64t4.5-77q91-20 149-8 5 32 5 61.5t-2.5 59-2.5 43.5q12 0 74.5 3t88.5 1q9 93-3 141-80-1-168 8 0 23 .5 47.5t1 37-.5 33.5-5 49q-81-11-156-7zm1379-360q23 53-10 196-6 0-55 1t-85.5 0-63.5-4q6-28 6.5-104.5t11.5-108.5q38-4 101 9t95 11zm-278 193q-157-5-204-11 6-26 8-100t13-114q11 1 50 5.5t60.5 6.5 50 2 43.5-4q-8 36-12.5 111.5t-8.5 103.5zm445 671q-59 9-121.5 15t-139.5 8-127 3.5-145.5-.5-129.5-3-144.5-4.5-130.5-4.5q-189-6-542-22t-455-20q-12-290 14-577 5-65 5.5-186t8-220.5 31.5-179.5q213-17 638-27 182-4 525.5 9t492.5 13q19 0 79-6t100.5-1 77.5 28q-14 210-20.5 598.5t-16.5 576.5zm-499 90q89 4 113.5 5t109.5 1 128-5 102.5-17 99.5-32q20-87 22-195t-3.5-195.5 3.5-211.5q3-33 15-156t16-181.5 4-153-10-167.5q-51-40-116-51t-175.5-6-147.5 4q-577-23-1072 0-51 2-138.5-1.5t-151-6-135 7.5-116.5 37q-24 121-32 362.5t-13 298.5q-13 140-18 217.5t-.5 190.5 26.5 201q269 26 802.5 36.5t686.5 17.5z"/><glyph unicode="🐕" horiz-adv-x="2048" d="M801 331q-40 0-76-2t-49.5-2-37.5 3.5-62 13.5q1 25 2.5 35t11.5 28 35.5 27.5 68.5 13.5q-12 43-16 116t-4.5 134-13.5 126-41 102q-57 118-75 150-21 35-72 53.5t-108.5 19-118-1-100-5-55.5 6.5q-3 14-12.5 32.5t-16 30-9.5 30.5 7 34q9 18 13.5 25.5t14.5 13 17.5 6.5 32 6.5 49.5 12.5q51 14 65.5 26t66.5 80q25 34 122.5 37t188.5-10q219-23 367-27 300-7 590-87 9 2 32.5 4t42.5 4 47.5 11 52 23 51 41 49 63.5 41 93 32.5 126.5q46-81 54-108 22-70-23-171l-6-12q-12-25-35.5-50t-46-42.5-58.5-38-55-30-53.5-26-37.5-17.5q7-39 17.5-89.5t14.5-72 3.5-47-10.5-43.5q-28-50-57-140.5t-23-139.5q4-29 14.5-84.5t16-90 9.5-90.5-5-86q-28-20-50-23t-64.5 4.5-71.5 8.5q-11 22-13 36t7 22.5 18.5 13 32 11.5 37.5 14q2 59-3.5 101t-11 56.5-25 44-24.5 38.5q-54 63-85.5 117.5t-60 132.5-30.5 83q-31 15-82.5-2t-101-45.5-120.5-48.5-133-9q-23-16-34.5-41t-14-48.5-7-74-11.5-89.5q-7-64-4-151.5t0-166.5z"/><glyph unicode="🐭" horiz-adv-x="2048" d="M1897 1345q21-107 21-216 0-139-32-270t-101.5-249-169-206.5-243-140.5-315.5-52q-135 0-251 31t-197.5 82.5-146.5 121-105 143-66.5 152-37 143.5-10.5 123q0 24 1 35 2 25-16.5 38.5t-67.5 42.5-95 71q-29 28-52.5 74.5t-23.5 106.5q0 127 94 214t239 87q129 0 236-71 72 84 199.5 135t289.5 51q127 0 270.5-32.5t234.5-82.5q39 71 118.5 116t163.5 45q96 0 160.5-62t64.5-158q0-83-45.5-160t-116.5-112zm-200 203q0 36 38 72.5t84 36.5q27 0 47-21.5t20-45.5q0-40-40.5-74.5t-85.5-34.5q-28 0-45.5 21t-17.5 46zm273 62q0 54-36.5 92.5t-88.5 38.5q-78 0-172-70t-134-133q-91 42-127.5 58t-104 40.5-124 33-121.5 8.5q-165 0-310-68t-232-182q-7 75-55.5 112.5t-116.5 37.5q-84 0-152-50.5t-68-127.5q0-32 9.5-60.5t19-47 36.5-43.5 40.5-35.5 53.5-39 55-39.5q0-385 192.5-599.5t516.5-214.5q211 0 383.5 104t270.5 286.5 98 405.5q0 117-30 242 74 45 135.5 113.5t61.5 137.5zm-1642-121q41 0 70.5-29.5t29.5-61.5q0-35-30.5-68t-64.5-33q-43 0-72.5 30t-29.5 78q0 37 29.5 60.5t67.5 23.5zm536-117q84 0 130-64.5t46-152.5q0-79-39-126-106 19-197 19-22 0-46.5-1t-53.5-2.5-47-2.5q-11 43-11 88 0 109 64.5 175.5t153.5 66.5zm672-333q-59 31-195 31-95 0-146-14-9 40-9 78 0 100 54.5 164.5t128.5 64.5q83 0 124-85.5t43-238.5zm-673 279q-69 0-107.5-58t-29.5-149q5 30 19.5 49t38.5 26.5 46 10.5 53.5 5.5 48.5 5.5q-6 110-69 110zm414-138q42 37 89 37 60 0 105-53-4 57-29.5 101t-72.5 44q-37 0-66.5-31t-29.5-71q0-15 4-27zm-57-339q0-62-37-86t-85-24q-21 0-35 14t-19.5 28-20 21-35.5-8q0 2-.5 6t-.5 6q0 58 46.5 91t103.5 33q83 0 83-81zm144-72q5 1 13 1 11 0 24.5-7t18.5-8q1-5 1-15 0-41-42-41-10 0-15 1-1 7-2.5 13.5t-2.5 9.5-1.5 6.5-.5 5.5q0 3 1 6.5t2.5 11.5 3.5 16zm169-39q-4-10-13.5-27.5t-13.5-27.5q-3 2-17.5 7.5t-20.5 12-6 18.5q0 8 3 17 14 14 34 14t34-14zm-681-33q-20-22-49.5-9.5t-19.5 51.5q15 1 28.5 0t23.5-4 15-13 2-25zm-194 15q4 1 10 1 15 0 23-10t8-25q0-23-14-35-16 6-27.5 18t-11.5 26 12 25zm761-62q27-3 27-33 0-15-10-26.5t-27-11.5q-7 0-18 3-3 9-3 16 0 15 14.5 29t16.5 23zm-679-48q5 1 15 1 41 0 41-40 0-10-1-16-18-9-30-9-26 0-26 45 0 12 1 19zm452-36q2-15-7-30.5t-23.5-27-39-25-43.5-22.5-47.5-21.5-42.5-18.5q20 82-19 103 12 4 53.5 22t77.5 30.5 58 12.5q30 0 33-23z"/><glyph unicode="🐼" horiz-adv-x="2048" d="M125 1285q-58 52-84.5 105.5t-26.5 156.5q0 199 116.5 325.5t284.5 126.5q139 0 270-90 169 90 386 90 250 0 420-116 93 17 168 17 88 0 157.5-28t109-69.5 65-95.5 34.5-99.5 9-87.5q0-64-13-107.5t-36-66.5-46.5-38.5-51.5-37.5-45-50q13-98 13-206 0-220-47-390t-125-277-189-175.5-229-95.5-255-27q-79 0-160 9t-178.5 34-184.5 64-170.5 105-144 151-97 207.5-36.5 269.5q0 70 7 123.5t14.5 80.5 29.5 89.5 35 102.5zm131 156q-53-98-81-255.5t-28-309.5q0-126 65.5-285.5t147.5-229.5q142-122 310.5-179t339.5-57q140 0 256.5 33.5t192.5 83.5 135.5 122.5 91 135 53.5 138 28 114 10 78.5q10 123-2.5 345t-62.5 305q-52 86-105 154t-98.5 113.5-96 78-90.5 50-90 27-85.5 12-85.5 2.5q-120 0-290-74.5t-315-186.5-200-215zm1170-286q47-50 79.5-98.5t76.5-135.5q10-19 28-48t27.5-47.5 9.5-34.5q0-66-53.5-96.5t-139.5-30.5q-76 0-184 23-55 34-88 110t-33 158q0 93 45 155.5t134 62.5q42 0 98-18zm-715-13q19 4 44 4 77 0 127-37.5t50-91.5q0-34-25-91.5t-68-118-114-104.5-150-44q-85 0-141 46t-56 115q0 58 46.5 119t108 103 111.5 69 67 31zm102-155q0 33-22 53t-56 20q-39 0-65-17.5t-26-50.5q0-36 24-54.5t61-18.5q40 0 62 13.5t22 54.5zm518 69q-34 0-54.5-32t-20.5-62q0-23 21-39.5t58-16.5q44 0 67.5 21.5t23.5 59.5q0 35-27 52t-68 17zm-126-539q24-47-7-92.5t-93-72-128-26.5q-65 0-113 28t-62 85q4 0 6.5 3t3.5 6.5 1.5 8.5 1.5 8q65 65 219 65 54 0 171-13z"/><glyph unicode="👀" horiz-adv-x="2048" d="M1033 1315q-43 25-99-16 12-22 26-64.5t23-61.5q11 4 21 4.5t14 0 16.5-4.5 14.5-5q-23 65-16 147zm65-33q-11-85-1-124 9 5 24.5 11t24 10 20.5 11 14.5 13 5.5 17.5-6 23.5q-27 28-40.5 35.5t-41.5 2.5zm-308-210q0-103 77.5-168t179.5-65q85 0 145.5 46.5t60.5 127.5q0 64-40 138-11-10-29-23.5t-31-22.5l-13-9q3-18 3-34 0-62-33.5-102t-85.5-40q-53 0-90 36.5t-37 89.5q0 42 24 84-19 23-39.5 64.5t-28.5 54.5q-63-90-63-177zm-134 177q-24-18-70.5-53.5t-75.5-57-70.5-50.5-78.5-51q231-299 557-279-100 22-165.5 83.5t-79.5 163.5q-24 185 43 256-13-2-25.5-6t-20-5.5-14.5-.5zm649-11q32-17 49-68t16.5-111-10.5-121q-30-65-60.5-104.5t-102.5-91.5q30 16 91.5 45.5t98.5 49.5 83.5 50 80 67.5 55.5 82.5q-25 17-59.5 54t-61 67-74.5 54.5-106 25.5zm514-316q-12-28-32-29t-54 8-61 4q-131-127-342.5-204.5t-403.5-77.5q-102 0-189 23t-156 64.5-123.5 83.5-122 94-121.5 83q55 91 135.5 171t180.5 143.5 223 100.5 250 37q202 0 370-78t331-227q10-9 32.5-27t36.5-30.5 31-31.5 24-34.5 6-35-15-37.5z"/><glyph unicode="👄" horiz-adv-x="2048" d="M1993 1115q-9-30-24.5-39t-38.5-11-37-12q-40-27-75.5-70t-57.5-81-54-80-66-67q-219-161-565-161-186 0-355.5 45t-289.5 147q-22 19-57.5 58.5t-62.5 69-70 57-89 34.5q-96 14-96 36 0 14 50 31 66 21 116 52t78.5 61.5 52.5 63 45.5 60.5 50 50 74 35 109.5 13q100 0 199.5-40t152.5-100q9 3 38.5 34t63.5 64 98.5 61 139.5 28q199 0 384-238 31-40 64-57.5t60-18.5 73.5-6 88.5-19zm-320 55q-32 24-70.5 68.5t-65.5 76-72.5 56.5-99.5 25q-131 0-258-129-14-14-32-42.5t-35.5-44-46.5-16.5q-16 11-71.5 53.5t-86 62.5-80 40.5-92.5 20.5q-34 0-81.5-23.5t-84.5-50.5q-184-136-243-181 66-2 155 5t155 5q74-18 159-40.5t124-32.5 48-10q136 0 232 22.5t136 47.5q49 22 191 75 40 5 174 1 49-1 49 6 0 2-4 5zm-219-84q-2-1-67.5-27t-133.5-51-153-47-137-22q-64 0-129.5 15.5t-133.5 39.5-94 30q-38 4-161 6.5t-191-6.5q56-25 117.5-73t115-93.5 120-89 163-70.5 214.5-27q255 0 461.5 107.5t360.5 297.5q-207 13-352 10z"/><glyph unicode="👍" horiz-adv-x="2048" d="M1037 1263q14-1 67.5-3.5t80.5-4.5 80-6.5 85-10 77-15 73.5-20.5 56-28 42.5-37q1-18 2.5-38.5t2.5-30 0-26-5-37.5q77-65 60-216-10-14-24.5-29t-23.5-22.5-31.5-24.5-28.5-21q10-13 26.5-33.5t22-29 11-24 5.5-34.5q0-25-11-47t-36.5-43-39.5-31.5-49.5-30.5-37.5-21q71-17 107.5-56.5t36.5-89.5q0-41-23.5-80.5t-66.5-67.5q-32-20-118-30.5t-176-15-108-8.5q-52-3-137.5-12.5t-139.5-13.5-120.5-2.5-121.5 20.5-102 55q-10 70-33 210t-33 213.5-17 190-1 227.5q54 80 85 133.5t64.5 142.5 42.5 180q8 81-7.5 298.5t7.5 301.5q71 31 136 31 106 0 191-77t129.5-196.5 44.5-251.5q0-131-45-238zm-255 461q10 28 3.5 84.5t-26.5 97.5q-17 34-97 34-7-23-7.5-58.5t2.5-65.5 7.5-74.5 6.5-65.5q29 2 62 17.5t49 30.5zm51 151q27-114-12-177t-144-63q-1-29-1-119t-1.5-130.5-9.5-102-24-104.5q-14-39-50-91.5t-65.5-103-36.5-99.5q-15-102 13-375t79-388q171-29 372 0 36 6 139.5 9.5t198 14 151.5 36.5q23 11 33.5 24.5t17 39.5 9.5 33q-21 25-91.5 33t-144.5 4-144.5 3-92.5 31q6 9 15.5 15.5t18 10 26 10 28.5 10.5q116 44 285 71 34 6 60.5 25t39 37 25.5 44q-12 39-66.5 49.5t-117 .5-145-21.5-126.5-9.5q-19 1-33.5 9t-24 22-15 25-10.5 27q40 23 129.5 35.5t175 16.5 168 22.5 113.5 52.5q7 76-24 120-67 4-182-2.5t-181-17.5q-70-10-156-31-45-11-68.5 7t-42.5 64q21 28 82 39t137.5 11.5 153.5 1 142 14.5 91 46q-9 40-49 67t-91 39-122 17.5-126 5-121-2-89-1.5q12 72 12 121-4 13-29 13t-46.5 2-20.5 20q3 15 22 19.5t39 3 35 7 12 30.5q-4 19-26.5 13.5t-43-3-14.5 25.5q4 26 22 31.5t37.5 0 36.5 4.5q12 45 12 88t-8.5 76-26.5 69.5-34.5 61-39.5 59-35 54.5zm-2-886q-14 24-17 30t-8 23.5.5 29 17 30.5 34.5 43q-1-21-7-41.5t-7-30.5q0-11-5.5-35.5t-7.5-48.5zm42-283q-8-10-27 .5t-32 31-5 35.5q5 16 15.5 25.5t17 11.5 19.5 4q-2-7-8.5-19t-9.5-21.5-2-18.5q2-9 16-27.5t16-21.5zm20-223q-22-7-39 9t-21 39q-6 35 23 69 2-10 3-34t4-32q2-7 14.5-23.5t15.5-27.5zm72-241q-8 4-19 8.5t-14.5 6-8.5 7-6 14-2 22.5q2 22 14.5 36.5t23.5 14.5q-1-14-3-32t-2.5-25.5 3.5-21 14-30.5z"/></font>
</defs>
</svg>
